<?xml version="1.0" standalone="no"?>
<!DOCTYPE svg PUBLIC "-//W3C//DTD SVG 1.1//EN" "http://www.w3.org/Graphics/SVG/1.1/DTD/svg11.dtd" >
<svg>
<metadata>
Created by FontForge 20090914 at Sat Oct 24 14:28:53 2020
 By www-data
Copyright (c) Fredrick Nader, 2003. All rights reserved.
</metadata>
<defs>
<font id="Contra-Italic" horiz-adv-x="510" >
  <font-face
    font-family="Contra"
    font-weight="400"
    font-style="italic"
    font-stretch="normal"
    units-per-em="1000"
    panose-1="2 0 5 3 0 0 0 9 0 4"
    ascent="800"
    descent="-200"
    x-height="508"
    cap-height="691"
    bbox="-210.999 -264 1154.8 946.001"
    underline-thickness="50"
    underline-position="-50"
    slope="-12"
    unicode-range="U+0020-U+FB02"
  />
<missing-glyph horiz-adv-x="292"
 />
    <glyph glyph-name=".notdef" horiz-adv-x="292"
 />
    <glyph glyph-name="space" unicode=" " horiz-adv-x="250"
 />
    <glyph glyph-name="exclam" unicode="!" horiz-adv-x="282"
d="M228 382l-10.999 -58.5c-4 -21.667 -8 -42.167 -12 -61.5l-14 -69h-71c2 24 4.33301 47.333 7 70l6.5 61.5c2.33301 21.667 5.16602 40.5 8.49902 56.5l49 311h86zM193.001 50c-3.33301 -22 -10.333 -37.499 -21 -46.499s-27 -13.5 -49 -13.5
c-23.333 0 -39.166 4.66699 -47.499 14s-10.833 24.666 -7.5 45.999s10.666 36.666 21.999 45.999s28.333 14 51 14c22 0 37 -4.66699 45 -14s10.333 -24.666 7 -45.999z" />
    <glyph glyph-name="quotedbl" unicode="&#x22;" horiz-adv-x="394"
d="M323 449h-72l38 243h72zM160 449h-72l38 243h72z" />
    <glyph glyph-name="numbersign" unicode="#" horiz-adv-x="584"
d="M448 425l-45 -152h94l-8 -54h-101l-65 -219h-77l65 219h-124l-65 -219h-77l65 219h-92l8 54h100l45 152h-92l8 54h99l64 213h77l-64 -213h124l64 213h77l-64 -213h94l-8 -54h-102zM247 425l-45 -152h124l46 152h-125z" />
    <glyph glyph-name="dollar" unicode="$" horiz-adv-x="555"
d="M438 609c-7.33301 4 -15.8398 8.16992 -25.5068 12.5029s-22.5 7.83301 -38.5 10.5l-74 -237c20.667 -10 41.167 -20.5 61.5 -31.5s38.333 -24.333 54 -40s27.334 -34.5 35.001 -56.5s9.16699 -49 4.5 -81c-5.33301 -30.667 -15.5 -58.167 -30.5 -82.5
s-33.667 -45 -56 -62s-47.666 -30 -75.999 -39s-57.833 -13.5 -88.5 -13.5c-5.33301 0 -10.666 0.166992 -15.999 0.5s-10.666 0.5 -15.999 0.5l-24 -79l-44 1l26 83c-31.333 5.33301 -55.666 12.833 -72.999 22.5s-30.666 18.167 -39.999 25.5l25 156h26l23 -115
c6.66699 -4.66699 14.834 -8.83398 24.501 -12.501s21.5 -6.83398 35.5 -9.50098l83 259c-19.333 9.33301 -38.333 19.666 -57 30.999s-34.834 24.666 -48.501 39.999s-23.667 33.833 -30 55.5s-7.16602 47.834 -2.49902 78.501c4.66699 29.333 14.667 55 30 77
s34 40.5 56 55.5s46.167 26.167 72.5 33.5s53.166 11 80.499 11h19l22 70l43 -1l-23 -72c32.667 -4 57.834 -10.5 75.501 -19.5s32.167 -17.5 43.5 -25.5l-25 -159h-26zM362.993 174.003c2.66699 16.667 2 31.332 -2 43.999s-10.333 24 -19 34s-19.167 19 -31.5 27
s-25.5 15.667 -39.5 23l-77 -243h14c15.333 0 31.333 2.16699 48 6.5s32.5 11 47.5 20s27.833 20.833 38.5 35.5s17.667 32.334 21 53.001zM184.993 529.001c-2 -14.667 -1.49902 -27.667 1.50098 -39s8.16699 -21.5 15.5 -30.5s16.166 -17.167 26.499 -24.5
s21.833 -14.333 34.5 -21l70 221h-1c-17.333 0 -34.333 -2.16699 -51 -6.5s-31.667 -11 -45 -20s-24.5 -20 -33.5 -33s-14.833 -28.5 -17.5 -46.5z" />
    <glyph glyph-name="percent" unicode="%" horiz-adv-x="830"
d="M770 207c-4 -23.333 -10.665 -47.6689 -19.998 -73.002s-22 -48.5 -38 -69.5s-35.167 -38.333 -57.5 -52s-48.166 -20.5 -77.499 -20.5c-31.333 0 -56.333 6.5 -75 19.5s-32.334 29.833 -41.001 50.5s-13.334 43.834 -14.001 69.501s1 50.834 5 75.501
c3.33301 23.333 9.5 47.5 18.5 72.5s21.333 48 37 69s34.667 38.333 57 52s48.5 20.5 78.5 20.5c31.333 0 56.166 -6.5 74.499 -19.5s32 -29.833 41 -50.5s14.167 -43.667 15.5 -69s0 -50.333 -4 -75zM154.002 -28.0029l-43 18l558 729l45 -19zM374.002 485.997
c-4 -23.333 -10.666 -47.6689 -19.999 -73.002s-21.833 -48.5 -37.5 -69.5s-34.667 -38.333 -57 -52s-48.166 -20.5 -77.499 -20.5c-31.333 0 -56.333 6.5 -75 19.5s-32.5 29.833 -41.5 50.5s-13.833 43.834 -14.5 69.501s1 50.834 5 75.501
c3.33301 23.333 9.66602 47.5 18.999 72.5s21.833 48 37.5 69s34.667 38.333 57 52s48.5 20.5 78.5 20.5c31.333 0 56.166 -6.5 74.499 -19.5s32 -29.833 41 -50.5s14 -43.667 15 -69s-0.5 -50.333 -4.5 -75zM704.003 206.994c2 14.667 3.50098 31.667 4.50098 51
s-0.5 37.5 -4.5 54.5s-11.333 31.333 -22 43s-26 17.5 -46 17.5s-37 -5.83301 -51 -17.5s-25.5 -26 -34.5 -43s-16.167 -35.167 -21.5 -54.5s-9 -36.333 -11 -51c-2.66699 -15.333 -4.5 -32.666 -5.5 -51.999s0.5 -37.833 4.5 -55.5s11.167 -32.5 21.5 -44.5
s25.5 -18 45.5 -18s37.167 6 51.5 18s26.166 26.833 35.499 44.5s16.5 36.167 21.5 55.5s8.83301 36.666 11.5 51.999zM308.004 485.994c2 14.667 3.50098 31.667 4.50098 51s-0.5 37.5 -4.5 54.5s-11.333 31.333 -22 43s-26 17.5 -46 17.5s-37 -5.83301 -51 -17.5
s-25.5 -26 -34.5 -43s-16.167 -35.167 -21.5 -54.5s-9 -36.333 -11 -51c-2.66699 -15.333 -4.33398 -32.666 -5.00098 -51.999s1 -37.833 5 -55.5s11.167 -32.5 21.5 -44.5s25.5 -18 45.5 -18s37 6 51 18s25.667 26.833 35 44.5s16.5 36.167 21.5 55.5
s8.83301 36.666 11.5 51.999z" />
    <glyph glyph-name="ampersand" unicode="&#x26;" horiz-adv-x="776"
d="M642 344c-2.66699 -15.333 -6.16895 -31.3359 -10.502 -48.0029s-9.5 -33.334 -15.5 -50.001s-13 -32.667 -21 -48s-17 -29.333 -27 -42l72 -93l75 -37l-4 -26h-131l-67 86c-34 -33.333 -71.667 -57.833 -113 -73.5s-84 -23.5 -128 -23.5c-34 0 -65 4 -93 12
s-51.5 20.5 -70.5 37.5s-32.667 38.833 -41 65.5s-9.5 58.334 -3.5 95.001c4 28 12 53 24 75s26.833 41.833 44.5 59.5s37.334 33.834 59.001 48.501s44.5 29 68.5 43c-7.33301 8.66699 -14.5 18.167 -21.5 28.5s-13.333 21.333 -19 33s-9.83398 23.5 -12.501 35.5
s-3 24.667 -1 38c4 24.667 11.5 46 22.5 64s24.667 32.833 41 44.5s34.666 20.334 54.999 26.001s41.833 8.5 64.5 8.5c20.667 0 39.834 -2.33301 57.501 -7s32.667 -12 45 -22s21.333 -23 27 -39s6.83398 -35.333 3.50098 -58c-3.33301 -19.333 -10 -36.666 -20 -51.999
s-22.167 -29 -36.5 -41s-29.666 -23.167 -45.999 -33.5l-48.5 -29.5l156 -207c11.333 22 20 43.667 26 65s11 43 15 65h-1l-83 36l4 26h252l-4 -26l-94 -36v0zM297.998 53.9971c34 0 65.835 7.49902 95.502 22.499s57.167 34.167 82.5 57.5l-182 242l-52.5 -37
c-15.667 -11.333 -29.334 -23.666 -41.001 -36.999s-21.334 -28.333 -29.001 -45s-13.5 -36.667 -17.5 -60c-4 -24 -2.83301 -44.833 3.5 -62.5s16.333 -32.5 30 -44.5s30 -21 49 -27s39.5 -9 61.5 -9zM446 569.996c3.33301 23.333 -1.67188 41.499 -15.0049 54.499
s-31.666 19.5 -54.999 19.5c-22.667 0 -41.667 -7.66699 -57 -23s-24.666 -34.333 -27.999 -57c-1.33301 -9.33301 -0.666016 -18.5 2.00098 -27.5s6.33398 -17.5 11.001 -25.5s9.83398 -15.667 15.501 -23l16.5 -21l33 18c12 6.66699 23.333 14.334 34 23.001s20 18 28 28
s13 21.333 15 34z" />
    <glyph glyph-name="quotesingle" unicode=""" horiz-adv-x="189"
d="M160 449h-72l38 243h72z" />
    <glyph glyph-name="parenleft" unicode="(" horiz-adv-x="325"
d="M382 705c-30 -26 -57.834 -55.168 -83.501 -87.501s-48.334 -66.5 -68.001 -102.5s-36.167 -73 -49.5 -111s-23 -75.333 -29 -112c-5.33301 -35.333 -6.66602 -70.166 -3.99902 -104.499s8.66699 -67.5 18 -99.5s21.5 -63 36.5 -93s31.5 -58 49.5 -84l-63 -35
c-21.333 29.333 -40.5 60.166 -57.5 92.499s-31 65.833 -42 100.5s-18.167 70.834 -21.5 108.501s-2 76.5 4 116.5c7.33301 45.333 18.5 88 33.5 128s33.333 78 55 114s46.834 70.667 75.501 104s60 66.333 94 99l52 -34v0z" />
    <glyph glyph-name="parenright" unicode=")" horiz-adv-x="263"
d="M271 321c-7.33301 -45.333 -18.332 -87.999 -32.999 -127.999s-33 -78 -55 -114s-47.167 -70.667 -75.5 -104s-59.833 -66.333 -94.5 -99l-51 34c30 26 57.667 55.167 83 87.5s47.833 66.5 67.5 102.5s36.167 73 49.5 111s23 75.333 29 112
c5.33301 35.333 6.66602 70.166 3.99902 104.499s-8.66699 67.5 -18 99.5s-21.333 63 -36 93s-31 58 -49 84l62 35c21.333 -29.333 40.5 -60.166 57.5 -92.499s31 -65.833 42 -100.5s18.167 -70.834 21.5 -108.501s2 -76.5 -4 -116.5z" />
    <glyph glyph-name="asterisk" unicode="*" horiz-adv-x="335"
d="M266 514l59 -115l-57 -28l-45 122l-86 -122l-50 25l101 118l-135 -7l8 53l132 -5l-59 115l58 28l45 -122l86 122l49 -25l-101 -118l135 7l-8 -53z" />
    <glyph glyph-name="plus" unicode="+"
d="M313 227l-34 -217h-81l34 217h-197l11 73h197l33 208h81l-33 -208h197l-11 -73h-197z" />
    <glyph glyph-name="comma" unicode="," horiz-adv-x="225"
d="M149 36c-4 -25.333 -11.1689 -47.168 -21.502 -65.501s-25.166 -34.166 -44.499 -47.499c-20 -15.333 -45 -27.333 -75 -36l-8 33c26 10.667 44.667 22.334 56 35.001s19.333 31 24 55h-13c-42 0 -60.333 17.667 -55 53c3.33301 17.333 11.333 31.166 24 41.499
s28.667 15.5 48 15.5c52.667 0 74.334 -28 65.001 -84z" />
    <glyph glyph-name="hyphen" unicode="-" horiz-adv-x="214"
d="M-1 217v73h284v-73h-284z" />
    <glyph glyph-name="hyphen" unicode="&#xad;" horiz-adv-x="214"
d="M-1 217v73h284v-73h-284z" />
    <glyph glyph-name="period" unicode="." horiz-adv-x="234"
d="M168 50c-3.33301 -22 -10.333 -37.499 -21 -46.499s-27 -13.5 -49 -13.5c-23.333 0 -39.166 4.66699 -47.499 14s-10.833 24.666 -7.5 45.999s10.666 36.666 21.999 45.999s28.333 14 51 14c22 0 37 -4.66699 45 -14s10.333 -24.666 7 -45.999z" />
    <glyph glyph-name="slash" unicode="/" horiz-adv-x="249"
d="M38 -26l-71 20l309 724l71 -20z" />
    <glyph glyph-name="zero" unicode="0" horiz-adv-x="573"
d="M533 348c-6 -38 -16.666 -78.0029 -31.999 -120.003s-35.5 -80.833 -60.5 -116.5s-55 -65 -90 -88s-75.5 -34.5 -121.5 -34.5c-48.667 0 -87.5 11.167 -116.5 33.5s-50.5 50.833 -64.5 85.5s-21.833 73.334 -23.5 116.001s0.5 84 6.5 124c6 38 16.667 77.833 32 119.5
s35.666 80 60.999 115s55.666 63.833 90.999 86.5s76 34 122 34c32 0 59.833 -5 83.5 -15s43.334 -23.667 59.001 -41s28.167 -37.666 37.5 -60.999s15.833 -48.166 19.5 -74.499s5 -53.5 4 -81.5s-3.5 -55.333 -7.5 -82zM446.001 347.997
c4 26.667 6.83496 56.835 8.50195 90.502s-1 65.5 -8 95.5s-19.667 55.167 -38 75.5s-45.166 30.5 -80.499 30.5c-23.333 0 -44.5 -4.83301 -63.5 -14.5s-35.833 -22.334 -50.5 -38.001s-27.334 -33.667 -38.001 -54s-19.834 -41.333 -27.501 -63s-14 -43.167 -19 -64.5
s-8.83301 -40.666 -11.5 -57.999s-4.83398 -36.833 -6.50098 -58.5s-1.83398 -43.334 -0.500977 -65.001s4.33301 -42.834 9 -63.501s11.834 -39.167 21.501 -55.5s22.5 -29.333 38.5 -39s35.667 -14.5 59 -14.5s44.333 4.83301 63 14.5s35.334 22.5 50.001 38.5
s27.167 34.333 37.5 55s19.166 42 26.499 64s13.5 43.667 18.5 65s8.83301 41 11.5 59z" />
    <glyph glyph-name="one" unicode="1" horiz-adv-x="492"
d="M195 62l75 480c1.33301 7.33301 3 15.5 5 24.5s3.66699 17.5 5 25.5l6 27c-6 -6 -12.667 -12.333 -20 -19l-19.5 -17.5c-7 -6.33301 -13.833 -11.833 -20.5 -16.5l-148 -103l-39 53l277 188l65 -1l-100 -641l76 -36l-4 -26h-254l4 26z" />
    <glyph glyph-name="two" unicode="2" horiz-adv-x="569"
d="M96 481l24.998 159.001c30.667 19.333 64.334 34.666 101.001 45.999s72.667 17 108 17c32 0 61.167 -3.5 87.5 -10.5s48.333 -18.333 66 -34s30.167 -36 37.5 -61s8.33301 -55.167 3 -90.5c-4 -24.667 -11.833 -48.834 -23.5 -72.501s-25.667 -46.5 -42 -68.5
s-34.5 -43.167 -54.5 -63.5s-40.333 -39.833 -61 -58.5l-64 -55l-62 -50.5l-56.5 -42.5c-17.667 -12.667 -33.167 -22.667 -46.5 -30c4.66699 0.666992 10.334 1.33398 17.001 2.00098c5.33301 0.666992 11.666 1 18.999 1c8 0 16.667 0.333008 26 1h221l51 88h26l-24 -158
h-438l-13 60l54 39l63 47.5l68 53c23.333 18.333 46 37.166 68 56.499c46.667 40.667 86.834 81.167 120.501 121.5s53.834 82.833 60.501 127.5c6.66699 42 -0.833008 74 -22.5 96s-54.5 33 -98.5 33c-19.333 0 -38 -1.83301 -56 -5.5s-35.667 -8.83398 -53 -15.501
c-4 -3.33301 -6.83301 -4.66602 -8.5 -3.99902s-3.83398 -0.666016 -6.50098 -3.99902l-66 -124h-26z" />
    <glyph glyph-name="three" unicode="3" horiz-adv-x="536"
d="M34 190l41.0049 -121.998c17.333 -5.33301 33.166 -8.83301 47.499 -10.5s31.166 -2.5 50.499 -2.5c18.667 0 37.834 3.16699 57.501 9.5s37.834 15.5 54.501 27.5s31 26.333 43 43s19.667 35.334 23 56.001c4.66699 31.333 1.66699 55.5 -9 72.5
s-26.167 29.5 -46.5 37.5s-43.666 12.833 -69.999 14.5s-52.5 2.5 -78.5 2.5h-7l10 65h11c20.667 0 43.5 1.66699 68.5 5s48.5 10 70.5 20s41.167 24 57.5 42s26.833 41.667 31.5 71c3.33301 21.333 2.16602 39.333 -3.50098 54s-14.334 26.667 -26.001 36
s-25.834 16 -42.501 20s-34.667 6 -54 6c-32 0 -63 -4.66699 -93 -14l-75 -137h-28l27 173c30.667 15.333 63 26.5 97 33.5s65 10.5 93 10.5c28.667 0 56 -2.66699 82 -8s48.333 -14.5 67 -27.5s32.5 -31 41.5 -54s10.833 -51.833 5.5 -86.5
c-3.33301 -22.667 -10.333 -43.167 -21 -61.5s-23.5 -34.333 -38.5 -48s-31.5 -25.334 -49.5 -35.001s-36.333 -17.5 -55 -23.5c26 -4 47.833 -11.333 65.5 -22s31.667 -23.334 42 -38.001s17.166 -30.834 20.499 -48.501s3.66602 -34.834 0.999023 -51.501
c-5.33301 -33.333 -16.833 -63 -34.5 -89s-39.334 -48 -65.001 -66s-53.834 -31.667 -84.501 -41s-61.667 -14 -93 -14c-25.333 0 -47.166 1.16699 -65.499 3.5s-37.5 6.5 -57.5 12.5c-8 1.33301 -16.333 3.83301 -25 7.5s-17 7.83398 -25 12.501l13 165h26z" />
    <glyph glyph-name="four" unicode="4" horiz-adv-x="564"
d="M285 63l19 122h-327l10 62l400 454h81l-70 -447h125l-11 -69h-126l-19 -123l77 -36l-4 -26h-252l4 26zM361 539c3.33301 16 7.00098 31.499 11.001 46.499l8 30.5c-2.66699 -4.66699 -8.33398 -13.667 -17.001 -27s-18.667 -26.666 -30 -39.999l-207 -251l-16 -17.5
l-15 -15.5c-5.33301 -5.33301 -10.333 -10 -15 -14c5.33301 0 11 0.333008 17 1c5.33301 0.666992 11.333 1.16699 18 1.5s13.667 0.5 21 0.5h179l46 285v0z" />
    <glyph glyph-name="five" unicode="5" horiz-adv-x="567"
d="M222 620l-50.9961 -139.997c-4 -10.667 -8 -19.834 -12 -27.501s-7 -13.167 -9 -16.5c19.333 9.33301 41.5 16.5 66.5 21.5s49.167 7.5 72.5 7.5c32.667 0 62.167 -4.83301 88.5 -14.5s48 -23.667 65 -42s29.167 -40.5 36.5 -66.5s8.33301 -55 3 -87
c-6 -40.667 -19.667 -77.5 -41 -110.5s-47.5 -61 -78.5 -84s-65.333 -40.667 -103 -53s-75.834 -18.5 -114.501 -18.5c-22.667 0 -47 2.16699 -73 6.5s-49.333 10.5 -70 18.5h-1c-4 1.33301 -7.33301 3 -10 5l15 169h26l41 -121c13.333 -3.33301 26.666 -5.5 39.999 -6.5
s26.666 -1.5 39.999 -1.5c28 0 55.167 4.16699 81.5 12.5s50.166 20.666 71.499 36.999s39.333 36.166 54 59.499s24.334 50 29.001 80c3.33301 22 2.5 42.167 -2.5 60.5s-13.333 33.833 -25 46.5s-26.334 22.5 -44.001 29.5s-37.5 10.5 -59.5 10.5
c-32 0 -62.167 -6 -90.5 -18s-50.833 -28.667 -67.5 -50h-72l135 365h368l-11 -71z" />
    <glyph glyph-name="six" unicode="6" horiz-adv-x="585"
d="M557 638h-27.9961c-48.667 0 -94.834 -6.5 -138.501 -19.5s-83.5 -32.667 -119.5 -59s-67 -59.833 -93 -100.5s-45.333 -88.667 -58 -144c8.66699 12 20.167 24.167 34.5 36.5s30.833 23.833 49.5 34.5s38.667 19.334 60 26.001s43.333 10 66 10
c26.667 0 51.5 -3.83301 74.5 -11.5s42.333 -19.5 58 -35.5s27 -36.333 34 -61s7.83301 -54 2.5 -88c-5.33301 -34.667 -16.333 -66.5 -33 -95.5s-37 -54 -61 -75s-51.167 -37.333 -81.5 -49s-61.833 -17.5 -94.5 -17.5c-40.667 0 -75.334 7.5 -104.001 22.5
s-51.334 35.167 -68.001 60.5s-27.5 55.166 -32.5 89.499s-4.5 70.833 1.5 109.5c10.667 68 31 128.667 61 182s67.667 98.5 113 135.5s97.166 65.333 155.499 85s120.833 29.5 187.5 29.5h24zM411.004 212c6.66699 42.667 1.49902 77 -15.501 103s-46.833 39 -89.5 39
s-81 -13.167 -115 -39.5s-61.667 -58.833 -83 -97.5c0 -21.333 2.66699 -41.666 8 -60.999s13.5 -36.333 24.5 -51s25.167 -26.334 42.5 -35.001s38 -13 62 -13c20.667 0 40.5 4.16699 59.5 12.5s35.833 19.666 50.5 33.999s26.834 30.833 36.501 49.5
s16.167 38.334 19.5 59.001z" />
    <glyph glyph-name="seven" unicode="7" horiz-adv-x="612"
d="M138 0l-88 0.000976562l375 555l21 28l18 23l17 20c-3.33301 -0.666992 -13 -1.83398 -29 -3.50098s-32.667 -2.5 -50 -2.5h-235l-50 -88h-21l25 159h1v1l492 -1z" />
    <glyph glyph-name="eight" unicode="8" horiz-adv-x="567"
d="M482 178c-5.33301 -34 -16.6641 -62.998 -33.9971 -86.998s-38.166 -43.5 -62.499 -58.5s-51.333 -26 -81 -33s-59.5 -10.5 -89.5 -10.5c-26.667 0 -53.334 3 -80.001 9s-50 16 -70 30s-35.333 32.5 -46 55.5s-13.334 51.5 -8.00098 85.5
c7.33301 46.667 27.666 84.667 60.999 114s74.333 51.666 123 66.999c-46.667 17.333 -79.667 40.833 -99 70.5s-26 63.5 -20 101.5c4.66699 30 15.667 56.333 33 79s38.166 41.5 62.499 56.5s50.666 26.333 78.999 34s55.833 11.5 82.5 11.5c24.667 0 50 -2.33301 76 -7
s49 -13.334 69 -26.001s35.333 -29.834 46 -51.501s13.334 -49.5 8.00098 -83.5c-3.33301 -22.667 -10.5 -43.667 -21.5 -63s-24.5 -36.666 -40.5 -51.999s-33.833 -28.5 -53.5 -39.5s-40.5 -19.833 -62.5 -26.5c46 -15.333 80.5 -38 103.5 -68s31.167 -66 24.5 -108z
M449.002 526.002c2.66699 20 1.16895 37.3281 -4.49805 51.9951s-14.334 26.834 -26.001 36.501s-25.5 16.834 -41.5 21.501s-32.667 7 -50 7c-18 0 -36.167 -2.66699 -54.5 -8s-35.333 -13.166 -51 -23.499s-29 -22.833 -40 -37.5s-17.833 -31.334 -20.5 -50.001
c-3.33301 -19.333 -1.33301 -36.166 6 -50.499s17.5 -27 30.5 -38s27.5 -20.5 43.5 -28.5l45 -22c18.667 6.66699 37 13.834 55 21.501s34.5 17 49.5 28s27.667 23.833 38 38.5s17.166 32.334 20.499 53.001zM395.004 171.997c3.33301 22.667 1.99707 41.5 -4.00293 56.5
s-15.333 27.833 -28 38.5s-27.5 20 -44.5 28l-53.5 24c-21.333 -8 -41.666 -16.167 -60.999 -24.5s-36.666 -18 -51.999 -29s-28.333 -24 -39 -39s-17.667 -33.167 -21 -54.5c-3.33301 -20.667 -1.66602 -38.667 5.00098 -54s16.334 -28 29.001 -38s27.667 -17.333 45 -22
s35.333 -7 54 -7c18 0 36.333 2.5 55 7.5s36 12.5 52 22.5s29.667 22.5 41 37.5s18.666 32.833 21.999 53.5z" />
    <glyph glyph-name="nine" unicode="9" horiz-adv-x="576"
d="M545 421c-10.667 -68 -30.501 -128.669 -59.501 -182.002s-65.5 -98.5 -109.5 -135.5s-94.667 -65.333 -152 -85s-119.333 -29.5 -186 -29.5h-24l10 65h28c104 0 190.333 27.833 259 83.5s115.667 137.167 141 244.5c-8 -11.333 -18.833 -23.333 -32.5 -36
s-29 -24.334 -46 -35.001s-35.833 -19.5 -56.5 -26.5s-42 -10.5 -64 -10.5c-26.667 0 -52 3.83301 -76 11.5s-44.333 19.5 -61 35.5s-29 36.167 -37 60.5s-9.33301 53.5 -4 87.5s16.5 65.333 33.5 94s38 53.334 63 74.001s53 36.834 84 48.501s62.5 17.5 94.5 17.5
c41.333 0 75.833 -7.5 103.5 -22.5s49.334 -35.167 65.001 -60.5s25.5 -55.166 29.5 -89.499s3 -70.833 -3 -109.5zM462.999 478.998c0 20.667 -2.16992 40.502 -6.50293 59.502s-11.5 35.667 -21.5 50s-23 25.666 -39 33.999s-36 12.5 -60 12.5
c-20.667 0 -40.667 -4 -60 -12s-36.833 -18.833 -52.5 -32.5s-28.667 -29.667 -39 -48s-17.166 -37.833 -20.499 -58.5c-6.66699 -42 0 -76.167 20 -102.5s51 -39.5 93 -39.5c20.667 0 40 3.5 58 10.5s34.833 16.833 50.5 29.5s29.834 27.167 42.501 43.5
s24.334 34.166 35.001 53.499z" />
    <glyph glyph-name="colon" unicode=":" horiz-adv-x="254"
d="M183 50c-3.33301 -22 -10.333 -37.499 -21 -46.499s-27 -13.5 -49 -13.5c-23.333 0 -39.166 4.66699 -47.499 14s-10.833 24.666 -7.5 45.999s10.666 36.666 21.999 45.999s28.333 14 51 14c22 0 37 -4.66699 45 -14s10.333 -24.666 7 -45.999zM245 449.001
c-3.33301 -22 -10.5 -37.499 -21.5 -46.499s-27.5 -13.5 -49.5 -13.5c-23.333 0 -39 4.66699 -47 14s-10.333 24.666 -7 45.999s10.5 36.666 21.5 45.999s27.833 14 50.5 14c22 0 37.167 -4.66699 45.5 -14s10.833 -24.666 7.5 -45.999z" />
    <glyph glyph-name="semicolon" unicode=";" horiz-adv-x="239"
d="M218 449c-3.33301 -22 -10.5 -37.499 -21.5 -46.499s-27.5 -13.5 -49.5 -13.5c-23.333 0 -39 4.66699 -47 14s-10.333 24.666 -7 45.999s10.5 36.666 21.5 45.999s27.833 14 50.5 14c22 0 37.167 -4.66699 45.5 -14s10.833 -24.666 7.5 -45.999zM163 36.001
c-4 -25.333 -11.1689 -47.168 -21.502 -65.501s-25.166 -34.166 -44.499 -47.499c-20 -15.333 -45 -27.333 -75 -36l-8 33c26 10.667 44.667 22.334 56 35.001s19.333 31 24 55h-13c-42 0 -60.333 17.667 -55 53c3.33301 17.333 11.333 31.166 24 41.499
s28.667 15.5 48 15.5c52.667 0 74.334 -28 65.001 -84z" />
    <glyph glyph-name="semicolon" unicode="&#x37e;" horiz-adv-x="239"
d="M218 449c-3.33301 -22 -10.5 -37.499 -21.5 -46.499s-27.5 -13.5 -49.5 -13.5c-23.333 0 -39 4.66699 -47 14s-10.333 24.666 -7 45.999s10.5 36.666 21.5 45.999s27.833 14 50.5 14c22 0 37.167 -4.66699 45.5 -14s10.833 -24.666 7.5 -45.999zM163 36.001
c-4 -25.333 -11.1689 -47.168 -21.502 -65.501s-25.166 -34.166 -44.499 -47.499c-20 -15.333 -45 -27.333 -75 -36l-8 33c26 10.667 44.667 22.334 56 35.001s19.333 31 24 55h-13c-42 0 -60.333 17.667 -55 53c3.33301 17.333 11.333 31.166 24 41.499
s28.667 15.5 48 15.5c52.667 0 74.334 -28 65.001 -84z" />
    <glyph glyph-name="less" unicode="&#x3c;"
d="M416 -10l-393.002 225.999l10 62l470 231l22 -64l-343 -167c-7.33301 -4 -15.166 -7.66699 -23.499 -11s-16.166 -6.66602 -23.499 -9.99902c-8 -3.33301 -16.333 -6.33301 -25 -9l22 -8l19.5 -8.5c7 -3 13.833 -6.16699 20.5 -9.5l294 -163z" />
    <glyph glyph-name="equal" unicode="="
d="M69 315l11 73h471l-11 -73h-471zM37 121l12 73h472l-12 -73h-472z" />
    <glyph glyph-name="greater" unicode="&#x3e;"
d="M69 -6l-22 64l343 167l23.5 10.5l23.5 10.5c8 3.33301 16 6.33301 24 9l-22 8l-20 8.5c-7.33301 3 -14 6.16699 -20 9.5l-293 163l50 69l392 -226l-9 -62z" />
    <glyph glyph-name="question" unicode="?" horiz-adv-x="411"
d="M443 528c-4.66699 -28.667 -13.0029 -53 -25.0029 -73s-26 -37.333 -42 -52s-33 -27.834 -51 -39.501s-34.833 -23.5 -50.5 -35.5s-29.167 -25.167 -40.5 -39.5s-18.666 -31.833 -21.999 -52.5l-8 -57h-86l8 52c4 26.667 12 49.167 24 67.5s26 34.333 42 48
s32.833 26.167 50.5 37.5s34.334 23.5 50.001 36.5s29.334 27.833 41.001 44.5s19.5 37.334 23.5 62.001c2.66699 18.667 1.5 35 -3.5 49s-13 25.667 -24 35s-24.167 16.166 -39.5 20.499s-31.333 6.5 -48 6.5c-21.333 0 -43 -3 -65 -9c-5.33301 -2 -10.333 -3.66699 -15 -5
l-68 -128h-28l27 169l43.5 15c13.667 4.66699 27 8.66699 40 12s26.167 6 39.5 8s27.666 3 42.999 3c27.333 0 53.333 -2.66699 78 -8s45.834 -14.666 63.501 -27.999s30.5 -31.333 38.5 -54s9.33301 -51 4 -85zM202.997 50c-3.33301 -22 -10.333 -37.499 -21 -46.499
s-27 -13.5 -49 -13.5c-23.333 0 -39.166 4.66699 -47.499 14s-10.833 24.666 -7.5 45.999s10.666 36.666 21.999 45.999s28.333 14 51 14c22 0 37 -4.66699 45 -14s10.333 -24.666 7 -45.999z" />
    <glyph glyph-name="at" unicode="@" horiz-adv-x="1022"
d="M973 316c-6.66699 -43.333 -19.668 -85.001 -39.001 -125.001s-43 -75.333 -71 -106s-59.167 -55.167 -93.5 -73.5s-69.5 -27.5 -105.5 -27.5c-14.667 0 -27 2.83301 -37 8.5s-15.333 14.167 -16 25.5v12c0 5.33301 0.666992 12 2 20
c-23.333 -22 -49.666 -39.833 -78.999 -53.5s-59 -20.5 -89 -20.5c-37.333 0 -68 6.66699 -92 20s-42.333 31.166 -55 53.499s-20.5 48.166 -23.5 77.499s-1.83301 60 3.5 92c4.66699 32.667 14.167 65.5 28.5 98.5s33 62.833 56 89.5s50.5 48.167 82.5 64.5
s68.667 24.5 110 24.5c30.667 0 54.667 -4 72 -12s34 -20 50 -36l85 37l-64 -416c0 -12 2 -19.667 6 -23c20.667 5.33301 41.334 16.166 62.001 32.499s39.667 36.5 57 60.5s32.166 50.833 44.499 80.5s20.833 60.167 25.5 91.5c8.66699 56 6.83398 104.667 -5.49902 146
s-32.333 75.833 -60 103.5s-61.334 48.334 -101.001 62.001s-82.5 20.5 -128.5 20.5c-61.333 0 -118.5 -9.5 -171.5 -28.5s-100.167 -45.5 -141.5 -79.5s-75.666 -74.5 -102.999 -121.5s-45.333 -98.5 -54 -154.5c-10 -62.667 -10.667 -119 -2 -169
s26.334 -92.667 53.001 -128s61.834 -62.5 105.501 -81.5s95.834 -28.5 156.501 -28.5c14.667 0 31 1.33301 49 4s36.167 6.33398 54.5 11.001s36.166 10.334 53.499 17.001s33 14 47 22l22 -51c-17.333 -8.66699 -36.833 -16.834 -58.5 -24.501
s-43.834 -14.5 -66.501 -20.5s-44.834 -10.667 -66.501 -14s-41.167 -5 -58.5 -5c-68 0 -127.833 10.667 -179.5 32s-93.5 51.833 -125.5 91.5s-53.833 88 -65.5 145s-11.834 121.5 -0.500977 193.5c10 64 31.833 123.333 65.5 178s76 102.334 127 143.001
s109.167 72.5 174.5 95.5s134.333 34.5 207 34.5c54 0 104.667 -8.33301 152 -25s87.5 -41.167 120.5 -73.5s57.167 -72.666 72.5 -120.999s18 -104.5 8 -168.5zM660.999 369.999c-10.667 22 -25.502 38.333 -44.502 49s-40.5 16 -64.5 16
c-28.667 0 -53.834 -7.16699 -75.501 -21.5s-40.167 -32.333 -55.5 -54s-27.666 -45 -36.999 -70s-15.666 -47.833 -18.999 -68.5c-3.33301 -22.667 -4.16602 -45 -2.49902 -67s6.66699 -41.667 15 -59s20.333 -31.333 36 -42s35.5 -16 59.5 -16
c30 0 58.167 9.66699 84.5 29s48.833 41.333 67.5 66l36 238v0z" />
    <glyph glyph-name="A" unicode="A" horiz-adv-x="712"
d="M20 64l365 628h82l153 -627l73 -39l-3 -26h-255l3 26l86 39l-37 165h-285v-2l-87 -163l74 -39l-3 -26h-253l5 26zM423 502c-2 7.33301 -4 16.5 -6 27.5s-3.83301 22 -5.5 33s-3 20.667 -4 29s-1.5 13.5 -1.5 15.5c-0.666992 -0.666992 -2.5 -4.5 -5.5 -11.5
s-7 -15.667 -12 -26l-16 -33.5c-5.66699 -12 -11.5 -23 -17.5 -33l-112 -201h227z" />
    <glyph glyph-name="B" unicode="B" horiz-adv-x="605"
d="M93 696l263.003 0.998047c10 0 22.5 -0.166992 37.5 -0.5s30.667 -2 47 -5s32.333 -7.83301 48 -14.5s29.167 -16.5 40.5 -29.5s19.666 -29.5 24.999 -49.5s5.66602 -44.667 0.999023 -74c-6.66699 -41.333 -23.5 -75.166 -50.5 -101.499s-60.5 -44.833 -100.5 -55.5
c11.333 -2 24.666 -5.83301 39.999 -11.5s29.5 -15 42.5 -28s22.833 -30.333 29.5 -52s7.33398 -49.5 2.00098 -83.5c-5.33301 -35.333 -17 -65.166 -35 -89.499s-39.667 -44.166 -65 -59.499s-52.833 -26.333 -82.5 -33s-58.5 -10 -86.5 -10
c-21.333 0 -53.833 -0.333008 -97.5 -1s-98.834 -0.333984 -165.501 0.999023l3 26l95 37l88 570l-83 37zM429.003 199.998c4 26.667 2.83301 48.501 -3.5 65.501s-16.333 30.167 -30 39.5s-30.167 15.666 -49.5 18.999s-40 5 -62 5h-75l-42 -267
c19.333 -1.33301 36 -1.83301 50 -1.5s26.667 0.5 38 0.5c44.667 -0.666992 83 10.5 115 33.5s51.667 58.167 59 105.5zM464.003 518.999c4 24 2.99902 43.333 -3.00098 58s-15.333 26.167 -28 34.5s-28.167 13.833 -46.5 16.5s-37.833 4 -58.5 4h-71l-37 -238h65
c46.667 0 86.334 9.5 119.001 28.5s52.667 51.167 60 96.5z" />
    <glyph glyph-name="C" unicode="C" horiz-adv-x="620"
d="M517 41c-2.66699 -2 -6.00098 -3.66992 -10.001 -5.00293c-30.667 -14 -59.5 -25.333 -86.5 -34s-56.5 -13 -88.5 -13c-48 0 -92 8 -132 24s-73.5 39 -100.5 69s-46.5 66.5 -58.5 109.5s-14 91.167 -6 144.5c8 52 24.333 100.333 49 145s55.167 83.5 91.5 116.5
s77.5 58.833 123.5 77.5s94.667 28 146 28c19.333 0 36.333 -0.333008 51 -1s28.5 -2.33398 41.5 -5.00098s26 -6.16699 39 -10.5s27.833 -10.166 44.5 -17.499l-1 -2h2l-27 -173h-28l-28 128c-14 4 -30.333 6.83301 -49 8.5s-38.667 2.5 -60 2.5
c-40.667 0 -78.167 -7.83301 -112.5 -23.5s-64.5 -36.667 -90.5 -63s-47.333 -57.166 -64 -92.499s-28 -72.666 -34 -111.999c-6.66699 -41.333 -6.5 -79.166 0.5 -113.499s20.333 -64 40 -89s44.834 -44.5 75.501 -58.5s66.667 -21 108 -21c20 0 36.667 1.83301 50 5.5
s28 8.16699 44 13.5l83 127h26z" />
    <glyph glyph-name="D" unicode="D" horiz-adv-x="735"
d="M95 698l292.001 0.000976562c54.667 0 103.667 -5.83301 147 -17.5s79.333 -30.334 108 -56.001s48.834 -58.834 60.501 -99.501s13.167 -90 4.5 -148c-9.33301 -59.333 -27.333 -112.166 -54 -158.499s-59.834 -85.833 -99.501 -118.5s-84.834 -57.5 -135.501 -74.5
s-104.667 -25.5 -162 -25.5c-42.667 -0 -87.667 -0.166992 -135 -0.5s-92.333 0.166992 -135 1.5l4 26l95 37l89 571l-84 37zM614.001 372.001c7.33301 48 6.50293 88.333 -2.49707 121s-25 59 -48 79s-52.333 34.5 -88 43.5s-76.5 13.5 -122.5 13.5
c-8.66699 0 -18.334 -0.166992 -29.001 -0.5s-20.667 -0.5 -30 -0.5h-33l-87 -560c11.333 -0.666992 26 -1 44 -1h44c46.667 0 89.667 6.5 129 19.5s74.166 32.333 104.499 58s55.666 57.5 75.999 95.5s34.5 82 42.5 132z" />
    <glyph glyph-name="E" unicode="E" horiz-adv-x="569"
d="M456 0h-470l3 26l95 37l88 566l-83 37l3 26h463l-29 -187h-25l-31 114h-209l-36 -232h146l50 94h22l-40 -259h-22l-21 92h-147l-37 -240h219l81 114h25z" />
    <glyph glyph-name="F" unicode="F" horiz-adv-x="534"
d="M83 63h-1l88 566l-83 37l3 26h463l-29 -187h-25l-31 114h-209l-36 -232h146l50 94h22l-40 -259h-22l-21 92h-147l-39 -251l104 -37l-3 -26h-287l3 26z" />
    <glyph glyph-name="G" unicode="G" horiz-adv-x="673"
d="M529 37c-31.333 -11.333 -63.5029 -22.1709 -96.5029 -32.5039s-66.5 -15.5 -100.5 -15.5c-48 0 -92 8 -132 24s-73.5 39 -100.5 69s-46.5 66.5 -58.5 109.5s-14 91.167 -6 144.5c8 52 24.333 100.333 49 145s55.167 83.5 91.5 116.5s77.5 58.833 123.5 77.5
s94.667 28 146 28c19.333 0 36.333 -0.333008 51 -1s28.5 -2.33398 41.5 -5.00098s26 -6.16699 39 -10.5s27.833 -10.166 44.5 -17.499l-1 -2h2l-27 -173h-38l-28 128c-14 4 -28.667 6.83301 -44 8.5s-33.666 2.5 -54.999 2.5c-40.667 0 -78.167 -7.83301 -112.5 -23.5
s-64.5 -36.667 -90.5 -63s-47.333 -57.166 -64 -92.499s-28 -72.666 -34 -111.999c-6.66699 -41.333 -6.5 -79.166 0.5 -113.499s20.333 -64 40 -89s44.834 -44.5 75.501 -58.5s66.667 -21 108 -21c6 0 11.667 0.166992 17 0.5s11.333 1.5 18 3.5s14.834 4.83301 24.501 8.5
s22.167 8.83398 37.5 15.501l27 181l-81 35l3 26h264l-3 -26l-96 -35z" />
    <glyph glyph-name="H" unicode="H" horiz-adv-x="766"
d="M222 387h324l38 242l-82 36l3 26h263l-3 -26l-94 -36l-88 -566l82 -37l-3 -26h-263l3 26l93 36l40 251h-324l-39 -250l82 -37l-3 -26h-265l3 26l95 37l88 566l-83 36l3 26h265l-3 -26l-94 -36z" />
    <glyph glyph-name="I" unicode="I" horiz-adv-x="353"
d="M172 63l82 -37l-3 -26h-265l3 26l95 37l88 566l-83 36l3 26h265l-3 -26l-94 -36z" />
    <glyph glyph-name="J" unicode="J" horiz-adv-x="327"
d="M138 -35c-6 -36.667 -15.834 -68.168 -29.501 -94.501s-30.667 -48.166 -51 -65.499s-43.666 -30.666 -69.999 -39.999s-55.166 -15 -86.499 -17h-112l14 68h61c58.667 -1.33301 102.167 10.167 130.5 34.5s47.166 65.166 56.499 122.499l109 656l-83 36l3 26h264l-3 -26
l-93 -36z" />
    <glyph glyph-name="K" unicode="K" horiz-adv-x="686"
d="M501 -1l-268 353l309 280l-68 31l4 26h255l-4 -26l-79 -35l-303 -270l226 -296l75 -37l-4 -26h-143zM172 63l82 -37l-3 -26h-265l3 26l95 37l88 566l-83 36l3 26h265l-3 -26l-94 -36z" />
    <glyph glyph-name="L" unicode="L" horiz-adv-x="522"
d="M451 0h-465l3 26l95 37l88 566l-83 37l3 26h267l-3 -26l-94 -37l-87 -556h211l85 129h26z" />
    <glyph glyph-name="M" unicode="M" horiz-adv-x="968"
d="M782 63l82 -37.002l-3 -26h-265l3 26l95 37l77 498l-309 -561h-82l-130 559h-1l-77 -496l82 -37l-3 -26h-265l3 26l95 37l88 566l-83 36l3 26h207l125 -500c5.33301 -21.333 9 -41.666 11 -60.999s3.66699 -32.666 5 -39.999c4.66699 11.333 11.5 26.333 20.5 45
s18.5 37 28.5 55l277 501h201l-3 -26l-94 -36z" />
    <glyph glyph-name="N" unicode="N" horiz-adv-x="790"
d="M82 62l89.002 567l-82 37l3 26l186 -1l223 -463c6 -13.333 11.667 -27.166 17 -41.499l14.5 -40c4.33301 -12.333 7.83301 -22.833 10.5 -31.5s4 -14 4 -16c0 0.666992 0.833008 7 2.5 19l5.5 41.5c2 15.667 4.16699 31.5 6.5 47.5l5.5 37l60 385l-81 37l3 26h254l-3 -26
l-95 -37l-97 -629h-102l-219 464c-6.66699 13.333 -12.834 27.166 -18.501 41.499s-10.5 27.5 -14.5 39.5l-10 31c-2.66699 8.66699 -4.33398 13.667 -5.00098 15l-1.5 -13.5l-3.5 -31.5c-1.33301 -12 -2.83301 -24.5 -4.5 -37.5s-3.16699 -23.5 -4.5 -31.5l-65 -414l82 -37
l-3 -26h-253l3 26z" />
    <glyph glyph-name="O" unicode="O" horiz-adv-x="747"
d="M701 345c-8 -52 -23.666 -99.666 -46.999 -142.999s-52 -80.833 -86 -112.5s-72.333 -56.334 -115 -74.001s-87 -26.5 -133 -26.5c-48 0 -91.333 8.5 -130 25.5s-70.667 41 -96 72s-43.333 68.5 -54 112.5s-12 92.667 -4 146c8 52 24.667 99.833 50 143.5
s56.166 81.5 92.499 113.5s76.333 56.833 120 74.5s88.167 26.5 133.5 26.5c48 0 90.667 -8.5 128 -25.5s67.833 -41.167 91.5 -72.5s40 -69 49 -113s9.16699 -93 0.5 -147zM610.001 343.001c6 40 6.33594 77.6689 1.00293 113.002s-16 66 -32 92s-37.5 46.667 -64.5 62
s-59.5 23 -97.5 23c-34 0 -66.833 -6.83301 -98.5 -20.5s-60.334 -33 -86.001 -58s-47.667 -55 -66 -90s-30.833 -74.167 -37.5 -117.5c-6 -41.333 -5.83301 -79.5 0.5 -114.5s18.333 -65.333 36 -91s40.5 -45.834 68.5 -60.501s60.333 -22 97 -22c36 0 69.667 7.5 101 22.5
s59.166 35.333 83.499 61s44.666 55.667 60.999 90s27.5 71.166 33.5 110.499z" />
    <glyph glyph-name="P" unicode="P" horiz-adv-x="579"
d="M584 502c-6.66699 -42.667 -19.499 -77.833 -38.499 -105.5s-41.833 -49.5 -68.5 -65.5s-55.334 -27.167 -86.001 -33.5s-60.667 -9.5 -90 -9.5h-95l-34 -225l82 -37l-3 -26h-265l3 26l95 37l87 566l-82 36l3 26l296 1h35c14.667 0 30.167 -1.5 46.5 -4.5
s32.5 -8 48.5 -15s29.833 -17.5 41.5 -31.5s20 -32.333 25 -55s4.83301 -50.667 -0.5 -84zM217.001 353.001h86.001c20.667 0 41.334 1.83301 62.001 5.5s39.667 10.834 57 21.501s32.333 25.5 45 44.5s21.334 44.167 26.001 75.5c4.66699 30 3.66699 53.667 -3 71
s-16.834 30.666 -30.501 39.999s-29.334 15.333 -47.001 18s-34.834 4 -51.501 4c-19.333 0 -39 -0.166992 -59 -0.5s-34 -0.833008 -42 -1.5z" />
    <glyph glyph-name="Q" unicode="Q" horiz-adv-x="744"
d="M857 -139l-34.4971 -27.499c-13 -10.333 -26.833 -20 -41.5 -29s-29.667 -16.667 -45 -23s-30.333 -9.5 -45 -9.5c-8 0 -16.167 0.666992 -24.5 2s-17.333 3.5 -27 6.5s-20.5 7 -32.5 12s-25.667 11.5 -41 19.5c-12 6 -25.833 13.5 -41.5 22.5l-50 29l-54 32.5l-51.5 33
l-48 30.5c-16 10.333 -36.667 21.833 -62 34.5c-39.333 6.66699 -74.333 19.834 -105 39.501s-56 44.5 -76 74.5s-33.833 65 -41.5 105s-7.83398 84 -0.500977 132c8 52 24.667 99.833 50 143.5s56.166 81.5 92.499 113.5s76.333 56.833 120 74.5s88.167 26.5 133.5 26.5
c48 0 90.667 -8.5 128 -25.5s67.833 -41.167 91.5 -72.5s40 -69 49 -113s9.16699 -93 0.5 -147c-10 -68 -32.333 -128.5 -67 -181.5s-78 -94.5 -130 -124.5c-7.33301 -5.33301 -15.5 -10.333 -24.5 -15s-18.333 -8.83398 -28 -12.501s-19.167 -6.66699 -28.5 -9
s-17.666 -3.5 -24.999 -3.5c6.66699 -3.33301 13.167 -6.83301 19.5 -10.5s16.166 -9 29.499 -16l55 -28.5l96 -49c7.33301 -4 16.666 -8.33301 27.999 -13s23.833 -9.33398 37.5 -14.001s27.5 -8.5 41.5 -11.5s27 -4.5 39 -4.5c21.333 0 40 3.66699 56 11l43 20l14 -22v0z
M610.003 343.001c6 40 6.33594 77.5 1.00293 112.5s-16 65.5 -32 91.5s-37.5 46.5 -64.5 61.5s-59.5 22.5 -97.5 22.5c-34 0 -66.667 -6.66699 -98 -20s-60 -32.333 -86 -57s-48 -54.5 -66 -89.5s-30.333 -74.167 -37 -117.5c-6 -41.333 -5.83301 -79.5 0.5 -114.5
s18.166 -65.167 35.499 -90.5s40 -45.333 68 -60s60.333 -22 97 -22c36 0 69.667 7.33301 101 22s59.166 34.834 83.499 60.501s44.666 55.667 60.999 90s27.5 71.166 33.5 110.499z" />
    <glyph glyph-name="R" unicode="R" horiz-adv-x="602"
d="M580 510c-5.33301 -31.333 -13.334 -57.3379 -24.001 -78.0049s-23.667 -38 -39 -52s-32.666 -25.167 -51.999 -33.5s-40 -15.166 -62 -20.499l91 -263l74 -37l-3 -26h-142l-118 315h-94l-39 -252l82 -37l-3 -26h-265l3 26l95 37l87 566l-82 36l3 26l296 1
c8.66699 0 20.167 0.166992 34.5 0.5s29.5 -0.666992 45.5 -3s31.833 -6.66602 47.5 -12.999s29.167 -16.166 40.5 -29.499s19.5 -31.166 24.5 -53.499s4.83301 -50.166 -0.5 -83.499zM221.999 379.995h86c20.667 0 40.667 0.833008 60 2.5s37.166 6.66699 53.499 15
s30.333 21 42 38s20.167 41.167 25.5 72.5c4.66699 30 3.83398 53.333 -2.49902 70s-16 29 -29 37s-28.167 13 -45.5 15s-34.333 3 -51 3c-19.333 0 -39 -0.166992 -59 -0.5s-34 -0.833008 -42 -1.5z" />
    <glyph glyph-name="S" unicode="S" horiz-adv-x="553"
d="M445 609c-9.33301 6 -21.8281 11.835 -37.4951 17.502s-38.5 8.5 -68.5 8.5c-17.333 0 -34.333 -2.16699 -51 -6.5s-31.667 -11 -45 -20s-24.5 -20 -33.5 -33s-14.833 -28.5 -17.5 -46.5c-4 -26.667 0.666992 -48.334 14 -65.001s31 -31.334 53 -44.001
s46 -24.834 72 -36.501s49.833 -25.667 71.5 -42s38.5 -36.833 50.5 -61.5s15 -56 9 -94c-4.66699 -30.667 -14.5 -58.167 -29.5 -82.5s-33.833 -45 -56.5 -62s-48.167 -30 -76.5 -39s-57.833 -13.5 -88.5 -13.5c-28 0 -52.333 1.83301 -73 5.5
s-38.334 8.33398 -53.001 14.001s-26.834 11.5 -36.501 17.5s-17.834 11.667 -24.501 17l25 156h26l23 -115c10.667 -7.33301 25 -13.333 43 -18s42.667 -7 74 -7c15.333 0 31.333 2.16699 48 6.5s32.5 11 47.5 20s27.833 20.833 38.5 35.5s17.667 32.334 21 53.001
c3.33301 21.333 1.5 39.5 -5.5 54.5s-17.167 28.167 -30.5 39.5s-29 21.5 -47 30.5l-55 27.5c-18.667 9.33301 -36.667 19.5 -54 30.5s-32.333 24.167 -45 39.5s-22 33.5 -28 54.5s-6.66699 46.167 -2 75.5s14.667 55 30 77s34 40.5 56 55.5s46.333 26.167 73 33.5
s53.667 11 81 11s50.666 -1.5 69.999 -4.5s35.833 -6.83301 49.5 -11.5s25.167 -9.83398 34.5 -15.501s17.666 -11.167 24.999 -16.5l-24 -159h-26z" />
    <glyph glyph-name="T" unicode="T" horiz-adv-x="534"
d="M506 494l-29 125h-140l-86 -556l103 -37l-3 -26h-306l3 26l113 36l87 557h-143l-67 -125h-28l30 198h523l-30 -198h-27z" />
    <glyph glyph-name="U" unicode="U" horiz-adv-x="725"
d="M152 241c-10 -60 -4.50098 -105.33 16.499 -135.997s62.5 -46 124.5 -46c34 0 63.167 5 87.5 15s44.833 24.167 61.5 42.5s30 40.166 40 65.499s17.667 53.333 23 84c6 42 12.333 84 19 126l18 117l19 120l-80 37l3 26h256l-3 -26l-95 -37l-18.5 -118l-17.5 -115
l-19 -122c-7.33301 -45.333 -18.5 -85.5 -33.5 -120.5s-35 -64.833 -60 -89.5s-55 -43.334 -90 -56.001s-75.833 -19 -122.5 -19c-90 0 -152.167 22.167 -186.5 66.5s-44.166 110.166 -29.499 197.499c6 42.667 12.667 86 20 130l19.5 122.5l19.5 123.5l-81 37l3 26h264
l-3 -26l-95 -37z" />
    <glyph glyph-name="V" unicode="V" horiz-adv-x="708"
d="M678 629l-360 -629.002h-82l-159 629l-72 36l3 26h254l-3 -26l-85 -37v-3l106 -434c5.33301 -21.333 9 -41.666 11 -60.999s3.66699 -32.666 5 -39.999c4.66699 11.333 11.5 26.333 20.5 45s18.5 37 28.5 55l241 438l-73 37l3 26h248l-3 -26z" />
    <glyph glyph-name="W" unicode="W" horiz-adv-x="1041"
d="M172 630l59.999 -403.001c2 -16.667 3.66699 -33 5 -49s2.33301 -30.5 3 -43.5s1.16699 -23.667 1.5 -32s0.5 -13.166 0.5 -14.499c0.666992 0.666992 2.66699 5.5 6 14.5s7.83301 20.167 13.5 33.5l19 44.5c7 16.333 14.167 32.166 21.5 47.499l216 464h96l73 -468
c2 -14 3.83301 -28.5 5.5 -43.5s3 -29.167 4 -42.5s2 -24.5 3 -33.5s1.5 -14.5 1.5 -16.5c0 0.666992 1.5 5.33398 4.5 14.001s7 19.5 12 32.5s10.833 27.333 17.5 43s13.667 31.167 21 46.5l187 406l-74 37l4 26h248l-4 -26l-87 -37l-300 -630h-96l-73 469l-6 46
c-2 15.333 -3.5 29.333 -4.5 42l-2.5 32c-0.666992 8.66699 -1 14.334 -1 17.001c-0.666992 -2 -2.66699 -7.33301 -6 -16l-12.5 -32l-17 -42.5c-6.33301 -15.667 -13.166 -30.834 -20.499 -45.501l-109 -235l-40.5 -86.5l-35 -75.5l-24.5 -53l-9 -20h-95l-98 630l-75 37
l4 26h253l-4 -26z" />
    <glyph glyph-name="X" unicode="X" horiz-adv-x="733"
d="M252 628l74.001 -137l16 -32l12 -24l10 -21c5.33301 8 11.666 16.333 18.999 25l21.5 25.5l26.5 31.5l115 132l-65 37l3 26h251l-3 -26l-86 -37l-242 -268l175 -298l72 -36l-3 -26h-265l3 26l87 37l-91 157c-7.33301 12.667 -13.333 24.167 -18 34.5l-12 26.5l-9 22
c-4 -6 -9.33301 -12.667 -16 -20l-21 -25.5l-32 -36.5l-133 -158l72 -37l-3 -26h-253l4 26l79 35l258 294l-154 274l-70 36l3 26h255l-3 -26z" />
    <glyph glyph-name="Y" unicode="Y" horiz-adv-x="657"
d="M621 628l-278 -305.001l-40 -260l106 -37l-3 -26h-312l3 26l118 37l39 253l-177 312l-72 37l3 26h258l-3 -26l-79 -37l86 -157c12.667 -23.333 22.667 -42.833 30 -58.5s11.333 -24.5 12 -26.5c0 0.666992 2.33301 3.83398 7 9.50098l17.5 21l24 28.5l27.5 32l130 147
l3 4l-67 37l3 26h250l-3 -26z" />
    <glyph glyph-name="Z" unicode="Z" horiz-adv-x="648"
d="M143 692h507.001l-439 -536c-7.33301 -9.33301 -15.666 -18.833 -24.999 -28.5l-25 -26.5l-27 -28h46c12.667 0 25.167 0.166992 37.5 0.5s22.166 0.5 29.499 0.5h188l85 125h27l-48 -199h-518l441 541l26.5 31.5c8.33301 9.66699 16.166 18.167 23.499 25.5l23 24
l-38 -2c-11.333 -0.666992 -23.333 -1 -36 -1h-37h-177l-66 -125h-28z" />
    <glyph glyph-name="bracketleft" unicode="[" horiz-adv-x="268"
d="M119 668l-6 -718h131v-60h-211l6 838h210v-60h-130z" />
    <glyph glyph-name="backslash" unicode="\"
d="M337 -26l-309 724l71 20l309 -724z" />
    <glyph glyph-name="bracketright" unicode="]" horiz-adv-x="268"
d="M176 -110h-209v60h130l6 718h-131v60h211z" />
    <glyph glyph-name="asciicircum" unicode="^"
d="M436 277l-134.001 266.999c-3.33301 6.66699 -6.66602 13.834 -9.99902 21.501l-9 21.5c-2.66699 7.33301 -5.66699 15 -9 23l-10 -23l-10.5 -21.5l-10.5 -22.5l-140 -266l-67 24l209 391h62l206 -387z" />
    <glyph glyph-name="underscore" unicode="_"
d="M-51 -125v50h500v-50h-500z" />
    <glyph glyph-name="grave" unicode="`"
d="M279 577l-134 145l80 39l103 -163z" />
    <glyph glyph-name="a" unicode="a" horiz-adv-x="598"
d="M567 121c-7.33301 -17.333 -16.335 -34.166 -27.002 -50.499s-22.667 -31.166 -36 -44.499c-12.667 -13.333 -25.667 -21.5 -39 -24.5s-26.666 -4.5 -39.999 -4.5c-14.667 0 -27 2.83301 -37 8.5s-15.333 14.167 -16 25.5v12c0 5.33301 0.666992 12 2 20
c-23.333 -22 -49.666 -39.833 -78.999 -53.5s-59 -20.5 -89 -20.5c-37.333 0 -68 6.66699 -92 20s-42.333 31.166 -55 53.499s-20.5 48.166 -23.5 77.499s-1.83301 60 3.5 92c4.66699 32.667 14.167 65.5 28.5 98.5s33 62.833 56 89.5s50.5 48.167 82.5 64.5
s68.667 24.5 110 24.5c30.667 0 54.667 -4 72 -12s34 -20 50 -36l85 37l-64 -416c0.666992 -8 1.66699 -14.167 3 -18.5s5.33301 -6.5 12 -6.5c4 0 9 2.66699 15 8s12.5 12 19.5 20s14 16.667 21 26l19.5 25l9 -7.5zM421.998 383c-10.667 22 -25.502 38.333 -44.502 49
s-40.5 16 -64.5 16c-28.667 0 -53.834 -7.16699 -75.501 -21.5s-40.167 -32.333 -55.5 -54s-27.666 -45 -36.999 -70s-15.666 -47.833 -18.999 -68.5c-3.33301 -22.667 -4.16602 -45 -2.49902 -67s6.66699 -41.667 15 -59s20.333 -31.333 36 -42s35.5 -16 59.5 -16
c30 0 58.167 9.66699 84.5 29s48.833 41.333 67.5 66l36 238v0z" />
    <glyph glyph-name="b" unicode="b" horiz-adv-x="534"
d="M201 748l-47.9961 -312.001c23.333 22.667 47.166 40.5 71.499 53.5s51.5 19.5 81.5 19.5c37.333 0 68.666 -6.66699 93.999 -20s45.166 -31 59.499 -53s23.5 -47.667 27.5 -77s3.66699 -60 -1 -92c-5.33301 -34 -15 -67.5 -29 -100.5s-32.333 -62.667 -55 -89
s-49.5 -47.666 -80.5 -63.999s-66.167 -24.5 -105.5 -24.5c-31.333 0 -56.833 3.83301 -76.5 11.5s-37.167 19.5 -52.5 35.5c-12.667 13.333 -24.334 26.5 -35.001 39.5s-20.667 27.167 -30 42.5l84 541l-90 28l5 22zM399.004 264.999c3.33301 22.667 3.5 44.833 0.5 66.5
s-9.5 41 -19.5 58s-23.5 30.667 -40.5 41s-37.5 15.5 -61.5 15.5c-30 0 -56.167 -9 -78.5 -27s-42.166 -39.333 -59.499 -64l-37 -239c10.667 -22 26.834 -38.5 48.501 -49.5s44.5 -16.5 68.5 -16.5c28.667 0 53.5 7.33301 74.5 22s38.667 32.667 53 54
s25.666 44.5 33.999 69.5s14.166 48.167 17.499 69.5z" />
    <glyph glyph-name="c" unicode="c" horiz-adv-x="472"
d="M448 336h-25.999l-24 87c-13.333 9.33301 -27.666 15.833 -42.999 19.5s-31 5.5 -47 5.5c-26 0 -49.5 -6 -70.5 -18s-39.167 -27.667 -54.5 -47s-27.833 -41.166 -37.5 -65.499s-16.5 -49.166 -20.5 -74.499c-3.33301 -23.333 -3.5 -46.333 -0.5 -69s9.66699 -43 20 -61
s24.5 -32.667 42.5 -44s40 -17 66 -17c23.333 0 44.666 4.66699 63.999 14s38.666 22.666 57.999 39.999l40 -42c-23.333 -20.667 -49.833 -38.334 -79.5 -53.001s-64.834 -22 -105.501 -22c-45.333 0 -81.666 8.33301 -108.999 25s-47.833 37.667 -61.5 63
s-21.667 52.833 -24 82.5s-1.5 57.5 2.5 83.5c5.33301 34 16 66.833 32 98.5s36.167 60 60.5 85s52 45 83 60s64.167 22.5 99.5 22.5c26 0 51.5 -2.66699 76.5 -8s51.167 -20 78.5 -44z" />
    <glyph glyph-name="d" unicode="d" horiz-adv-x="594"
d="M457 83c0.666992 -8 1.50293 -14.168 2.50293 -18.501s4.83301 -6.5 11.5 -6.5c4 0 9 2.66699 15 8s12.667 12 20 20s14.5 16.667 21.5 26l19.5 25l9 -7.5l9 -7.5c-7.33301 -17.333 -16.333 -34.166 -27 -50.499s-22.667 -31.166 -36 -44.499s-26.5 -21.5 -39.5 -24.5
s-26.167 -4.5 -39.5 -4.5c-14.667 0 -27 2.83301 -37 8.5s-15.333 14.167 -16 25.5v7c0 4 1 12 3 24c-22.667 -22 -47.167 -39.833 -73.5 -53.5s-55.833 -20.5 -88.5 -20.5c-37.333 0 -68.333 6.66699 -93 20s-43.667 31 -57 53s-21.666 47.667 -24.999 77s-2.33301 60 3 92
c5.33301 34 14.666 67.5 27.999 100.5s30.833 62.667 52.5 89s47.667 47.666 78 63.999s65.166 24.5 104.499 24.5c31.333 0 57.666 -3.66699 78.999 -11s39.666 -19.333 54.999 -36l31 197l-90 28l5 22l177 41l2 1zM387.003 144.999c0 2 0.332031 4.99902 0.999023 8.99902
s2.16699 13.667 4.5 29l10.5 70l20 131c-10.667 22 -28 38.167 -52 48.5s-48 15.5 -72 15.5c-28.667 0 -53.167 -7.33301 -73.5 -22s-37.333 -32.667 -51 -54s-24.334 -44.666 -32.001 -69.999s-13.167 -48.333 -16.5 -69c-3.33301 -22.667 -4 -44.834 -2 -66.501
s7.5 -41.167 16.5 -58.5s21.667 -31.333 38 -42s36.5 -16 60.5 -16c14.667 0 28.834 2.66699 42.501 8s26.834 12.333 39.501 21s24.5 18.834 35.5 30.501s21.167 23.5 30.5 35.5z" />
    <glyph glyph-name="e" unicode="e" horiz-adv-x="497"
d="M418 73c-30.667 -26 -61.8311 -46.499 -93.498 -61.499s-66.5 -22.5 -104.5 -22.5c-40.667 0 -74.167 6.83301 -100.5 20.5s-46.5 32.167 -60.5 55.5s-22.667 50.666 -26 81.999s-2 65 4 101c4.66699 32.667 14.167 64.334 28.5 95.001s32.666 58 54.999 82
s48 43.667 77 59s61.167 23.666 96.5 24.999c44.667 2 80.167 -3.83301 106.5 -17.5s44.666 -31.667 54.999 -54s13.333 -47.166 9 -74.499s-14.833 -53.333 -31.5 -78c-11.333 -16.667 -28.5 -31 -51.5 -43s-49 -21.833 -78 -29.5s-59.667 -12.5 -92 -14.5
s-63.833 -1.33301 -94.5 2c-0.666992 -16.667 -0.333984 -33.5 0.999023 -50.5s5.5 -32.5 12.5 -46.5s17.833 -25.333 32.5 -34s35 -13 61 -13c28 0 55.333 5.16699 82 15.5s51.334 25.166 74.001 44.499zM124.003 270.001c21.333 0 44.833 0.666992 70.5 2
s50.167 4.16602 73.5 8.49902s44 10.333 62 18s30.333 17.834 37 30.501c6 15.333 8.83301 30 8.5 44s-3.83301 26.167 -10.5 36.5s-16.834 18.5 -30.501 24.5s-31.167 9 -52.5 9s-40.666 -5.5 -57.999 -16.5s-32.5 -25 -45.5 -42s-24 -35.667 -33 -56
s-16.167 -39.833 -21.5 -58.5z" />
    <glyph glyph-name="f" unicode="f" horiz-adv-x="327"
d="M131 430l-98.998 0.000976562l10 38l100 30l9 53c4.66699 30.667 12.334 59 23.001 85s25 48.333 43 67s40.167 33.167 66.5 43.5s57.5 15.5 93.5 15.5h66l-24 -148h-26l-23 88c-7.33301 1.33301 -15 1 -23 -1s-17.667 -4.66699 -29 -8
c-14 -5.33301 -26 -13.166 -36 -23.499s-18.167 -22.166 -24.5 -35.499s-11.5 -28 -15.5 -44s-7.33301 -32.333 -10 -49l-7 -43h109l-10 -68h-110l-74 -480c-4.66699 -31.333 -12.334 -59.833 -23.001 -85.5s-25 -47.834 -43 -66.501s-40 -33.167 -66 -43.5
s-57 -15.5 -93 -15.5h-36l11 61l31 -1c7.33301 -1.33301 15.166 -1 23.499 1s18.166 4.66699 29.499 8c14 5.33301 25.667 13.166 35 23.499s17.333 22.166 24 35.499s12 27.833 16 43.5s7.33301 32.167 10 49.5z" />
    <glyph glyph-name="g" unicode="g" horiz-adv-x="471"
d="M36 -192l131.999 0.00488281c7.33301 -1.33301 15 -1 23 1s17.667 4.66699 29 8c14 5.33301 25.833 13.166 35.5 23.499s17.667 22.166 24 35.499s11.5 27.833 15.5 43.5s7.33301 32.167 10 49.5l14 91c-23.333 -21.333 -49.5 -38.5 -78.5 -51.5
s-57.833 -19.5 -86.5 -19.5c-37.333 0 -68 6.66699 -92 20s-42.333 31.166 -55 53.499s-20.5 48.166 -23.5 77.499s-1.83301 60 3.5 92c4.66699 32.667 14.167 65.5 28.5 98.5s33 62.833 56 89.5s50.5 48.167 82.5 64.5s68.667 24.5 110 24.5c30.667 0 54.667 -4 72 -12
s34 -20 50 -36l85 37l-84 -539c-5.33301 -31.333 -13.166 -59.833 -23.499 -85.5s-24.5 -47.834 -42.5 -66.501s-40 -33.167 -66 -43.5s-57 -15.5 -93 -15.5h-134zM181.999 50.0049c14.667 0 28.998 2.5 42.998 7.5s27.5 11.833 40.5 20.5s25 18.5 36 29.5
s21.167 22.5 30.5 34.5l37 242c-10.667 21.333 -25.5 37.333 -44.5 48s-40.167 16 -63.5 16c-28.667 0 -53.834 -7.16699 -75.501 -21.5s-40.167 -32.333 -55.5 -54s-27.666 -45 -36.999 -70s-15.666 -47.833 -18.999 -68.5c-3.33301 -22.667 -4.16602 -45 -2.49902 -67
s6.66699 -41.667 15 -59s20.333 -31.333 36 -42s35.5 -16 59.5 -16z" />
    <glyph glyph-name="h" unicode="h" horiz-adv-x="570"
d="M35 713l182 40.9971l-52 -331c23.333 23.333 49.666 43.5 78.999 60.5s59 25.5 89 25.5c50.667 0 88.5 -11.5 113.5 -34.5s33.167 -59.833 24.5 -110.5l-43 -281c0.666992 -8 1.5 -14.167 2.5 -18.5s4.83301 -6.5 11.5 -6.5c4 0 9 2.66699 15 8s12.667 12 20 20
s14.5 16.667 21.5 26l19.5 25l9 -7.5l9 -7.5c-7.33301 -17.333 -16.333 -34.166 -27 -50.499s-22.667 -31.166 -36 -44.499s-26.5 -21.5 -39.5 -24.5s-26.167 -4.5 -39.5 -4.5c-14.667 0 -27.667 2.83301 -39 8.5s-17.333 14.167 -18 25.5l2 16
c0.666992 5.33301 1.5 12.5 2.5 21.5s2.66699 20.5 5 34.5l9 55l13.5 83l19 119c2 16 0.833008 29 -3.5 39s-10.666 17.833 -18.999 23.5s-17.5 9.5 -27.5 11.5s-19.333 3 -28 3c-16 0 -31 -2.83301 -45 -8.5s-27.333 -13 -40 -22s-25 -19.167 -37 -30.5
s-23.333 -22.666 -34 -33.999l-54 -344h-84l103 664l-89 27z" />
    <glyph glyph-name="i" unicode="i" horiz-adv-x="301"
d="M249 137l9 -7.50098l9 -7.5c-7.33301 -17.333 -16.333 -34.166 -27 -50.499s-22.667 -31.166 -36 -44.499s-26.5 -21.5 -39.5 -24.5s-26.167 -4.5 -39.5 -4.5c-14.667 0 -27.667 2.83301 -39 8.5s-17.333 14.167 -18 25.5c0 4.66699 0.333008 9.83398 1 15.501
s1.83398 13.5 3.50098 23.5l6.5 40.5l10.5 67l16 103.5l23.5 150c-0.666992 8.66699 -1.5 15.167 -2.5 19.5s-4.83301 6.5 -11.5 6.5c-4 0 -9 -2.83301 -15 -8.5s-12.667 -12.5 -20 -20.5s-14.5 -16.5 -21.5 -25.5l-19.5 -24.5l-9 7.5l-9 7.5c13.333 36 34.333 67.333 63 94
c12.667 13.333 25.5 21.666 38.5 24.999s26.167 5 39.5 5c14.667 0 27.667 -2.83301 39 -8.5s17.666 -14.167 18.999 -25.5v-13c0 -4 -0.5 -10.667 -1.5 -20s-2.66699 -22.333 -5 -39s-5.83301 -39.334 -10.5 -68.001l-18 -106.5l-26 -154.5
c0.666992 -8 1.5 -14.167 2.5 -18.5s4.83301 -6.5 11.5 -6.5c4 0 9 2.66699 15 8s12.667 12 20 20s14.5 16.667 21.5 26zM255 668.999c2 -37.333 -17.666 -56 -58.999 -56c-42.667 0 -64.334 18 -65.001 54c-2 36.667 18 55 60 55s63.333 -17.667 64 -53z" />
    <glyph glyph-name="j" unicode="j" horiz-adv-x="367"
d="M-36 -203c24 0 43.835 4.33301 59.502 13s28.667 20.334 39 35.001s18.333 31.667 24 51s10.5 39.666 14.5 60.999l73 475c-0.666992 8.66699 -1.5 15.167 -2.5 19.5s-4.83301 6.5 -11.5 6.5c-4 0 -9 -2.83301 -15 -8.5s-12.667 -12.5 -20 -20.5s-14.5 -16.5 -21.5 -25.5
l-19.5 -24.5l-9 7.5l-9 7.5c13.333 36 34.333 67.333 63 94c12.667 13.333 25.5 21.666 38.5 24.999s26.167 5 39.5 5c14.667 0 27.667 -2.83301 39 -8.5s17.666 -14.167 18.999 -25.5l-80 -525c-5.33301 -31.333 -13.333 -60.666 -24 -87.999s-25 -51 -43 -71
s-40.333 -35.667 -67 -47s-58.334 -17 -95.001 -17h-64l9 61h63zM301.002 669c2 -37.333 -17.666 -56 -58.999 -56c-42.667 0 -64.334 18 -65.001 54c-2 36.667 18 55 60 55s63.333 -17.667 64 -53z" />
    <glyph glyph-name="k" unicode="k" horiz-adv-x="527"
d="M31 711l185 41l-116 -752h-84l102 661l-90 27zM482 132c-5.33301 -11.333 -12.665 -24.501 -21.998 -39.501s-20 -29.333 -32 -43s-24.833 -25.334 -38.5 -35.001s-27.167 -14.5 -40.5 -14.5c-12.667 0 -24.334 5.33301 -35.001 16s-21 24.334 -31 41.001l-138 203
l217 188l-65 28l3 24h201l-260 -219l140 -205c2 -1.33301 3.66699 -3.16602 5 -5.49902s3.66602 -2.5 6.99902 -0.5l34.5 39.5l35.5 39.5l19 -17v0z" />
    <glyph glyph-name="l" unicode="l" horiz-adv-x="249"
d="M197 134l8.99805 -7.50293l9 -7.5c-7.33301 -17.333 -16.333 -34.166 -27 -50.499s-22.667 -31.166 -36 -44.499c-12.667 -13.333 -25.667 -21.5 -39 -24.5s-26.666 -4.5 -39.999 -4.5c-14.667 0 -27.667 2.83301 -39 8.5s-17.333 14.167 -18 25.5l2 16.5
c0.666992 5.66699 1.83398 14.334 3.50098 26.001l7 47.5l12.5 81l72 461l-90 27l3 23l185 41l-62 -401l-42 -271c0.666992 -8 1.66699 -14.167 3 -18.5s5.33301 -6.5 12 -6.5c4 0 9 2.66699 15 8s12.5 12 19.5 20s14 16.667 21 26z" />
    <glyph glyph-name="m" unicode="m" horiz-adv-x="895"
d="M62 0l64.999 418.999c-0.666992 8.66699 -1.5 15.167 -2.5 19.5s-4.83301 6.5 -11.5 6.5c-4 0 -9 -2.83301 -15 -8.5s-12.667 -12.5 -20 -20.5s-14.5 -16.5 -21.5 -25.5l-19.5 -24.5l-9 7.5l-9 7.5c13.333 36 34.333 67.333 63 94c12.667 13.333 25.5 21.666 38.5 24.999
s26.167 5 39.5 5c14.667 0 26.5 -2.83301 35.5 -8.5s14.167 -14.167 15.5 -25.5c0.666992 -4.66699 0.833984 -10.167 0.500977 -16.5s-1.5 -16.833 -3.5 -31.5h1v1c24 23.333 50.667 43.333 80 60s60 25 92 25c15.333 0 30 -2 44 -6s26.5 -9.83301 37.5 -17.5
s19.833 -17.334 26.5 -29.001s10.667 -25.167 12 -40.5c12 11.333 25.167 22.666 39.5 33.999s29.166 21.333 44.499 30s31 15.667 47 21s32 8 48 8c50 0 84.667 -13.167 104 -39.5s25.333 -63.5 18 -111.5l-45 -281c0.666992 -8 1.5 -14.167 2.5 -18.5
s4.83301 -6.5 11.5 -6.5c4 0 9 2.66699 15 8s12.667 12 20 20s14.5 16.667 21.5 26l19.5 25l9 -7.5l9 -7.5c-7.33301 -17.333 -16.333 -34.166 -27 -50.499s-22.667 -31.166 -36 -44.499s-26.5 -21.5 -39.5 -24.5s-26.167 -4.5 -39.5 -4.5
c-14.667 0 -27.5 2.83301 -38.5 8.5s-16.833 14.167 -17.5 25.5l2.5 24.5c1 9.66699 3.5 26.167 7.5 49.5l41 262c4 24.667 -0.333008 44 -13 58s-31 21 -55 21c-14 0 -27.5 -2.83301 -40.5 -8.5s-25.667 -13.167 -38 -22.5s-24.5 -19.666 -36.5 -30.999l-36 -35l-53 -344
h-84l56 361c4 24.667 -1 44.167 -15 58.5s-33 21.5 -57 21.5c-15.333 0 -29.666 -2.83301 -42.999 -8.5s-26 -13.167 -38 -22.5s-23.667 -19.666 -35 -30.999l-33 -33l-54 -346h-81z" />
    <glyph glyph-name="n" unicode="n" horiz-adv-x="612"
d="M61 -1l69.002 418.997c-0.666992 8.66699 -1.83398 15.167 -3.50098 19.5s-5.83398 6.5 -12.501 6.5c-4 0 -9 -2.83301 -15 -8.5s-12.667 -12.5 -20 -20.5s-14.5 -16.5 -21.5 -25.5l-19.5 -24.5l-9 7.5l-9 7.5c13.333 36 34.333 67.333 63 94
c12.667 13.333 25.5 21.666 38.5 24.999s26.167 5 39.5 5c14.667 0 28 -2.66699 40 -8s18 -14 18 -26c0 -2.66699 -0.166992 -4.66699 -0.5 -6s-0.666016 -3.16602 -0.999023 -5.49902s-1 -6 -2 -11s-2.16699 -12.5 -3.5 -22.5c23.333 22.667 49.333 42.334 78 59.001
s58 25 88 25c50.667 0 88.5 -11.5 113.5 -34.5s33.167 -59.833 24.5 -110.5l-43 -281c0.666992 -8 1.5 -14.167 2.5 -18.5s4.83301 -6.5 11.5 -6.5c4 0 9 2.66699 15 8s12.667 12 20 20s14.5 16.667 21.5 26l19.5 25l9 -7.5l9 -7.5
c-7.33301 -17.333 -16.333 -34.166 -27 -50.499s-22.667 -31.166 -36 -44.499s-26.5 -21.5 -39.5 -24.5s-26.167 -4.5 -39.5 -4.5c-14.667 0 -27.667 2.83301 -39 8.5s-17.333 14.167 -18 25.5l2 16c0.666992 5.33301 1.5 12.5 2.5 21.5s2.66699 20.5 5 34.5l9 55l13.5 83
l19 119c2 16 0.833008 29 -3.5 39s-10.666 17.833 -18.999 23.5s-17.5 9.5 -27.5 11.5s-19.333 3 -28 3c-16 0 -31 -2.83301 -45 -8.5s-27.333 -13 -40 -22s-24.834 -19 -36.501 -30s-22.834 -22.167 -33.501 -33.5l-55 -345h-84z" />
    <glyph glyph-name="o" unicode="o" horiz-adv-x="557"
d="M509 249c-5.33301 -35.333 -15.6641 -68.667 -30.9971 -100s-34.833 -58.833 -58.5 -82.5s-51 -42.5 -82 -56.5s-64.833 -21 -101.5 -21c-39.333 0 -72.833 6.66699 -100.5 20s-49.834 31.666 -66.501 54.999s-27.5 50.833 -32.5 82.5s-4.83301 65.834 0.5 102.501
c5.33301 34.667 16.166 67.667 32.499 99s36.833 59 61.5 83s53 43 85 57s66.333 21 103 21c39.333 0 72.5 -6.66699 99.5 -20s48.167 -31.666 63.5 -54.999s25.166 -50.833 29.499 -82.5s3.5 -65.834 -2.5 -102.501zM422.002 248.999
c4 22.667 5.50195 45.834 4.50195 69.501s-5.66699 45.167 -14 64.5s-20.833 35 -37.5 47s-38.667 18 -66 18s-51.5 -6 -72.5 -18s-39.333 -27.667 -55 -47s-28.167 -40.833 -37.5 -64.5s-16 -46.834 -20 -69.501c-3.33301 -23.333 -4 -46.833 -2 -70.5s7.66699 -45 17 -64
s22.666 -34.5 39.999 -46.5s40 -18 68 -18c26.667 0 50.167 6 70.5 18s37.666 27.5 51.999 46.5s25.833 40.333 34.5 64s14.667 47.167 18 70.5z" />
    <glyph glyph-name="p" unicode="p" horiz-adv-x="615"
d="M133 -194l104.998 -33.001l-4 -26h-277l4 26l92 33l96 614l-1.5 19.5c-0.333008 4.33301 -3.83301 6.5 -10.5 6.5c-4 0 -9 -2.83301 -15 -8.5s-12.667 -12.5 -20 -20.5s-14.5 -16.5 -21.5 -25.5l-19.5 -24.5l-9 7.5l-9 7.5c13.333 36 34.333 67.333 63 94
c12.667 13.333 25.5 21.666 38.5 24.999s26.167 5 39.5 5c25.333 0 41 -5.83301 47 -17.5s6.33301 -29.5 1 -53.5c22.667 21.333 46.834 39 72.501 53s54.834 21 87.501 21c37.333 0 68.333 -6.66699 93 -20s43.667 -31.166 57 -53.499s21.5 -48.166 24.5 -77.499
s2.16699 -60 -2.5 -92c-5.33301 -34 -14.833 -67.5 -28.5 -100.5s-31.5 -62.5 -53.5 -88.5s-48.333 -47.167 -79 -63.5s-65.667 -24.5 -105 -24.5c-31.333 0 -57 3.5 -77 10.5s-37.333 18.5 -52 34.5zM476.998 263.999c3.33301 22.667 3.99902 44.999 1.99902 66.999
s-7.5 41.667 -16.5 59s-21.5 31.333 -37.5 42s-36 16 -60 16c-29.333 0 -56 -9.5 -80 -28.5s-45 -40.833 -63 -65.5l-37 -240c10.667 -22 26.667 -38.167 48 -48.5s44 -15.5 68 -15.5c28.667 0 53.334 7.16699 74.001 21.5s38 32.333 52 54s25 44.834 33 69.501
s13.667 47.667 17 69z" />
    <glyph glyph-name="q" unicode="q" horiz-adv-x="554"
d="M371 63c-23.333 -22 -49.501 -39.8311 -78.501 -53.498s-58.5 -20.5 -88.5 -20.5c-37.333 0 -68 6.66699 -92 20s-42.333 31.166 -55 53.499s-20.5 48.166 -23.5 77.499s-1.83301 60 3.5 92c4.66699 32.667 14.167 65.5 28.5 98.5s33 62.833 56 89.5
s50.5 48.167 82.5 64.5s68.667 24.5 110 24.5c15.333 0 28.833 -1 40.5 -3s22.334 -5 32.001 -9s18.5 -9 26.5 -15s16 -13 24 -21l84 37l-108 -691l83 -34l-4 -26h-258l4 26l93 34zM419.999 383.002c-10.667 22 -25.499 38.332 -44.499 48.999s-40.5 16 -64.5 16
c-28.667 0 -54 -7.16699 -76 -21.5s-40.667 -32.333 -56 -54s-27.5 -45 -36.5 -70s-15.167 -47.833 -18.5 -68.5c-3.33301 -22.667 -4.16602 -45 -2.49902 -67s6.5 -41.667 14.5 -59s19.833 -31.333 35.5 -42s35.5 -16 59.5 -16c14.667 0 29.167 2.66699 43.5 8
s28.166 12.333 41.499 21s25.666 18.834 36.999 30.501s21.333 23.5 30 35.5l37 238v0z" />
    <glyph glyph-name="r" unicode="r" horiz-adv-x="384"
d="M60 0l66 424.003c-0.666992 9.33301 -1.5 16.166 -2.5 20.499s-4.83301 6.5 -11.5 6.5c-4 0 -9 -2.83301 -15 -8.5s-12.667 -12.5 -20 -20.5s-14.5 -16.5 -21.5 -25.5l-19.5 -24.5l-9 7.5l-9 7.5c13.333 36 34.333 67.333 63 94c12.667 13.333 25.5 21.666 38.5 24.999
s26.167 5 39.5 5c14.667 0 26.5 -2.83301 35.5 -8.5s14.167 -14.167 15.5 -25.5c0.666992 -4.66699 1 -10.334 1 -17.001c0 -6 -1 -16.333 -3 -31l-3 -18c10 12.667 21 25 33 37s24.667 22.5 38 31.5s27.333 16.167 42 21.5s29.334 8 44.001 8c7.33301 0 14.333 -1 21 -3
s13.667 -4.33301 21 -7l-26 -161h-26l-23 86c-13.333 0 -27.5 -2.16699 -42.5 -6.5s-29 -11 -42 -20s-24.333 -20.333 -34 -34s-15.834 -30.167 -18.501 -49.5l-49 -314h-83z" />
    <glyph glyph-name="s" unicode="s" horiz-adv-x="423"
d="M374 348l-25.998 -0.00292969l-24 86c-20 9.33301 -41 14 -63 14c-12 0 -24 -1 -36 -3s-23.167 -5.83301 -33.5 -11.5s-19.166 -13.334 -26.499 -23.001s-12.333 -22.167 -15 -37.5c-2.66699 -17.333 1.16602 -31 11.499 -41s23.666 -19 39.999 -27
s34.166 -15.667 53.499 -23s37 -17 53 -29s28.5 -27.167 37.5 -45.5s11.167 -41.833 6.5 -70.5c-4 -25.333 -12.667 -47.333 -26 -66s-29.333 -34 -48 -46s-38.667 -21 -60 -27s-42.333 -9 -63 -9c-29.333 0 -55.666 3.5 -78.999 10.5s-45.333 17.5 -66 31.5l20 127h26
l23 -87c11.333 -6.66699 23.166 -11.667 35.499 -15s27.833 -5 46.5 -5c24 0 46.167 5.83301 66.5 17.5s32.5 30.834 36.5 57.501c3.33301 20.667 0 37 -10 49s-23 22.167 -39 30.5s-33.833 15.833 -53.5 22.5s-37.5 15.334 -53.5 26.001s-28.667 24.5 -38 41.5
s-11.666 39.5 -6.99902 67.5c4 26.667 13.167 49.334 27.5 68.001s31 33.834 50 45.501s39.333 20 61 25s42.5 7.5 62.5 7.5c21.333 0 44.166 -3 68.499 -9s44.833 -14.333 61.5 -25z" />
    <glyph glyph-name="t" unicode="t" horiz-adv-x="347"
d="M305 34c-21.333 -12 -43.834 -22.5 -67.501 -31.5s-46.167 -13.5 -67.5 -13.5c-40.667 0 -69.167 11 -85.5 33s-20.833 53.333 -13.5 94l49 315h-86l10 37l87 30l26 161h83l-26 -161h145l-10 -67h-146l-48 -306c-3.33301 -19.333 -2.16602 -35.666 3.50098 -48.999
s19.167 -20.333 40.5 -21c13.333 0 28.333 3.16699 45 9.5s30 13.166 40 20.499l21 -51v0z" />
    <glyph glyph-name="u" unicode="u" horiz-adv-x="615"
d="M541 507l-69.0039 -418.998c0.666992 -8.66699 1.83398 -15.167 3.50098 -19.5s5.83398 -6.5 12.501 -6.5c4 0 9 2.83301 15 8.5s12.667 12.5 20 20.5s14.5 16.5 21.5 25.5l19.5 24.5l9 -7.5l9 -7.5c-13.333 -36 -34.333 -67.333 -63 -94
c-12.667 -13.333 -25.5 -21.666 -38.5 -24.999s-26.167 -5 -39.5 -5c-14.667 0 -27.667 2.83301 -39 8.5s-17.666 14.167 -18.999 25.5v5c0 1.33301 0.333008 3.33301 1 6s1.5 6.5 2.5 11.5s2.16699 12.5 3.5 22.5c-23.333 -22.667 -49.333 -42.334 -78 -59.001
s-58 -25 -88 -25c-50.667 0 -88.5 11.5 -113.5 34.5s-33.167 59.833 -24.5 110.5l43 281c-0.666992 8 -1.5 14.167 -2.5 18.5s-4.83301 6.5 -11.5 6.5c-4 0 -9 -2.66699 -15 -8s-12.667 -12 -20 -20s-14.5 -16.667 -21.5 -26l-19.5 -25l-9 7.5l-9 7.5
c7.33301 17.333 16.333 34.166 27 50.499s22.667 31.166 36 44.499s26.5 21.5 39.5 24.5s26.167 4.5 39.5 4.5c14.667 0 27.667 -2.83301 39 -8.5s17.333 -14.167 18 -25.5l-2 -16c-0.666992 -5.33301 -1.5 -12.5 -2.5 -21.5s-2.66699 -20.5 -5 -34.5l-9 -55l-13.5 -83
l-19 -119c-2 -16 -0.833008 -29 3.5 -39s10.666 -17.833 18.999 -23.5s17.5 -9.5 27.5 -11.5s19.333 -3 28 -3c16 0 31 2.83301 45 8.5s27.333 13 40 22s24.834 19 36.501 30s22.834 22.167 33.501 33.5l55 345h84z" />
    <glyph glyph-name="v" unicode="v" horiz-adv-x="592"
d="M5 417c8.66699 9.33301 19.6641 20.333 32.9971 33s27.666 24.334 42.999 35.001s30.833 19 46.5 25s29.834 7.66699 42.501 5c11.333 -3.33301 20.333 -11.5 27 -24.5s11.334 -28.833 14.001 -47.5l57 -269c3.33301 -20 5.83301 -39.167 7.5 -57.5
s2.5 -29.833 2.5 -34.5c0.666992 2 2.33398 6.33301 5.00098 13s6 14.334 10 23.001l13 28.5c4.66699 10.333 9.66699 20.166 15 29.499l149 278l-66 34l4 26h175l-282 -514h-80l-101 449c-2 2 -3.16699 4.16699 -3.5 6.5s-2.16602 3.16602 -5.49902 2.49902
c-2 0 -6.33301 -2 -13 -6l-24.5 -15c-9.66699 -6 -19.667 -12.667 -30 -20l-28.5 -21l-10 21v0z" />
    <glyph glyph-name="w" unicode="w" horiz-adv-x="885"
d="M6 426c9.33301 8.66699 20.9971 18.833 34.9971 30.5s28.833 22.334 44.5 32.001s31.334 17.167 47.001 22.5s29.834 6 42.501 2c11.333 -4 20 -12.667 26 -26s9.66699 -29.333 11 -48l37 -261c3.33301 -22.667 5.16602 -43.334 5.49902 -62.001s0.5 -30.667 0.5 -36
c0.666992 3.33301 2.16699 8.5 4.5 15.5s5.33301 15 9 24s8 18.5 13 28.5s10.5 20 16.5 30l159 334h83l50 -331l4 -39.5c1.33301 -13 2.33301 -24.167 3 -33.5c0.666992 -12 1 -22.667 1 -32l3 9c2 6 5 14 9 24l14 34.5c5.33301 13 11.333 26.5 18 40.5l125 267l-64 34l4 26
h171l-257 -511h-85l-51 335c-1.33301 7.33301 -2.5 16 -3.5 26s-1.66699 19.833 -2 29.5s-0.333008 18.334 0 26.001s0.5 13.167 0.5 16.5c-0.666992 -2.66699 -2.5 -8 -5.5 -16l-10.5 -27l-12.5 -30.5c-4.33301 -10.333 -8.5 -19.5 -12.5 -27.5l-159 -332h-85l-72 450
c-1.33301 2.66699 -2.16602 5.16699 -2.49902 7.5s-2.16602 3.16602 -5.49902 2.49902c-2 0 -6.5 -1.66699 -13.5 -5s-15.333 -7.83301 -25 -13.5l-31 -18.5l-30.5 -19l-9 22v0z" />
    <glyph glyph-name="x" unicode="x" horiz-adv-x="610"
d="M558 140c-5.33301 -12 -12.5 -26.001 -21.5 -42.001s-19 -31.333 -30 -46s-23 -27.5 -36 -38.5s-25.833 -16.833 -38.5 -17.5c-11.333 0.666992 -22.5 6 -33.5 16s-20.5 23.667 -28.5 41l-61 107c-5.33301 9.33301 -9.83301 18.5 -13.5 27.5
s-5.83398 14.167 -6.50098 15.5c-0.666992 -0.666992 -4.33398 -5.83398 -11.001 -15.501l-22 -30.5l-82 -99l42 -32l-4 -26h-180l218 251l-120 200c-2.66699 1.33301 -4.83398 2.83301 -6.50098 4.5s-4.16699 1.83398 -7.5 0.500977
c-1.33301 -0.666992 -4.66602 -3.83398 -9.99902 -9.50098s-11.666 -12.834 -18.999 -21.501s-14.833 -18.167 -22.5 -28.5l-21.5 -28.5l-15 17c5.33301 12 12.5 26 21.5 42s19.333 31.333 31 46s23.834 27.167 36.501 37.5s25.667 16.166 39 17.499
c11.333 0 22.666 -5.16699 33.999 -15.5s21.333 -24.166 30 -41.499l69 -121c3.33301 -6 6.5 -12.167 9.5 -18.5s6.5 -14.166 10.5 -23.499c2.66699 3.33301 7 9.16602 13 17.499s13.333 17.833 22 28.5l87 105l-43 32l4 26h182l-226 -258l111 -184
c2.66699 -1.33301 4.33398 -3.16602 5.00098 -5.49902s2.66699 -2.5 6 -0.5c2 0.666992 5.66699 3.83398 11 9.50098s11.5 12.834 18.5 21.501l22 28l21.5 29l15 -17v0z" />
    <glyph glyph-name="y" unicode="y" horiz-adv-x="531"
d="M-59 412c8 10 18.5059 21.333 31.5059 34s27.167 24.5 42.5 35.5s30.666 19.667 45.999 26s29.666 8.16602 42.999 5.49902c11.333 -3.33301 20.333 -11.333 27 -24s11.667 -28 15 -46l64 -271c1.33301 -7.33301 2.66602 -15.833 3.99902 -25.5l4 -28l3.5 -24
c1 -7 1.5 -11.167 1.5 -12.5c0 0.666992 1.5 4.5 4.5 11.5l10.5 24.5c4 9.33301 8.5 19 13.5 29l13.5 26l139 279l-63 35v26h176l-180 -348l-46.5 -82.5c-15.667 -27 -30.834 -54.5 -45.501 -82.5l-31 -60.5l-32 -60.5c-10.667 -19.333 -21.334 -37.166 -32.001 -53.499
s-21.334 -28.833 -32.001 -37.5c-13.333 -12 -25.833 -21.167 -37.5 -27.5s-23.834 -11 -36.501 -14s-26.167 -4.66699 -40.5 -5s-30.5 -0.166016 -48.5 0.500977v59c20 -0.666992 39.167 -0.333984 57.5 0.999023s34.833 8.33301 49.5 21
c10 8.66699 20.167 21.334 30.5 38.001s20 34 29 52l24.5 51c7.33301 16 13.333 28.333 18 37l-109 446c-2.66699 2 -4.16699 4.16699 -4.5 6.5s-2.16602 3.16602 -5.49902 2.49902c-2 0 -6.33301 -2 -13 -6s-14.667 -9.33301 -24 -16l-29 -21.5l-28 -21.5l-10 21v0z" />
    <glyph glyph-name="z" unicode="z" horiz-adv-x="579"
d="M206 119c-12.667 -14 -24.998 -26.333 -36.998 -37l-18 -18c9.33301 0 18.333 0.333008 27 1c7.33301 0.666992 15.166 1.16699 23.499 1.5s15.833 0.5 22.5 0.5h185l51 88h26l-24 -155h-461l355 397c6 6.66699 12 13 18 19l17 17c6 6 11.667 11.333 17 16l-27 -2
c-7.33301 -0.666992 -15.333 -1.16699 -24 -1.5s-16.334 -0.5 -23.001 -0.5h-186l-51 -88h-26l25 156h463z" />
    <glyph glyph-name="braceleft" unicode="{"
d="M386 668c-25.333 0 -41.666 -7.00098 -48.999 -21.001s-11 -30.667 -11 -50l-1 -166c0 -34.667 -7.5 -61.5 -22.5 -80.5s-36.5 -32.167 -64.5 -39.5c28.667 -6.66699 50 -18.334 64 -35.001s20.667 -42.334 20 -77.001l-2 -160c0 -9.33301 0.166992 -19.166 0.5 -29.499
s2 -20 5 -29s8.16699 -16.333 15.5 -22s18.333 -8.5 33 -8.5h60v-60h-90c-21.333 0 -38.833 3.5 -52.5 10.5s-24.167 16.167 -31.5 27.5s-12.333 24 -15 38s-4 28.333 -4 43l1 168c0 12 -0.833008 24 -2.5 36s-5.83398 22.667 -12.501 32s-16.167 16.833 -28.5 22.5
s-28.833 8.16699 -49.5 7.5v66c20 -1.33301 36.167 1.5 48.5 8.5s22 15.833 29 26.5s11.833 22.5 14.5 35.5s4 25.5 4 37.5l1 165c0 14.667 2.16699 28.834 6.5 42.501s11 25.834 20 36.501s20.333 19.167 34 25.5s30.167 9.5 49.5 9.5h86v-60h-56z" />
    <glyph glyph-name="bar" unicode="|"
d="M211 -253v1004h77l1 -1004h-78z" />
    <glyph glyph-name="braceright" unicode="}"
d="M388 274c-20 0.666992 -36.3301 -2.33203 -48.9971 -8.99902s-22.5 -15.334 -29.5 -26.001s-11.833 -22.5 -14.5 -35.5s-4 -25.5 -4 -37.5l-1 -162c0 -14.667 -2.16699 -28.834 -6.5 -42.501s-10.833 -25.834 -19.5 -36.501s-20 -19.167 -34 -25.5s-30.333 -9.5 -49 -9.5
h-88v60h58c25.333 0 41.666 7 48.999 21s11 30.667 11 50l1 163c0 34.667 7.5 61.5 22.5 80.5s36.5 32.167 64.5 39.5c-28.667 6.66699 -50 18.334 -64 35.001s-21 42.334 -21 77.001l1 163v29c0 10.667 -1.5 20.5 -4.5 29.5s-8.16699 16.333 -15.5 22s-18.333 8.5 -33 8.5
h-61v60h91c21.333 0 38.666 -3.5 51.999 -10.5s23.833 -16.167 31.5 -27.5s12.834 -24 15.501 -38s4 -28.333 4 -43l-1 -171c0 -12 1 -24 3 -36s6.16699 -22.667 12.5 -32s15.666 -16.833 27.999 -22.5s29.166 -8.16699 50.499 -7.5v-66v0z" />
    <glyph glyph-name="asciitilde" unicode="~" horiz-adv-x="677"
d="M643 339c-6 -20.667 -13.501 -41.002 -22.501 -61.002s-20 -38 -33 -54s-28.5 -28.833 -46.5 -38.5s-39.333 -14.5 -64 -14.5c-21.333 0 -38.833 3 -52.5 9s-25.167 13.5 -34.5 22.5s-17.333 18.833 -24 29.5s-13.334 20.5 -20.001 29.5s-14.5 16.5 -23.5 22.5
s-20.167 9 -33.5 9s-25 -4.16699 -35 -12.5s-18.667 -18.666 -26 -30.999s-13.5 -25.166 -18.5 -38.499s-9.16699 -25 -12.5 -35c-10 3.33301 -20.167 6.5 -30.5 9.5s-20.833 5.5 -31.5 7.5c6 20.667 13.5 41 22.5 61s20 38 33 54s28.5 28.833 46.5 38.5
s39.333 14.5 64 14.5c21.333 0 38.833 -3 52.5 -9s25.167 -13.5 34.5 -22.5s17.333 -18.667 24 -29s13.334 -20 20.001 -29s14.334 -16.5 23.001 -22.5s20 -9 34 -9c13.333 0 24.833 4.16699 34.5 12.5s18.167 18.5 25.5 30.5s13.5 24.667 18.5 38s9.16699 25 12.5 35
l31.5 -9.5c10.333 -3 20.833 -5.5 31.5 -7.5z" />
    <glyph glyph-name="uni00A0" unicode="&#xa0;" horiz-adv-x="292"
 />
    <glyph glyph-name="exclamdown" unicode="&#xa1;" horiz-adv-x="263"
d="M125 118c2.66699 16.667 6.16699 36 10.5 58l12.5 62c4.66699 22.667 9.66699 45.667 15 69h71c-2 -24 -4.33301 -47.333 -7 -70c-2 -19.333 -4.5 -39.833 -7.5 -61.5s-5.83301 -40.5 -8.5 -56.5l-49 -311h-86zM160 450c3.33301 22 10.334 37.499 21.001 46.499
s27 13.5 49 13.5c23.333 0 39.166 -4.66699 47.499 -14s10.833 -24.666 7.5 -45.999s-10.5 -36.666 -21.5 -45.999s-27.833 -14 -50.5 -14c-22 0 -37.167 4.66699 -45.5 14s-10.833 24.666 -7.5 45.999z" />
    <glyph glyph-name="cent" unicode="&#xa2;" horiz-adv-x="469"
d="M496 336l-25.998 0.00195312l-23 87c-17.333 10.667 -35.333 17.667 -54 21l-123 -389c10 -2 20.333 -3 31 -3c23.333 0 44.5 4.66699 63.5 14s38.167 22.666 57.5 39.999l41 -42c-23.333 -20.667 -49.833 -38.334 -79.5 -53.001s-64.834 -22 -105.501 -22h-15
c-4 0 -8.33301 0.333008 -13 1l-26 -80l-43 2l27 86c-30 8 -53.833 21.167 -71.5 39.5s-30.834 39 -39.501 62s-13.5 47.167 -14.5 72.5s0.166992 49 3.5 71c5.33301 34 16 66.833 32 98.5s36.167 60 60.5 85s52 45 83 60s64.167 22.5 99.5 22.5h10l24 76l43 -1l-25 -78
c17.333 -2.66699 34.333 -7.5 51 -14.5s33.667 -18.5 51 -34.5zM173.002 243.002c-5.33301 -34 -3.33301 -67 6 -99s27 -56.333 53 -73l120 377c-26 -0.666992 -49.167 -7.16699 -69.5 -19.5s-38 -28 -53 -47s-27.167 -40.667 -36.5 -65s-16 -48.833 -20 -73.5z" />
    <glyph glyph-name="sterling" unicode="&#xa3;" horiz-adv-x="468"
d="M171 217l-22 -142.999h210l86 129h26l-47 -202h-465l4 26l95 37l23 153h-69l10 63h69l16 98h-70l9 62h70v1c6.66699 40.667 17 77 31 109s32.833 59.167 56.5 81.5s52.667 39.333 87 51s75.5 17.5 123.5 17.5c5.33301 0 11.5 -0.333008 18.5 -1
s13.167 -1.33398 18.5 -2.00098l20 -2l-10 -64c-4.66699 0 -9.66699 0.333008 -15 1c-4.66699 0.666992 -9.5 1.16699 -14.5 1.5s-9.83301 0.5 -14.5 0.5c-60 0 -106.667 -13 -140 -39s-54.333 -62.333 -63 -109l-8 -46h184l-9 -62h-184l-16 -98h185l-10 -63h-185z" />
    <glyph glyph-name="currency" unicode="&#xa4;" horiz-adv-x="677"
d="M633 41c-2.66699 -1.33301 -4.83789 -2.33301 -6.50488 -3s-3.16699 -1.33398 -4.5 -2.00098c-30 -14 -58.5 -25.333 -85.5 -34s-56.5 -13 -88.5 -13c-41.333 0 -79.833 6 -115.5 18s-66.834 29.333 -93.501 52s-48.167 50.334 -64.5 83.001s-25.833 69.667 -28.5 111
h-82l9 56h75c0 4.66699 0.333008 9.16699 1 13.5l2 13.5c1.33301 8 2.83301 16.167 4.5 24.5s3.83398 16.5 6.50098 24.5h-76l8 56h86c16.667 38.667 37.834 74 63.501 106s54.834 59.5 87.501 82.5s68.334 41 107.001 54s79.334 19.5 122.001 19.5
c19.333 0 36.333 -0.333008 51 -1s28.5 -2.33398 41.5 -5.00098s26.167 -6.16699 39.5 -10.5s28.333 -10.166 45 -17.499l-1 -2h2l-27 -173h-38l-28 128c-14 4 -28.5 6.83301 -43.5 8.5s-33.167 2.5 -54.5 2.5c-32 0 -61.833 -4.83301 -89.5 -14.5s-53.167 -23 -76.5 -40
s-44.166 -37.333 -62.499 -61s-33.833 -49.167 -46.5 -76.5h223l-8 -56h-234c-1.33301 -7.33301 -2.83301 -14.5 -4.5 -21.5s-3.16699 -14.167 -4.5 -21.5c-1.33301 -5.33301 -2.33301 -10.833 -3 -16.5s-1 -11.167 -1 -16.5h234l-9 -56h-224
c6.66699 -58.667 29.667 -105.5 69 -140.5s92.333 -52.5 159 -52.5c10 0 18.5 0.5 25.5 1.5s13.5 2.33301 19.5 4s12 3.66699 18 6s13 4.83301 21 7.5l83 127h36z" />
    <glyph glyph-name="yen" unicode="&#xa5;" horiz-adv-x="521"
d="M648 628l-226 -247.001h117l-8 -54h-160l-15 -86h161l-8 -54h-161l-19 -124l107 -37l-4 -26h-312l4 26l117 37l20 124h-154l8 54h152l12 76l-4 10h-146l8 54h107l-140 247l-72 37l4 26h258l-4 -26l-79 -37l86 -157c12.667 -23.333 22.667 -42.833 30 -58.5
s11.333 -24.5 12 -26.5c0 0.666992 2.16699 3.83398 6.5 9.50098s10 12.667 17 21l24 28.5l27.5 32l131 147l3 4l-67 37l4 26h250l-4 -26z" />
    <glyph glyph-name="brokenbar" unicode="&#xa6;" horiz-adv-x="445"
d="M244 411l39 250h76l-39 -250h-76zM165 -89l39 250h78l-39 -250h-78z" />
    <glyph glyph-name="section" unicode="&#xa7;" horiz-adv-x="435"
d="M505 532l-25.9941 0.00683594l-23 83c-16 8 -31.167 13.833 -45.5 17.5s-31.5 5.5 -51.5 5.5c-36.667 0 -67.334 -6.16699 -92.001 -18.5s-39.334 -32.5 -44.001 -60.5c-4 -24 0.5 -42.667 13.5 -56s30.167 -24.166 51.5 -32.499s44.666 -15.666 69.999 -21.999
s48.666 -14.333 69.999 -24s38.166 -22.334 50.499 -38.001s16.5 -37.5 12.5 -65.5c-2.66699 -16.667 -8.66699 -31.334 -18 -44.001s-20.5 -24 -33.5 -34s-27.167 -19.167 -42.5 -27.5s-30.666 -15.833 -45.999 -22.5c12.667 -5.33301 24.5 -11.666 35.5 -18.999
s20 -16 27 -26s11.833 -21.833 14.5 -35.5s2.66699 -29.834 0 -48.501c-4.66699 -28.667 -15 -53.334 -31 -74.001s-35.5 -37.834 -58.5 -51.501s-48.333 -24 -76 -31s-54.834 -10.5 -81.501 -10.5c-32.667 -0.666992 -62.667 3.5 -90 12.5s-53 22.167 -77 39.5l19 127h26
l22 -84c30 -20 64.667 -30 104 -30c16 0 32.333 1.33301 49 4s32.167 7.5 46.5 14.5s26.833 16.833 37.5 29.5s17.667 28.667 21 48c3.33301 21.333 -1.83398 38.166 -15.501 50.499s-31.667 22.666 -54 30.999s-46.833 15.833 -73.5 22.5s-51 15.167 -73 25.5
s-39.5 23.833 -52.5 40.5s-17.167 39 -12.5 67c2.66699 17.333 8.66699 32.666 18 45.999s20.5 25 33.5 35s27.333 19 43 27s31.5 15.333 47.5 22c-23.333 13.333 -41.5 29.666 -54.5 48.999s-17.167 43 -12.5 71c4.66699 28.667 14.667 53.167 30 73.5s34 36.666 56 48.999
s46 21.333 72 27s52 8.5 78 8.5c32 0 60.5 -3.5 85.5 -10.5s48.5 -17.833 70.5 -32.5zM406.006 299.007c2 14 1 25.335 -3 34.002s-9.83301 15.667 -17.5 21s-16.5 9.66602 -26.5 12.999l-30 10l-81 26c-10 -4 -20.833 -8.83301 -32.5 -14.5s-22.667 -12.167 -33 -19.5
s-19.333 -15.333 -27 -24s-12.5 -18.334 -14.5 -29.001c-3.33301 -21.333 1.16699 -37.333 13.5 -48s27.166 -18.667 44.499 -24l103 -32c8.66699 4 18.667 9 30 15s22.333 12.5 33 19.5s19.834 15 27.501 24s12.167 18.5 13.5 28.5z" />
    <glyph glyph-name="dieresis" unicode="&#xa8;"
d="M309 871c-6 -37.333 -29.667 -56 -71 -56c-42 0 -60.333 18 -55 54c6 36.667 30 55 72 55c40.667 0 58.667 -17.667 54 -53zM541 869c-6 -37.333 -29.333 -56 -70 -56c-42.667 0 -61 18 -55 54c6 36.667 30 55 72 55c41.333 0 59 -17.667 53 -53z" />
    <glyph glyph-name="copyright" unicode="&#xa9;"
d="M803 346c-8 -50 -24.833 -96.6689 -50.5 -140.002s-57.334 -81 -95.001 -113s-79.667 -57.333 -126 -76s-94.5 -28 -144.5 -28c-52 0 -98.5 8.66699 -139.5 26s-75.167 41.833 -102.5 73.5s-46.5 69.334 -57.5 113.001s-12.5 91.834 -4.5 144.501
c8 50 24.667 96.667 50 140s56.833 81 94.5 113s79.667 57.333 126 76s94.5 28 144.5 28c50.667 0 96.5 -8.83301 137.5 -26.5s75.333 -42.167 103 -73.5s47.334 -69 59.001 -113s13.5 -92 5.5 -144zM748 346.998c6.66699 43.333 5.33301 83.833 -4 121.5
s-25.5 70.5 -48.5 98.5s-51.833 50 -86.5 66s-74 24 -118 24s-85.833 -8 -125.5 -24s-75.167 -38 -106.5 -66s-57.666 -60.833 -78.999 -98.5s-35.333 -78.167 -42 -121.5s-5.33398 -84 3.99902 -122s25.333 -71 48 -99s51.334 -50.167 86.001 -66.5s74 -24.5 118 -24.5
s86 8.16699 126 24.5s75.667 38.5 107 66.5s57.666 61 78.999 99s35.333 78.667 42 122zM611.999 431.998l-24.9971 -0.00683594l-21 81c-13.333 8.66699 -27 14.834 -41 18.501s-28.667 5.5 -44 5.5c-24.667 0 -46.834 -5.66699 -66.501 -17s-36.834 -26 -51.501 -44
s-26.5 -38.5 -35.5 -61.5s-15.5 -46.167 -19.5 -69.5c-3.33301 -21.333 -3.5 -42.666 -0.5 -63.999s9.33301 -40.5 19 -57.5s23 -30.833 40 -41.5s37.5 -16 61.5 -16c21.333 0 41.166 4.5 59.499 13.5s36.5 21.167 54.5 36.5l38 -39c-21.333 -19.333 -46 -35.833 -74 -49.5
s-61 -20.5 -99 -20.5c-42.667 0 -76.667 7.83301 -102 23.5s-44.5 35.334 -57.5 59.001s-20.667 49.334 -23 77.001s-1.5 53.834 2.5 78.501c4.66699 31.333 14.667 62 30 92s34.333 56.667 57 80s48.5 42 77.5 56s60.167 21 93.5 21c12 0 24 -0.5 36 -1.5
s24 -3.16699 36 -6.5s24 -8.16602 36 -14.499s24.333 -15.166 37 -26.499z" />
    <glyph glyph-name="guillemotleft" unicode="&#xab;" horiz-adv-x="368"
d="M297 263l83 -162l-42 -23l-125 185l194 195l36 -23zM127 263l83 -162l-42 -23l-125 185l194 195l36 -23z" />
    <glyph glyph-name="logicalnot" unicode="&#xac;"
d="M428 108h-78l33 207h-372l11 73h450z" />
    <glyph glyph-name="registered" unicode="&#xae;"
d="M525 519c-5.33301 -32.667 -16.501 -63.167 -33.501 -91.5s-37.833 -53 -62.5 -74s-52.167 -37.667 -82.5 -50s-61.833 -18.5 -94.5 -18.5c-34 0 -64.5 5.66699 -91.5 17s-49.333 27.333 -67 48s-30.167 45.334 -37.5 74.001s-8.33301 60.334 -3 95.001
c4.66699 32.667 15.5 63.167 32.5 91.5s37.833 53 62.5 74s52.167 37.667 82.5 50s61.833 18.5 94.5 18.5c33.333 0 63.5 -5.83301 90.5 -17.5s49.5 -27.834 67.5 -48.501s30.833 -45.334 38.5 -74.001s8.83398 -60 3.50098 -94zM417.999 597
c-4.66699 -30 -14.8311 -51 -30.498 -63s-34.167 -21 -55.5 -27l43 -128l26 -13c22.667 19.333 41.667 42 57 68s25.666 54.333 30.999 85c4.66699 28.667 3.83398 55.334 -2.49902 80.001s-17 46.167 -32 64.5s-33.833 32.833 -56.5 43.5s-48.334 16 -77.001 16
c-22.667 0 -44.334 -3.33301 -65.001 -10s-39.667 -15.667 -57 -27l126 1h27c12 0 23.5 -2.5 34.5 -7.5s20 -13.833 27 -26.5s8.5 -31.334 4.5 -56.001zM89.002 519c-5.33301 -32 -4 -61.332 4 -87.999s21.333 -49.334 40 -68.001l42 16l42 277l-37 17
c-24 -19.333 -44 -42 -60 -68s-26.333 -54.667 -31 -86zM257.002 315.001c21.333 0 41.832 3 61.499 9s38.167 14 55.5 24h-34l-57 154h-46l-19 -123l41 -18l-2 -13h-107c14.667 -10 30.834 -18 48.501 -24s37.167 -9 58.5 -9zM242.001 534.001l41.998 0.000976562
c10 0 19.833 0.5 29.5 1.5s18.5 3.5 26.5 7.5s15 10.167 21 18.5s10.333 20.166 13 35.499c2 14.667 1.5 26.167 -1.5 34.5s-7.83301 14.5 -14.5 18.5s-14.167 6.33301 -22.5 7s-16.5 1 -24.5 1c-9.33301 0 -19.166 -0.166992 -29.499 -0.5s-17.166 -0.5 -20.499 -0.5z" />
    <glyph glyph-name="macron" unicode="&#xaf;"
d="M164 604l9 60h274l-9 -60h-274z" />
    <glyph glyph-name="macron" unicode="&#x2c9;"
d="M164 604l9 60h274l-9 -60h-274z" />
    <glyph glyph-name="degree" unicode="&#xb0;"
d="M444 560c-3.33301 -18.667 -9.50098 -36.667 -18.501 -54s-20.5 -32.5 -34.5 -45.5s-30.167 -23.5 -48.5 -31.5s-38.166 -12 -59.499 -12c-23.333 0 -44 3.66699 -62 11s-32.667 17.5 -44 30.5s-19.5 28.167 -24.5 45.5s-5.83301 36 -2.5 56
c2.66699 20 9.16699 38.667 19.5 56s23 32.5 38 45.5s32 23.167 51 30.5s39.167 11 60.5 11c16.667 0 33.5 -2.5 50.5 -7.5s31.667 -13 44 -24s21.5 -25.667 27.5 -44s7 -40.833 3 -67.5zM385.999 560c4 26.667 0 49.5 -12 68.5s-32.667 28.5 -62 28.5
c-14 0 -27 -2.83301 -39 -8.5s-22.5 -13 -31.5 -22s-16.333 -19.333 -22 -31s-9.5 -23.5 -11.5 -35.5s-1.5 -23.833 1.5 -35.5s8.16699 -22 15.5 -31s16.5 -16.333 27.5 -22s23.5 -8.5 37.5 -8.5s26.5 2.83301 37.5 8.5s20.5 13 28.5 22s14.5 19.333 19.5 31
s8.5 23.5 10.5 35.5z" />
    <glyph glyph-name="plusminus" unicode="&#xb1;"
d="M343 264l-26 -167h-80l27 167h-196l11 73h197l27 163h79l-27 -163h199l-11 -73h-200zM24 0l11 73h475l-11 -73h-475z" />
    <glyph glyph-name="twosuperior" unicode="&#xb2;" horiz-adv-x="585"
d="M131 430l-98.9961 -0.000976562l10 38l100 30l9 53c4.66699 30.667 12.334 59 23.001 85s25 48.333 43 67s40.167 33.167 66.5 43.5s57.5 15.5 93.5 15.5h66l-24 -148h-26l-23 88c-7.33301 1.33301 -15 1 -23 -1s-17.667 -4.66699 -29 -8
c-14 -5.33301 -26 -13.166 -36 -23.499s-18.167 -22.166 -24.5 -35.499s-11.5 -28 -15.5 -44s-7.33301 -32.333 -10 -49l-7 -43h158c6.66699 0 12.667 1.33301 18 4s10.333 5.66699 15 9s9.66699 6.33301 15 9s11.666 4 18.999 4c14.667 0 27.667 -3.83301 39 -11.5
s17.666 -17.167 18.999 -28.5v-13c0 -4 -0.5 -10.667 -1.5 -20s-2.66699 -22.333 -5 -39s-5.83301 -39.334 -10.5 -68.001l-18 -106.5l-26 -154.5c0.666992 -8 1.5 -14.167 2.5 -18.5s4.83301 -6.5 11.5 -6.5c4 0 9 2.66699 15 8s12.667 12 20 20s14.5 16.667 21.5 26
l19.5 25l9 -7.5l9 -7.5c-7.33301 -17.333 -16.333 -34.166 -27 -50.499s-22.667 -31.166 -36 -44.499s-26.5 -21.5 -39.5 -24.5s-26.167 -4.5 -39.5 -4.5c-14.667 0 -27.667 2.83301 -39 8.5s-17.333 14.167 -18 25.5c0.666992 4.66699 1.16699 9.83398 1.5 15.501
s1 13.667 2 24s2.66699 24 5 41l9.5 67.5l15.5 104l23.5 150l-199 -4l-74 -480c-4.66699 -31.333 -12.334 -59.833 -23.001 -85.5s-25 -47.834 -43 -66.501s-40 -33.167 -66 -43.5s-57 -15.5 -93 -15.5h-36l11 61l31 -1c7.33301 -1.33301 15.166 -1 23.499 1
s18.166 4.66699 29.499 8c14 5.33301 25.667 13.166 35 23.499s17.333 22.166 24 35.499s12 27.833 16 43.5s7.33301 32.167 10 49.5z" />
    <glyph glyph-name="threesuperior" unicode="&#xb3;" horiz-adv-x="559"
d="M507 134l8.99902 -7.50098l9 -7.5c-7.33301 -17.333 -16.333 -34.166 -27 -50.499s-22.667 -31.166 -36 -44.499c-12.667 -13.333 -25.667 -21.5 -39 -24.5s-26.666 -4.5 -39.999 -4.5c-14.667 0 -27.667 2.83301 -39 8.5s-17.333 14.167 -18 25.5
c0 3.33301 0.333008 7.5 1 12.5s2 14.333 4 28l9 59.5l17 107.5l27 172l39 252.5c0.666992 7.33301 0.833984 13.5 0.500977 18.5s-2.16602 9 -5.49902 12s-8.83301 5.33301 -16.5 7s-18.167 2.83398 -31.5 3.50098c-7.33301 1.33301 -15 1 -23 -1s-17.667 -4.66699 -29 -8
c-14 -5.33301 -26 -13.166 -36 -23.499s-18.167 -22.166 -24.5 -35.499s-11.5 -28 -15.5 -44s-7.33301 -32.333 -10 -49l-7 -43h109l-10 -68h-110l-74 -480c-4.66699 -31.333 -12.334 -59.833 -23.001 -85.5s-25 -47.834 -43 -66.501s-40 -33.167 -66 -43.5
s-57 -15.5 -93 -15.5h-36l11 61l31 -1c7.33301 -1.33301 15.166 -1 23.499 1s18.166 4.66699 29.499 8c14 5.33301 25.667 13.166 35 23.499s17.333 22.166 24 35.499s12 27.833 16 43.5s7.33301 32.167 10 49.5l72 470h-99l10 38l100 30l9 53
c4.66699 30.667 12.334 58.834 23.001 84.501s25 47.667 43 66s40.167 32.666 66.5 42.999s57.5 16.166 93.5 17.499l58 2v-35l86 23l-104 -672c0.666992 -8 1.66699 -14.167 3 -18.5s5.33301 -6.5 12 -6.5c4 0 9 2.66699 15 8s12.5 12 19.5 20s14 16.667 21 26z" />
    <glyph glyph-name="acute" unicode="&#xb4;"
d="M292 577l-49 21l107 163l80 -39z" />
    <glyph glyph-name="paragraph" unicode="&#xb6;" horiz-adv-x="574"
d="M418 -92l-70.002 0.00195312l113 730h-86l-116 -730h-70l64 412c-26.667 0 -52.167 3.16699 -76.5 9.5s-45.166 16.666 -62.499 30.999s-30.166 33.166 -38.499 56.499s-9.83301 52 -4.5 86c5.33301 34.667 16 64 32 88s35.5 43.5 58.5 58.5s48.833 25.833 77.5 32.5
s58.667 10 90 10h212z" />
    <glyph glyph-name="periodcentered" unicode="&#xb7;" horiz-adv-x="130"
d="M150 269c-3.33301 -22 -10.5 -37.499 -21.5 -46.499s-27.5 -13.5 -49.5 -13.5c-23.333 0 -39 4.66699 -47 14s-10.333 24.666 -7 45.999s10.5 36.666 21.5 45.999s27.833 14 50.5 14c22 0 37.167 -4.66699 45.5 -14s10.833 -24.666 7.5 -45.999z" />
    <glyph glyph-name="periodcentered" unicode="&#x2219;" horiz-adv-x="130"
d="M150 269c-3.33301 -22 -10.5 -37.499 -21.5 -46.499s-27.5 -13.5 -49.5 -13.5c-23.333 0 -39 4.66699 -47 14s-10.333 24.666 -7 45.999s10.5 36.666 21.5 45.999s27.833 14 50.5 14c22 0 37.167 -4.66699 45.5 -14s10.833 -24.666 7.5 -45.999z" />
    <glyph glyph-name="cedilla" unicode="&#xb8;"
d="M325 -132c-4 -24 -13.0078 -43.498 -27.0078 -58.498s-30.333 -27 -49 -36s-37.834 -15 -57.501 -18s-37.167 -4.5 -52.5 -4.5c0 -0.666992 0.833008 1.66602 2.5 6.99902s3.83398 11.166 6.50098 17.499s4.83398 12.333 6.50098 18l2.5 8.5l23 2.5
c9.33301 1 18.833 3.33301 28.5 7s18.334 9.16699 26.001 16.5s12.5 17 14.5 29c2 10 1 18 -3 24s-9.16699 10.5 -15.5 13.5s-13.166 4.83301 -20.499 5.5s-13.666 1 -18.999 1c-2 0 -4.16699 -0.166992 -6.5 -0.5s-4.5 -0.5 -6.5 -0.5h-8l16 57c5.33301 0.666992 10 1 14 1
h15c8.66699 0 19.834 -0.5 33.501 -1.5s26.834 -4.33301 39.501 -10s22.834 -14.5 30.501 -26.5s9.83398 -29.333 6.50098 -52z" />
    <glyph glyph-name="ordmasculine" unicode="&#xba;" horiz-adv-x="316"
d="M366 428c-3.33301 -21.333 -9.49805 -41.333 -18.498 -60s-20.5 -35.334 -34.5 -50.001s-30.333 -26.167 -49 -34.5s-39 -12.5 -61 -12.5c-24 0 -44.5 4 -61.5 12s-30.5 19.167 -40.5 33.5s-16.833 31 -20.5 50s-3.83398 39.5 -0.500977 61.5
c3.33301 20.667 10 40.5 20 59.5s22.5 35.833 37.5 50.5s32.167 26.334 51.5 35.001s40 13 62 13c23.333 0 43.166 -4.16699 59.499 -12.5s29.166 -19.5 38.499 -33.5s15.333 -30.667 18 -50s2.33398 -40 -0.999023 -62zM311.002 428c2 13.333 2.83105 27 2.49805 41
s-2.83301 26.833 -7.5 38.5s-12 21.167 -22 28.5s-23 11 -39 11s-30.333 -3.66699 -43 -11s-23.5 -16.833 -32.5 -28.5s-16.5 -24.5 -22.5 -38.5s-10 -27.667 -12 -41c-2 -14 -2.33301 -28 -1 -42s4.83301 -26.667 10.5 -38s13.834 -20.666 24.501 -27.999
s24.334 -11 41.001 -11c16 0 29.833 3.66699 41.5 11s21.5 16.666 29.5 27.999s14.5 24 19.5 38s8.5 28 10.5 42z" />
    <glyph glyph-name="guillemotright" unicode="&#xbb;" horiz-adv-x="368"
d="M235 79l-36 23l146 172l-83 162l42 23l125 -185zM65 79l-36 23l146 172l-83 162l42 23l125 -185z" />
    <glyph glyph-name="onequarter" unicode="&#xbc;" horiz-adv-x="849"
d="M131 430h-98.999l10 38l100 30l9 53c4.66699 30.667 12.334 59 23.001 85s25 48.333 43 67s40.167 33.167 66.5 43.5s57.5 15.5 93.5 15.5h66l-24 -148h-26l-23 88c-7.33301 1.33301 -15 1 -23 -1s-17.667 -4.66699 -29 -8c-14 -5.33301 -26 -13.166 -36 -23.499
s-18.167 -22.166 -24.5 -35.499s-11.5 -28 -15.5 -44s-7.33301 -32.333 -10 -49l-7 -43h109l-3 -30l101 30l9 53c4.66699 30.667 12.334 58.834 23.001 84.501s25 47.667 43 66s40.167 32.666 66.5 42.999s57.5 16.166 93.5 17.499l58 2v-35l86 23l-104 -672
c0.666992 -8 1.66699 -14.167 3 -18.5s5.33301 -6.5 12 -6.5c4 0 9 2.66699 15 8s12.5 12 19.5 20s14 16.667 21 26l19.5 25l9 -7.5l9 -7.5c-7.33301 -17.333 -16.333 -34.166 -27 -50.499s-22.667 -31.166 -36 -44.499c-12.667 -13.333 -25.667 -21.5 -39 -24.5
s-26.666 -4.5 -39.999 -4.5c-14.667 0 -27.667 2.83301 -39 8.5s-17.333 14.167 -18 25.5c0 3.33301 0.333008 7.5 1 12.5s2 14.333 4 28l9 59.5l17 107.5l27 172l39 252.5c0.666992 7.33301 0.833984 13.5 0.500977 18.5s-2.16602 9 -5.49902 12s-8.83301 5.33301 -16.5 7
s-18.167 2.83398 -31.5 3.50098c-7.33301 1.33301 -15 1 -23 -1s-17.667 -4.66699 -29 -8c-14 -5.33301 -26 -13.166 -36 -23.499s-18.167 -22.166 -24.5 -35.499s-11.5 -28 -15.5 -44s-7.33301 -32.333 -10 -49l-7 -43h109l-10 -68h-110l-74 -480
c-4.66699 -31.333 -12.334 -59.833 -23.001 -85.5s-25 -47.834 -43 -66.501s-40 -33.167 -66 -43.5s-57 -15.5 -93 -15.5h-36l11 61l31 -1c7.33301 -1.33301 15.166 -1 23.499 1s18.166 4.66699 29.499 8c14 5.33301 25.667 13.166 35 23.499s17.333 22.166 24 35.499
s12 27.833 16 43.5s7.33301 32.167 10 49.5l72 470h-207l-74 -480c-4.66699 -31.333 -12.334 -59.833 -23.001 -85.5s-25 -47.834 -43 -66.501s-40 -33.167 -66 -43.5s-57 -15.5 -93 -15.5h-36l11 61l31 -1c7.33301 -1.33301 15.166 -1 23.499 1s18.166 4.66699 29.499 8
c14 5.33301 25.667 13.166 35 23.499s17.333 22.166 24 35.499s12 27.833 16 43.5s7.33301 32.167 10 49.5z" />
    <glyph glyph-name="onehalf" unicode="&#xbd;" horiz-adv-x="627"
d="M431 430l-216.996 0.00195312l-74 -480c-4.66699 -31.333 -12.334 -59.833 -23.001 -85.5s-25 -47.834 -43 -66.501s-40 -33.167 -66 -43.5s-57 -15.5 -93 -15.5h-36l11 61l31 -1c7.33301 -1.33301 15.166 -1 23.499 1s18.166 4.66699 29.499 8
c14 5.33301 25.667 13.166 35 23.499s17.333 22.166 24 35.499s12 27.833 16 43.5s7.33301 32.167 10 49.5l72 470h-99l10 38l100 30l9 53c4.66699 30.667 12.334 59 23.001 85s25 48.333 43 67s40.167 33.167 66.5 43.5s57.5 15.5 93.5 15.5h66l-24 -148h-26l-23 88
c-7.33301 1.33301 -15 1 -23 -1s-17.667 -4.66699 -29 -8c-14 -5.33301 -26 -13.166 -36 -23.499s-18.167 -22.166 -24.5 -35.499s-11.5 -28 -15.5 -44s-7.33301 -32.333 -10 -49l-7 -43h109l-4 -32l112 32l9 53c4.66699 30.667 12.334 59 23.001 85s25 48.333 43 67
s40.167 33.167 66.5 43.5s57.5 15.5 93.5 15.5h66l-24 -148h-26l-23 88c-7.33301 1.33301 -15 1 -23 -1s-17.667 -4.66699 -29 -8c-14 -5.33301 -26 -13.166 -36 -23.499s-18.167 -22.166 -24.5 -35.499s-11.5 -28 -15.5 -44s-7.33301 -32.333 -10 -49l-7 -43h109l-10 -68
h-110l-74 -480c-4.66699 -31.333 -12.334 -59.833 -23.001 -85.5s-25 -47.834 -43 -66.501s-40 -33.167 -66 -43.5s-57 -15.5 -93 -15.5h-36l11 61l31 -1c7.33301 -1.33301 15.166 -1 23.499 1s18.166 4.66699 29.499 8c14 5.33301 25.667 13.166 35 23.499
s17.333 22.166 24 35.499s12 27.833 16 43.5s7.33301 32.167 10 49.5z" />
    <glyph glyph-name="threequarters" unicode="&#xbe;" horiz-adv-x="881"
d="M427 430h-212.994l-74 -480c-4.66699 -31.333 -12.334 -59.833 -23.001 -85.5s-25 -47.834 -43 -66.501s-40 -33.167 -66 -43.5s-57 -15.5 -93 -15.5h-36l11 61l31 -1c7.33301 -1.33301 15.166 -1 23.499 1s18.166 4.66699 29.499 8c14 5.33301 25.667 13.166 35 23.499
s17.333 22.166 24 35.499s12 27.833 16 43.5s7.33301 32.167 10 49.5l72 470h-99l10 38l100 30l9 53c4.66699 30.667 12.334 59 23.001 85s25 48.333 43 67s40.167 33.167 66.5 43.5s57.5 15.5 93.5 15.5h66l-24 -148h-26l-23 88c-7.33301 1.33301 -15 1 -23 -1
s-17.667 -4.66699 -29 -8c-14 -5.33301 -26 -13.166 -36 -23.499s-18.167 -22.166 -24.5 -35.499s-11.5 -28 -15.5 -44s-7.33301 -32.333 -10 -49l-7 -43h109l-4 -29l108 29l9 53c4.66699 30.667 12.334 59 23.001 85s25 48.333 43 67s40.167 33.167 66.5 43.5
s57.5 15.5 93.5 15.5h66l-24 -148h-26l-23 88c-7.33301 1.33301 -15 1 -23 -1s-17.667 -4.66699 -29 -8c-14 -5.33301 -26 -13.166 -36 -23.499s-18.167 -22.166 -24.5 -35.499s-11.5 -28 -15.5 -44s-7.33301 -32.333 -10 -49l-7 -43h158c6.66699 0 12.667 1.33301 18 4
s10.333 5.66699 15 9s9.66699 6.33301 15 9s11.666 4 18.999 4c14.667 0 27.667 -3.83301 39 -11.5s17.666 -17.167 18.999 -28.5v-13c0 -4 -0.5 -10.667 -1.5 -20s-2.66699 -22.333 -5 -39s-5.83301 -39.334 -10.5 -68.001l-18 -106.5l-26 -154.5
c0.666992 -8 1.5 -14.167 2.5 -18.5s4.83301 -6.5 11.5 -6.5c4 0 9 2.66699 15 8s12.667 12 20 20s14.5 16.667 21.5 26l19.5 25l9 -7.5l9 -7.5c-7.33301 -17.333 -16.333 -34.166 -27 -50.499s-22.667 -31.166 -36 -44.499s-26.5 -21.5 -39.5 -24.5
s-26.167 -4.5 -39.5 -4.5c-14.667 0 -27.667 2.83301 -39 8.5s-17.333 14.167 -18 25.5c0 4.66699 0.333008 9.83398 1 15.501s1.5 13.667 2.5 24s2.66699 24 5 41l9.5 67.5l15.5 104l23.5 150l-199 -4l-74 -480c-4.66699 -31.333 -12.334 -59.833 -23.001 -85.5
s-25 -47.834 -43 -66.501s-40 -33.167 -66 -43.5s-57 -15.5 -93 -15.5h-36l11 61l31 -1c7.33301 -1.33301 15.166 -1 23.499 1s18.166 4.66699 29.499 8c14 5.33301 25.667 13.166 35 23.499s17.333 22.166 24 35.499s12 27.833 16 43.5s7.33301 32.167 10 49.5z" />
    <glyph glyph-name="questiondown" unicode="&#xbf;" horiz-adv-x="411"
d="M31 -36c4.66699 28.667 13.001 52.999 25.001 72.999s26 37.333 42 52s33 27.834 51 39.501s34.833 23.5 50.5 35.5s29.167 25.167 40.5 39.5s18.666 31.833 21.999 52.5l8 57h86l-8 -52c-4 -26.667 -12 -49.167 -24 -67.5s-26 -34.333 -42 -48
s-32.833 -26.167 -50.5 -37.5s-34.334 -23.5 -50.001 -36.5s-29.334 -28 -41.001 -45s-19.5 -37.5 -23.5 -61.5c-3.33301 -19.333 -2.33301 -35.833 3 -49.5s13.5 -25.167 24.5 -34.5s24 -16.166 39 -20.499s31.167 -6.5 48.5 -6.5c21.333 0 43 3 65 9
c5.33301 2 10.333 3.66699 15 5l68 128h28l-27 -169l-43.5 -15c-13.667 -4.66699 -27.167 -8.66699 -40.5 -12s-26.666 -6 -39.999 -8s-27.666 -3 -42.999 -3c-27.333 0 -53.333 2.66699 -78 8s-45.667 14.666 -63 27.999s-30 31.333 -38 54s-9.33301 51 -4 85z
M271.001 441.999c3.33301 22 10.333 37.499 21 46.499s27 13.5 49 13.5c23.333 0 39.166 -4.66699 47.499 -14s10.833 -24.666 7.5 -45.999s-10.666 -36.666 -21.999 -45.999s-28.333 -14 -51 -14c-22 0 -37 4.66699 -45 14s-10.333 24.666 -7 45.999z" />
    <glyph glyph-name="Agrave" unicode="&#xc0;" horiz-adv-x="597"
d="M423 739l-138 145l80 39l107 -163zM20 64l365 628h82l153 -627l73 -39l-3 -26h-255l3 26l86 39l-37 165h-285v-2l-87 -163l74 -39l-3 -26h-253l5 26zM423 502c-2 7.33301 -4 16.5 -6 27.5s-3.83301 22 -5.5 33s-3 20.667 -4 29s-1.5 13.5 -1.5 15.5
c-0.666992 -0.666992 -2.5 -4.5 -5.5 -11.5s-7 -15.667 -12 -26l-16 -33.5c-5.66699 -12 -11.5 -23 -17.5 -33l-112 -201h227z" />
    <glyph glyph-name="Aacute" unicode="&#xc1;" horiz-adv-x="597"
d="M404 746l-49 21l103 163l80 -39zM20 64l365 628h82l153 -627l73 -39l-3 -26h-255l3 26l86 39l-37 165h-285v-2l-87 -163l74 -39l-3 -26h-253l5 26zM423 502c-2 7.33301 -4 16.5 -6 27.5s-3.83301 22 -5.5 33s-3 20.667 -4 29s-1.5 13.5 -1.5 15.5
c-0.666992 -0.666992 -2.5 -4.5 -5.5 -11.5s-7 -15.667 -12 -26l-16 -33.5c-5.66699 -12 -11.5 -23 -17.5 -33l-112 -201h227z" />
    <glyph glyph-name="Acircumflex" unicode="&#xc2;" horiz-adv-x="597"
d="M511 754l-59 113l-100 -112l-46 15l118 155h76l63 -155zM20 64l365 628h82l153 -627l73 -39l-3 -26h-255l3 26l86 39l-37 165h-285v-2l-87 -163l74 -39l-3 -26h-253l5 26zM423 502c-2 7.33301 -4 16.5 -6 27.5s-3.83301 22 -5.5 33s-3 20.667 -4 29s-1.5 13.5 -1.5 15.5
c-0.666992 -0.666992 -2.5 -4.5 -5.5 -11.5s-7 -15.667 -12 -26l-16 -33.5c-5.66699 -12 -11.5 -23 -17.5 -33l-112 -201h227z" />
    <glyph glyph-name="Atilde" unicode="&#xc3;" horiz-adv-x="597"
d="M591 850c-4 -13.333 -8.83594 -26 -14.5029 -38s-12.5 -22.667 -20.5 -32s-17.5 -16.833 -28.5 -22.5s-24.167 -8.5 -39.5 -8.5c-18.667 0 -34 2.33301 -46 7s-22.833 10 -32.5 16s-18.667 11.333 -27 16s-18.166 7 -29.499 7c-13.333 0 -24.666 -5.66699 -33.999 -17
s-15 -23 -17 -35l-49 12c3.33301 12.667 7.83301 25 13.5 37s12.667 22.667 21 32s18.166 16.833 29.499 22.5s24.333 8.5 39 8.5c18.667 0 34.5 -2.33301 47.5 -7s24.5 -10 34.5 -16s19.333 -11.333 28 -16s17.667 -7 27 -7c14.667 0 25.834 5 33.501 15
s13.834 22.667 18.501 38l46 -12v0zM19.9971 64l365 628h82l153 -627l73 -39l-3 -26h-255l3 26l86 39l-37 165h-285v-2l-87 -163l74 -39l-3 -26h-253l5 26zM422.997 502c-2 7.33301 -4 16.5 -6 27.5s-3.83301 22 -5.5 33s-3 20.667 -4 29s-1.5 13.5 -1.5 15.5
c-0.666992 -0.666992 -2.5 -4.5 -5.5 -11.5s-7 -15.667 -12 -26l-16 -33.5c-5.66699 -12 -11.5 -23 -17.5 -33l-112 -201h227z" />
    <glyph glyph-name="Adieresis" unicode="&#xc4;" horiz-adv-x="597"
d="M375 815c0 -37.333 -20.667 -56 -62 -56c-42 0 -63 18 -63 54c0 36.667 21 55 63 55c41.333 0 62 -17.667 62 -53zM608 813c0 -37.333 -20.667 -56 -62 -56c-42 0 -63 18 -63 54c0 36.667 21 55 63 55c41.333 0 62 -17.667 62 -53zM20 64l365 628h82l153 -627l73 -39
l-3 -26h-255l3 26l86 39l-37 165h-285v-2l-87 -163l74 -39l-3 -26h-253l5 26zM423 502c-2 7.33301 -4 16.5 -6 27.5s-3.83301 22 -5.5 33s-3 20.667 -4 29s-1.5 13.5 -1.5 15.5c-0.666992 -0.666992 -2.5 -4.5 -5.5 -11.5s-7 -15.667 -12 -26l-16 -33.5
c-5.66699 -12 -11.5 -23 -17.5 -33l-112 -201h227z" />
    <glyph glyph-name="Aring" unicode="&#xc5;" horiz-adv-x="597"
d="M548 844c0 -29.333 -9.83203 -53.666 -29.499 -72.999s-45.5 -29 -77.5 -29c-30.667 0 -56.334 8.83301 -77.001 26.5s-31 42.834 -31 75.501c0 29.333 10.167 53.666 30.5 72.999s46.5 29 78.5 29s57.667 -8.83301 77 -26.5s29 -42.834 29 -75.501zM498.001 844
c0 20.667 -5.33105 36 -15.998 46s-24.334 15 -41.001 15c-16 0 -29.667 -5.33301 -41 -16s-17 -25.667 -17 -45c0 -20.667 5.5 -36 16.5 -46s24.833 -15 41.5 -15c17.333 0 31.166 5.83301 41.499 17.5s15.5 26.167 15.5 43.5zM20.0029 64l365 628h82l153 -627l73 -39
l-3 -26h-255l3 26l86 39l-37 165h-285v-2l-87 -163l74 -39l-3 -26h-253l5 26zM423.003 502c-2 7.33301 -4 16.5 -6 27.5s-3.83301 22 -5.5 33s-3 20.667 -4 29s-1.5 13.5 -1.5 15.5c-0.666992 -0.666992 -2.5 -4.5 -5.5 -11.5s-7 -15.667 -12 -26l-16 -33.5
c-5.66699 -12 -11.5 -23 -17.5 -33l-112 -201h227z" />
    <glyph glyph-name="AE" unicode="&#xc6;" horiz-adv-x="741"
d="M21 64l366 628h429l-30 -187h-25l-31 114h-209l-36 -232h146l50 94h22l-41 -259h-22l-20 92h-147l-38 -240h219l81 114h25l-45 -188h-470l4 26l94 37l40 252h-130l-2 -2l-135 -248l74 -39l-4 -26h-253l5 26zM431 629l-139 -242h102l38 242h-1z" />
    <glyph glyph-name="Ccedilla" unicode="&#xc7;" horiz-adv-x="550"
d="M441 -132c0 -24 -5.83398 -43.498 -17.501 -58.498s-26 -27 -43 -36s-35.333 -15 -55 -18s-37.167 -4.5 -52.5 -4.5c0 -0.666992 0.5 1.66602 1.5 6.99902s2.16699 11.166 3.5 17.499s2.5 12.333 3.5 18l1.5 8.5l23 2.5c9.33301 1 18.5 3.33301 27.5 7
s16.833 9.16699 23.5 16.5s10 17 10 29c0 10 -2.33301 18 -7 24s-10.5 10.5 -17.5 13.5s-14.167 4.83301 -21.5 5.5s-13.666 1 -18.999 1c-2 0 -4.16699 -0.166992 -6.5 -0.5s-4.5 -0.5 -6.5 -0.5h-8l7 57c5.33301 0.666992 10 1 14 1h15c8.66699 0 20 -0.5 34 -1.5
s27.667 -4.33301 41 -10s24.833 -14.5 34.5 -26.5s14.5 -29.333 14.5 -52zM516.999 41.002c-2.66699 -2 -6.00098 -3.66992 -10.001 -5.00293c-30.667 -14 -59.5 -25.333 -86.5 -34s-56.5 -13 -88.5 -13c-48 0 -92 8 -132 24s-73.5 39 -100.5 69s-46.5 66.5 -58.5 109.5
s-14 91.167 -6 144.5c8 52 24.333 100.333 49 145s55.167 83.5 91.5 116.5s77.5 58.833 123.5 77.5s94.667 28 146 28c19.333 0 36.333 -0.333008 51 -1s28.5 -2.33398 41.5 -5.00098s26 -6.16699 39 -10.5s27.833 -10.166 44.5 -17.499l-1 -2h2l-27 -173h-28l-28 128
c-14 4 -30.333 6.83301 -49 8.5s-38.667 2.5 -60 2.5c-40.667 0 -78.167 -7.83301 -112.5 -23.5s-64.5 -36.667 -90.5 -63s-47.333 -57.166 -64 -92.499s-28 -72.666 -34 -111.999c-6.66699 -41.333 -6.5 -79.166 0.5 -113.499s20.333 -64 40 -89s44.834 -44.5 75.501 -58.5
s66.667 -21 108 -21c20 0 36.667 1.83301 50 5.5s28 8.16699 44 13.5l83 127h26z" />
    <glyph glyph-name="Egrave" unicode="&#xc8;" horiz-adv-x="511"
d="M324 737l-138 145l80 39l107 -163zM456 0h-470l3 26l95 37l88 566l-83 37l3 26h463l-29 -187h-25l-31 114h-209l-36 -232h146l50 94h22l-40 -259h-22l-21 92h-147l-37 -240h219l81 114h25z" />
    <glyph glyph-name="Eacute" unicode="&#xc9;" horiz-adv-x="511"
d="M313 737l-49 21l103 163l80 -39zM456 0h-470l3 26l95 37l88 566l-83 37l3 26h463l-29 -187h-25l-31 114h-209l-36 -232h146l50 94h22l-40 -259h-22l-21 92h-147l-37 -240h219l81 114h25z" />
    <glyph glyph-name="Ecircumflex" unicode="&#xca;" horiz-adv-x="511"
d="M446 750l-59 113l-100 -112l-46 15l118 155h76l63 -155zM456 0h-470l3 26l95 37l88 566l-83 37l3 26h463l-29 -187h-25l-31 114h-209l-36 -232h146l50 94h22l-40 -259h-22l-21 92h-147l-37 -240h219l81 114h25z" />
    <glyph glyph-name="Edieresis" unicode="&#xcb;" horiz-adv-x="511"
d="M235 820c0 -37.333 -20.667 -56 -62 -56c-42 0 -63 18 -63 54c0 36.667 21 55 63 55c41.333 0 62 -17.667 62 -53zM468 818c0 -37.333 -20.667 -56 -62 -56c-42 0 -63 18 -63 54c0 36.667 21 55 63 55c41.333 0 62 -17.667 62 -53zM456 0h-470l3 26l95 37l88 566l-83 37
l3 26h463l-29 -187h-25l-31 114h-209l-36 -232h146l50 94h22l-40 -259h-22l-21 92h-147l-37 -240h219l81 114h25z" />
    <glyph glyph-name="Igrave" unicode="&#xcc;" horiz-adv-x="311"
d="M213 738l-134 145l80 39l103 -163zM172 63l82 -37l-3 -26h-265l3 26l95 37l88 566l-83 36l3 26h265l-3 -26l-94 -36z" />
    <glyph glyph-name="Iacute" unicode="&#xcd;" horiz-adv-x="311"
d="M231 738l-49 21l107 163l80 -39zM172 63l82 -37l-3 -26h-265l3 26l95 37l88 566l-83 36l3 26h265l-3 -26l-94 -36z" />
    <glyph glyph-name="Icircumflex" unicode="&#xce;" horiz-adv-x="311"
d="M310 752l-59 113l-100 -112l-46 15l118 155h76l63 -155zM172 63l82 -37l-3 -26h-265l3 26l95 37l88 566l-83 36l3 26h265l-3 -26l-94 -36z" />
    <glyph glyph-name="Idieresis" unicode="&#xcf;" horiz-adv-x="311"
d="M190 833c0 -37.333 -20.667 -56 -62 -56c-42 0 -63 18 -63 54c0 36.667 21 55 63 55c41.333 0 62 -17.667 62 -53zM423 831c0 -37.333 -20.667 -56 -62 -56c-42 0 -63 18 -63 54c0 36.667 21 55 63 55c41.333 0 62 -17.667 62 -53zM172 63l82 -37l-3 -26h-265l3 26l95 37
l88 566l-83 36l3 26h265l-3 -26l-94 -36z" />
    <glyph glyph-name="Eth" unicode="&#xd0;" horiz-adv-x="737"
d="M134 698l291.997 0.000976562c54.667 0 103.667 -5.83301 147 -17.5s79.333 -30.334 108 -56.001s48.834 -58.834 60.501 -99.501s12.834 -90 3.50098 -148c-9.33301 -59.333 -27.166 -112.166 -53.499 -158.499s-59.5 -85.833 -99.5 -118.5s-85.333 -57.5 -136 -74.5
s-104.667 -25.5 -162 -25.5c-42.667 -0 -87.667 -0.166992 -135 -0.5s-92 0.166992 -134 1.5l4 26l95 37l39 254h-84l12 73h84l38 244l-83 37zM250.997 318.001l-38.9971 -250c12 -0.666992 27 -1 45 -1h44c46.667 0 89.667 6.5 129 19.5s74.166 32.333 104.499 58
s55.666 57.5 75.999 95.5s34.5 82 42.5 132c7.33301 48 6.5 88.333 -2.5 121s-25 59 -48 79s-52.333 34.5 -88 43.5s-76.5 13.5 -122.5 13.5c-8.66699 0 -18.334 -0.166992 -29.001 -0.5s-20.667 -0.5 -30 -0.5h-33l-37 -237h152l-12 -73h-152z" />
    <glyph glyph-name="Ntilde" unicode="&#xd1;" horiz-adv-x="650"
d="M629 850c-4 -13.333 -8.83594 -26 -14.5029 -38s-12.5 -22.667 -20.5 -32s-17.5 -16.833 -28.5 -22.5s-24.167 -8.5 -39.5 -8.5c-18.667 0 -34 2.33301 -46 7s-22.833 10 -32.5 16s-18.667 11.333 -27 16s-18.166 7 -29.499 7c-13.333 0 -24.666 -5.66699 -33.999 -17
s-15 -23 -17 -35l-49 12c3.33301 12.667 7.83301 25 13.5 37s12.667 22.667 21 32s18.166 16.833 29.499 22.5s24.333 8.5 39 8.5c18.667 0 34.5 -2.33301 47.5 -7s24.5 -10 34.5 -16s19.333 -11.333 28 -16s17.667 -7 27 -7c14.667 0 25.834 5 33.501 15
s13.834 22.667 18.501 38l46 -12v0zM81.9971 62l89.002 567l-82 37l3 26l186 -1l223 -463c6 -13.333 11.667 -27.166 17 -41.499l14.5 -40c4.33301 -12.333 7.83301 -22.833 10.5 -31.5s4 -14 4 -16c0 0.666992 0.833008 7 2.5 19l5.5 41.5c2 15.667 4.16699 31.5 6.5 47.5
l5.5 37l60 385l-81 37l3 26h254l-3 -26l-95 -37l-97 -629h-102l-219 464c-6.66699 13.333 -12.834 27.166 -18.501 41.499s-10.5 27.5 -14.5 39.5l-10 31c-2.66699 8.66699 -4.33398 13.667 -5.00098 15l-1.5 -13.5l-3.5 -31.5c-1.33301 -12 -2.83301 -24.5 -4.5 -37.5
s-3.16699 -23.5 -4.5 -31.5l-65 -414l82 -37l-3 -26h-253l3 26z" />
    <glyph glyph-name="Ograve" unicode="&#xd2;" horiz-adv-x="583"
d="M455 746l-138 145l80 39l107 -163zM701 345c-8 -52 -23.666 -99.666 -46.999 -142.999s-52 -80.833 -86 -112.5s-72.333 -56.334 -115 -74.001s-87 -26.5 -133 -26.5c-48 0 -91.333 8.5 -130 25.5s-70.667 41 -96 72s-43.333 68.5 -54 112.5s-12 92.667 -4 146
c8 52 24.667 99.833 50 143.5s56.166 81.5 92.499 113.5s76.333 56.833 120 74.5s88.167 26.5 133.5 26.5c48 0 90.667 -8.5 128 -25.5s67.833 -41.167 91.5 -72.5s40 -69 49 -113s9.16699 -93 0.5 -147zM610.001 343.001c6 40 6.33594 77.6689 1.00293 113.002
s-16 66 -32 92s-37.5 46.667 -64.5 62s-59.5 23 -97.5 23c-34 0 -66.833 -6.83301 -98.5 -20.5s-60.334 -33 -86.001 -58s-47.667 -55 -66 -90s-30.833 -74.167 -37.5 -117.5c-6 -41.333 -5.83301 -79.5 0.5 -114.5s18.333 -65.333 36 -91s40.5 -45.834 68.5 -60.501
s60.333 -22 97 -22c36 0 69.667 7.5 101 22.5s59.166 35.333 83.499 61s44.666 55.667 60.999 90s27.5 71.166 33.5 110.499z" />
    <glyph glyph-name="Oacute" unicode="&#xd3;" horiz-adv-x="583"
d="M466 741l-49 21l103 163l80 -39zM701 345c-8 -52 -23.666 -99.666 -46.999 -142.999s-52 -80.833 -86 -112.5s-72.333 -56.334 -115 -74.001s-87 -26.5 -133 -26.5c-48 0 -91.333 8.5 -130 25.5s-70.667 41 -96 72s-43.333 68.5 -54 112.5s-12 92.667 -4 146
c8 52 24.667 99.833 50 143.5s56.166 81.5 92.499 113.5s76.333 56.833 120 74.5s88.167 26.5 133.5 26.5c48 0 90.667 -8.5 128 -25.5s67.833 -41.167 91.5 -72.5s40 -69 49 -113s9.16699 -93 0.5 -147zM610.001 343.001c6 40 6.33594 77.6689 1.00293 113.002
s-16 66 -32 92s-37.5 46.667 -64.5 62s-59.5 23 -97.5 23c-34 0 -66.833 -6.83301 -98.5 -20.5s-60.334 -33 -86.001 -58s-47.667 -55 -66 -90s-30.833 -74.167 -37.5 -117.5c-6 -41.333 -5.83301 -79.5 0.5 -114.5s18.333 -65.333 36 -91s40.5 -45.834 68.5 -60.501
s60.333 -22 97 -22c36 0 69.667 7.5 101 22.5s59.166 35.333 83.499 61s44.666 55.667 60.999 90s27.5 71.166 33.5 110.499z" />
    <glyph glyph-name="Ocircumflex" unicode="&#xd4;" horiz-adv-x="583"
d="M537 756l-59 113l-100 -112l-46 15l118 155h76l63 -155zM701 345c-8 -52 -23.666 -99.666 -46.999 -142.999s-52 -80.833 -86 -112.5s-72.333 -56.334 -115 -74.001s-87 -26.5 -133 -26.5c-48 0 -91.333 8.5 -130 25.5s-70.667 41 -96 72s-43.333 68.5 -54 112.5
s-12 92.667 -4 146c8 52 24.667 99.833 50 143.5s56.166 81.5 92.499 113.5s76.333 56.833 120 74.5s88.167 26.5 133.5 26.5c48 0 90.667 -8.5 128 -25.5s67.833 -41.167 91.5 -72.5s40 -69 49 -113s9.16699 -93 0.5 -147zM610.001 343.001
c6 40 6.33594 77.6689 1.00293 113.002s-16 66 -32 92s-37.5 46.667 -64.5 62s-59.5 23 -97.5 23c-34 0 -66.833 -6.83301 -98.5 -20.5s-60.334 -33 -86.001 -58s-47.667 -55 -66 -90s-30.833 -74.167 -37.5 -117.5c-6 -41.333 -5.83301 -79.5 0.5 -114.5
s18.333 -65.333 36 -91s40.5 -45.834 68.5 -60.501s60.333 -22 97 -22c36 0 69.667 7.5 101 22.5s59.166 35.333 83.499 61s44.666 55.667 60.999 90s27.5 71.166 33.5 110.499z" />
    <glyph glyph-name="Otilde" unicode="&#xd5;" horiz-adv-x="583"
d="M630 863c-4 -13.333 -8.83594 -26 -14.5029 -38s-12.5 -22.667 -20.5 -32s-17.5 -16.833 -28.5 -22.5s-24.167 -8.5 -39.5 -8.5c-18.667 0 -34 2.33301 -46 7s-22.833 10 -32.5 16s-18.667 11.333 -27 16s-18.166 7 -29.499 7c-13.333 0 -24.666 -5.66699 -33.999 -17
s-15 -23 -17 -35l-49 12c3.33301 12.667 7.83301 25 13.5 37s12.667 22.667 21 32s18.166 16.833 29.499 22.5s24.333 8.5 39 8.5c18.667 0 34.5 -2.33301 47.5 -7s24.5 -10 34.5 -16s19.333 -11.333 28 -16s17.667 -7 27 -7c14.667 0 25.834 5 33.501 15
s13.834 22.667 18.501 38l46 -12v0zM700.997 345c-8 -52 -23.666 -99.666 -46.999 -142.999s-52 -80.833 -86 -112.5s-72.333 -56.334 -115 -74.001s-87 -26.5 -133 -26.5c-48 0 -91.333 8.5 -130 25.5s-70.667 41 -96 72s-43.333 68.5 -54 112.5s-12 92.667 -4 146
c8 52 24.667 99.833 50 143.5s56.166 81.5 92.499 113.5s76.333 56.833 120 74.5s88.167 26.5 133.5 26.5c48 0 90.667 -8.5 128 -25.5s67.833 -41.167 91.5 -72.5s40 -69 49 -113s9.16699 -93 0.5 -147zM609.998 343.001c6 40 6.33594 77.6689 1.00293 113.002
s-16 66 -32 92s-37.5 46.667 -64.5 62s-59.5 23 -97.5 23c-34 0 -66.833 -6.83301 -98.5 -20.5s-60.334 -33 -86.001 -58s-47.667 -55 -66 -90s-30.833 -74.167 -37.5 -117.5c-6 -41.333 -5.83301 -79.5 0.5 -114.5s18.333 -65.333 36 -91s40.5 -45.834 68.5 -60.501
s60.333 -22 97 -22c36 0 69.667 7.5 101 22.5s59.166 35.333 83.499 61s44.666 55.667 60.999 90s27.5 71.166 33.5 110.499z" />
    <glyph glyph-name="Odieresis" unicode="&#xd6;" horiz-adv-x="583"
d="M319 834c0 -37.333 -20.667 -56 -62 -56c-42 0 -63 18 -63 54c0 36.667 21 55 63 55c41.333 0 62 -17.667 62 -53zM552 832c0 -37.333 -20.667 -56 -62 -56c-42 0 -63 18 -63 54c0 36.667 21 55 63 55c41.333 0 62 -17.667 62 -53zM701 345
c-8 -52 -23.666 -99.666 -46.999 -142.999s-52 -80.833 -86 -112.5s-72.333 -56.334 -115 -74.001s-87 -26.5 -133 -26.5c-48 0 -91.333 8.5 -130 25.5s-70.667 41 -96 72s-43.333 68.5 -54 112.5s-12 92.667 -4 146c8 52 24.667 99.833 50 143.5s56.166 81.5 92.499 113.5
s76.333 56.833 120 74.5s88.167 26.5 133.5 26.5c48 0 90.667 -8.5 128 -25.5s67.833 -41.167 91.5 -72.5s40 -69 49 -113s9.16699 -93 0.5 -147zM610.001 343.001c6 40 6.33594 77.6689 1.00293 113.002s-16 66 -32 92s-37.5 46.667 -64.5 62s-59.5 23 -97.5 23
c-34 0 -66.833 -6.83301 -98.5 -20.5s-60.334 -33 -86.001 -58s-47.667 -55 -66 -90s-30.833 -74.167 -37.5 -117.5c-6 -41.333 -5.83301 -79.5 0.5 -114.5s18.333 -65.333 36 -91s40.5 -45.834 68.5 -60.501s60.333 -22 97 -22c36 0 69.667 7.5 101 22.5
s59.166 35.333 83.499 61s44.666 55.667 60.999 90s27.5 71.166 33.5 110.499z" />
    <glyph glyph-name="multiply" unicode="&#xd7;" horiz-adv-x="594"
d="M469 21l-179 180l-179 -180l-53 49l185 181l-182 180l58 51l177 -177l178 179l53 -47l-181 -182l181 -181z" />
    <glyph glyph-name="Oslash" unicode="&#xd8;" horiz-adv-x="583"
d="M696 349c0.666992 -52 -7.50098 -99.833 -24.501 -143.5s-40.5 -81.5 -70.5 -113.5s-65.333 -57 -106 -75s-84 -27.333 -130 -28c-40.667 -0.666992 -78.5 4.83301 -113.5 16.5s-66.5 28.834 -94.5 51.501l-82 -104l-40 23l89 111
c-28.667 30.667 -51.167 67.5 -67.5 110.5s-24.833 90.833 -25.5 143.5c-0.666992 52 8 100 26 144s42.333 82 73 114s66.334 57.167 107.001 75.5s83.667 27.833 129 28.5c38 0.666992 73.667 -4.33301 107 -15s63.333 -26.334 90 -47.001l75 95l42 -23l-81 -102
c30 -31.333 53.5 -69 70.5 -113s25.833 -93.667 26.5 -149zM512.999 579c-19.333 17.333 -41.333 30.832 -66 40.499s-52.334 14.167 -83.001 13.5c-34 -0.666992 -65.667 -8 -95 -22s-55 -33.5 -77 -58.5s-39.167 -55.167 -51.5 -90.5s-18.166 -74.666 -17.499 -117.999
c1.33301 -75.333 19.333 -138.333 54 -189l336 424v0zM603.999 345.999c-0.666992 38.667 -5.99902 74.833 -15.999 108.5s-24.333 63.167 -43 88.5l-337 -424c20 -19.333 43 -34.333 69 -45s55 -15.667 87 -15c36 0.666992 69 8.5 99 23.5s55.5 35.5 76.5 61.5
s37.167 56.333 48.5 91s16.666 71.667 15.999 111z" />
    <glyph glyph-name="Ugrave" unicode="&#xd9;" horiz-adv-x="650"
d="M365 736l-138 145l80 39l107 -163zM152 241c-10 -60 -4.50098 -105.33 16.499 -135.997s62.5 -46 124.5 -46c34 0 63.167 5 87.5 15s44.833 24.167 61.5 42.5s30 40.166 40 65.499s17.667 53.333 23 84c6 42 12.333 84 19 126l18 117l19 120l-80 37l3 26h256l-3 -26
l-95 -37l-18.5 -118l-17.5 -115l-19 -122c-7.33301 -45.333 -18.5 -85.5 -33.5 -120.5s-35 -64.833 -60 -89.5s-55 -43.334 -90 -56.001s-75.833 -19 -122.5 -19c-90 0 -152.167 22.167 -186.5 66.5s-44.166 110.166 -29.499 197.499c6 42.667 12.667 86 20 130l19.5 122.5
l19.5 123.5l-81 37l3 26h264l-3 -26l-95 -37z" />
    <glyph glyph-name="Uacute" unicode="&#xda;" horiz-adv-x="650"
d="M361 736l-49 21l103 163l80 -39zM152 241c-10 -60 -4.50098 -105.33 16.499 -135.997s62.5 -46 124.5 -46c34 0 63.167 5 87.5 15s44.833 24.167 61.5 42.5s30 40.166 40 65.499s17.667 53.333 23 84c6 42 12.333 84 19 126l18 117l19 120l-80 37l3 26h256l-3 -26
l-95 -37l-18.5 -118l-17.5 -115l-19 -122c-7.33301 -45.333 -18.5 -85.5 -33.5 -120.5s-35 -64.833 -60 -89.5s-55 -43.334 -90 -56.001s-75.833 -19 -122.5 -19c-90 0 -152.167 22.167 -186.5 66.5s-44.166 110.166 -29.499 197.499c6 42.667 12.667 86 20 130l19.5 122.5
l19.5 123.5l-81 37l3 26h264l-3 -26l-95 -37z" />
    <glyph glyph-name="Ucircumflex" unicode="&#xdb;" horiz-adv-x="650"
d="M429 735l-76 113l-83 -112l-48 15l95 155h76l86 -155zM152 241c-10 -60 -4.50098 -105.33 16.499 -135.997s62.5 -46 124.5 -46c34 0 63.167 5 87.5 15s44.833 24.167 61.5 42.5s30 40.166 40 65.499s17.667 53.333 23 84c6 42 12.333 84 19 126l18 117l19 120l-80 37
l3 26h256l-3 -26l-95 -37l-18.5 -118l-17.5 -115l-19 -122c-7.33301 -45.333 -18.5 -85.5 -33.5 -120.5s-35 -64.833 -60 -89.5s-55 -43.334 -90 -56.001s-75.833 -19 -122.5 -19c-90 0 -152.167 22.167 -186.5 66.5s-44.166 110.166 -29.499 197.499
c6 42.667 12.667 86 20 130l19.5 122.5l19.5 123.5l-81 37l3 26h264l-3 -26l-95 -37z" />
    <glyph glyph-name="Udieresis" unicode="&#xdc;" horiz-adv-x="650"
d="M291 835c0 -37.333 -20.667 -56 -62 -56c-42 0 -63 18 -63 54c0 36.667 21 55 63 55c41.333 0 62 -17.667 62 -53zM524 833c0 -37.333 -20.667 -56 -62 -56c-42 0 -63 18 -63 54c0 36.667 21 55 63 55c41.333 0 62 -17.667 62 -53zM152 241
c-10 -60 -4.50098 -105.33 16.499 -135.997s62.5 -46 124.5 -46c34 0 63.167 5 87.5 15s44.833 24.167 61.5 42.5s30 40.166 40 65.499s17.667 53.333 23 84c6 42 12.333 84 19 126l18 117l19 120l-80 37l3 26h256l-3 -26l-95 -37l-18.5 -118l-17.5 -115l-19 -122
c-7.33301 -45.333 -18.5 -85.5 -33.5 -120.5s-35 -64.833 -60 -89.5s-55 -43.334 -90 -56.001s-75.833 -19 -122.5 -19c-90 0 -152.167 22.167 -186.5 66.5s-44.166 110.166 -29.499 197.499c6 42.667 12.667 86 20 130l19.5 122.5l19.5 123.5l-81 37l3 26h264l-3 -26
l-95 -37z" />
    <glyph glyph-name="Yacute" unicode="&#xdd;" horiz-adv-x="622"
d="M348 740l-49 21l103 163l80 -39zM621 628l-278 -305.001l-40 -260l106 -37l-3 -26h-312l3 26l118 37l39 253l-177 312l-72 37l3 26h258l-3 -26l-79 -37l86 -157c12.667 -23.333 22.667 -42.833 30 -58.5s11.333 -24.5 12 -26.5c0 0.666992 2.33301 3.83398 7 9.50098
l17.5 21l24 28.5l27.5 32l130 147l3 4l-67 37l3 26h250l-3 -26z" />
    <glyph glyph-name="Thorn" unicode="&#xde;" horiz-adv-x="325"
d="M602 361c-6.66699 -42.667 -19.6689 -77.833 -39.002 -105.5s-42.166 -49.5 -68.499 -65.5s-54.833 -27.167 -85.5 -33.5s-60.667 -9.5 -90 -9.5h-95l-13 -84l83 -37l-4 -26h-265l4 26l94 37l89 566l-83 36l4 26h265l-4 -26l-94 -36l-12 -79l119 1h35
c14.667 0 30.167 -1.5 46.5 -4.5s32.333 -8 48 -15s29.334 -17.5 41.001 -31.5s20 -32.333 25 -55s4.83301 -50.667 -0.5 -84zM234.998 212.001h86.001c20.667 0 41.167 1.83301 61.5 5.5s39.333 10.834 57 21.501s32.834 25.5 45.501 44.5s21.667 44.167 27 75.5
c4.66699 30 3.5 53.667 -3.5 71s-17.333 30.666 -31 39.999s-29.334 15.333 -47.001 18s-34.834 4 -51.501 4c-19.333 0 -39 -0.166992 -59 -0.5s-34 -0.833008 -42 -1.5z" />
    <glyph glyph-name="germandbls" unicode="&#xdf;" horiz-adv-x="511"
d="M-146 0l4.00293 25.999l93 37l58 367h-89l10 38l90 30l9 53c4.66699 30.667 12.334 59 23.001 85s25 48.333 43 67s40.167 33.167 66.5 43.5s57.5 15.5 93.5 15.5c19.333 0 37.5 -2.33301 54.5 -7s31.5 -12 43.5 -22s21 -22.667 27 -38s7.33301 -33.666 4 -54.999
c-4 -26.667 -12.667 -48.5 -26 -65.5s-27.333 -32.167 -42 -45.5s-28.167 -26.333 -40.5 -39s-19.833 -28 -22.5 -46c-2.66699 -16.667 0.166016 -31.667 8.49902 -45s19.333 -26.166 33 -38.499s28.5 -24.666 44.5 -36.999s30.667 -25.833 44 -40.5s23.833 -31 31.5 -49
s9.5 -38.667 5.5 -62c-6 -36 -16.333 -66 -31 -90s-31.334 -42.833 -50.001 -56.5s-37.834 -22.5 -57.501 -26.5s-37.5 -4.33301 -53.5 -1c-42 5.33301 -78.667 19 -110 41l19 127h26l23 -87c5.33301 -3.33301 9.33301 -6.16602 12 -8.49902s5.5 -4.33301 8.5 -6
s6.83301 -3 11.5 -4s11.667 -1.5 21 -1.5c30 1.33301 51.833 10.5 65.5 27.5s23.5 43.833 29.5 80.5c2.66699 18 0.166992 34.167 -7.5 48.5s-18.167 27.666 -31.5 39.999s-27.833 24.666 -43.5 36.999s-30 25.333 -43 39s-23.167 29 -30.5 46s-9.33301 36.5 -6 58.5
c3.33301 20.667 11 38.5 23 53.5s24.833 29.333 38.5 43s26.667 28.167 39 43.5s20.166 34 23.499 56c3.33301 21.333 0 38.166 -10 50.499s-25.667 18.833 -47 19.5c-8 1.33301 -14.333 1 -19 -1s-12.667 -4.66699 -24 -8c-28.667 -11.333 -49 -31 -61 -59
s-20.667 -59 -26 -93l-84 -541h-171z" />
    <glyph glyph-name="agrave" unicode="&#xe0;" horiz-adv-x="598"
d="M356 579l-134 145l80 39l103 -163zM567 121c-7.33301 -17.333 -16.335 -34.166 -27.002 -50.499s-22.667 -31.166 -36 -44.499c-12.667 -13.333 -25.667 -21.5 -39 -24.5s-26.666 -4.5 -39.999 -4.5c-14.667 0 -27 2.83301 -37 8.5s-15.333 14.167 -16 25.5v12
c0 5.33301 0.666992 12 2 20c-23.333 -22 -49.666 -39.833 -78.999 -53.5s-59 -20.5 -89 -20.5c-37.333 0 -68 6.66699 -92 20s-42.333 31.166 -55 53.499s-20.5 48.166 -23.5 77.499s-1.83301 60 3.5 92c4.66699 32.667 14.167 65.5 28.5 98.5s33 62.833 56 89.5
s50.5 48.167 82.5 64.5s68.667 24.5 110 24.5c30.667 0 54.667 -4 72 -12s34 -20 50 -36l85 37l-64 -416c0.666992 -8 1.66699 -14.167 3 -18.5s5.33301 -6.5 12 -6.5c4 0 9 2.66699 15 8s12.5 12 19.5 20s14 16.667 21 26l19.5 25l9 -7.5zM421.998 383
c-10.667 22 -25.502 38.333 -44.502 49s-40.5 16 -64.5 16c-28.667 0 -53.834 -7.16699 -75.501 -21.5s-40.167 -32.333 -55.5 -54s-27.666 -45 -36.999 -70s-15.666 -47.833 -18.999 -68.5c-3.33301 -22.667 -4.16602 -45 -2.49902 -67s6.66699 -41.667 15 -59
s20.333 -31.333 36 -42s35.5 -16 59.5 -16c30 0 58.167 9.66699 84.5 29s48.833 41.333 67.5 66l36 238v0z" />
    <glyph glyph-name="aacute" unicode="&#xe1;" horiz-adv-x="598"
d="M327 578l-49 21l103 163l80 -39zM567 121c-7.33301 -17.333 -16.335 -34.166 -27.002 -50.499s-22.667 -31.166 -36 -44.499c-12.667 -13.333 -25.667 -21.5 -39 -24.5s-26.666 -4.5 -39.999 -4.5c-14.667 0 -27 2.83301 -37 8.5s-15.333 14.167 -16 25.5v12
c0 5.33301 0.666992 12 2 20c-23.333 -22 -49.666 -39.833 -78.999 -53.5s-59 -20.5 -89 -20.5c-37.333 0 -68 6.66699 -92 20s-42.333 31.166 -55 53.499s-20.5 48.166 -23.5 77.499s-1.83301 60 3.5 92c4.66699 32.667 14.167 65.5 28.5 98.5s33 62.833 56 89.5
s50.5 48.167 82.5 64.5s68.667 24.5 110 24.5c30.667 0 54.667 -4 72 -12s34 -20 50 -36l85 37l-64 -416c0.666992 -8 1.66699 -14.167 3 -18.5s5.33301 -6.5 12 -6.5c4 0 9 2.66699 15 8s12.5 12 19.5 20s14 16.667 21 26l19.5 25l9 -7.5zM421.998 383
c-10.667 22 -25.502 38.333 -44.502 49s-40.5 16 -64.5 16c-28.667 0 -53.834 -7.16699 -75.501 -21.5s-40.167 -32.333 -55.5 -54s-27.666 -45 -36.999 -70s-15.666 -47.833 -18.999 -68.5c-3.33301 -22.667 -4.16602 -45 -2.49902 -67s6.66699 -41.667 15 -59
s20.333 -31.333 36 -42s35.5 -16 59.5 -16c30 0 58.167 9.66699 84.5 29s48.833 41.333 67.5 66l36 238v0z" />
    <glyph glyph-name="acircumflex" unicode="&#xe2;" horiz-adv-x="598"
d="M409 581l-59 113l-100 -112l-46 15l118 155h76l63 -155zM567 121c-7.33301 -17.333 -16.335 -34.166 -27.002 -50.499s-22.667 -31.166 -36 -44.499c-12.667 -13.333 -25.667 -21.5 -39 -24.5s-26.666 -4.5 -39.999 -4.5c-14.667 0 -27 2.83301 -37 8.5
s-15.333 14.167 -16 25.5v12c0 5.33301 0.666992 12 2 20c-23.333 -22 -49.666 -39.833 -78.999 -53.5s-59 -20.5 -89 -20.5c-37.333 0 -68 6.66699 -92 20s-42.333 31.166 -55 53.499s-20.5 48.166 -23.5 77.499s-1.83301 60 3.5 92c4.66699 32.667 14.167 65.5 28.5 98.5
s33 62.833 56 89.5s50.5 48.167 82.5 64.5s68.667 24.5 110 24.5c30.667 0 54.667 -4 72 -12s34 -20 50 -36l85 37l-64 -416c0.666992 -8 1.66699 -14.167 3 -18.5s5.33301 -6.5 12 -6.5c4 0 9 2.66699 15 8s12.5 12 19.5 20s14 16.667 21 26l19.5 25l9 -7.5zM421.998 383
c-10.667 22 -25.502 38.333 -44.502 49s-40.5 16 -64.5 16c-28.667 0 -53.834 -7.16699 -75.501 -21.5s-40.167 -32.333 -55.5 -54s-27.666 -45 -36.999 -70s-15.666 -47.833 -18.999 -68.5c-3.33301 -22.667 -4.16602 -45 -2.49902 -67s6.66699 -41.667 15 -59
s20.333 -31.333 36 -42s35.5 -16 59.5 -16c30 0 58.167 9.66699 84.5 29s48.833 41.333 67.5 66l36 238v0z" />
    <glyph glyph-name="atilde" unicode="&#xe3;" horiz-adv-x="598"
d="M490 683c-4 -13.333 -8.83594 -26 -14.5029 -38s-12.5 -22.667 -20.5 -32s-17.5 -16.833 -28.5 -22.5s-24.167 -8.5 -39.5 -8.5c-18.667 0 -34 2.33301 -46 7s-22.833 10 -32.5 16s-18.667 11.333 -27 16s-18.166 7 -29.499 7c-13.333 0 -24.666 -5.66699 -33.999 -17
s-15 -23 -17 -35l-49 12c3.33301 12.667 7.83301 25 13.5 37s12.667 22.667 21 32s18.166 16.833 29.499 22.5s24.333 8.5 39 8.5c18.667 0 34.5 -2.33301 47.5 -7s24.5 -10 34.5 -16s19.333 -11.333 28 -16s17.667 -7 27 -7c14.667 0 25.834 5 33.501 15
s13.834 22.667 18.501 38l46 -12v0zM566.997 121c-7.33301 -17.333 -16.335 -34.166 -27.002 -50.499s-22.667 -31.166 -36 -44.499c-12.667 -13.333 -25.667 -21.5 -39 -24.5s-26.666 -4.5 -39.999 -4.5c-14.667 0 -27 2.83301 -37 8.5s-15.333 14.167 -16 25.5v12
c0 5.33301 0.666992 12 2 20c-23.333 -22 -49.666 -39.833 -78.999 -53.5s-59 -20.5 -89 -20.5c-37.333 0 -68 6.66699 -92 20s-42.333 31.166 -55 53.499s-20.5 48.166 -23.5 77.499s-1.83301 60 3.5 92c4.66699 32.667 14.167 65.5 28.5 98.5s33 62.833 56 89.5
s50.5 48.167 82.5 64.5s68.667 24.5 110 24.5c30.667 0 54.667 -4 72 -12s34 -20 50 -36l85 37l-64 -416c0.666992 -8 1.66699 -14.167 3 -18.5s5.33301 -6.5 12 -6.5c4 0 9 2.66699 15 8s12.5 12 19.5 20s14 16.667 21 26l19.5 25l9 -7.5zM421.995 383
c-10.667 22 -25.502 38.333 -44.502 49s-40.5 16 -64.5 16c-28.667 0 -53.834 -7.16699 -75.501 -21.5s-40.167 -32.333 -55.5 -54s-27.666 -45 -36.999 -70s-15.666 -47.833 -18.999 -68.5c-3.33301 -22.667 -4.16602 -45 -2.49902 -67s6.66699 -41.667 15 -59
s20.333 -31.333 36 -42s35.5 -16 59.5 -16c30 0 58.167 9.66699 84.5 29s48.833 41.333 67.5 66l36 238v0z" />
    <glyph glyph-name="adieresis" unicode="&#xe4;" horiz-adv-x="598"
d="M303 631c0 -37.333 -20.667 -56 -62 -56c-42 0 -63 18 -63 54c0 36.667 21 55 63 55c41.333 0 62 -17.667 62 -53zM536 629c0 -37.333 -20.667 -56 -62 -56c-42 0 -63 18 -63 54c0 36.667 21 55 63 55c41.333 0 62 -17.667 62 -53zM567 121
c-7.33301 -17.333 -16.335 -34.166 -27.002 -50.499s-22.667 -31.166 -36 -44.499c-12.667 -13.333 -25.667 -21.5 -39 -24.5s-26.666 -4.5 -39.999 -4.5c-14.667 0 -27 2.83301 -37 8.5s-15.333 14.167 -16 25.5v12c0 5.33301 0.666992 12 2 20
c-23.333 -22 -49.666 -39.833 -78.999 -53.5s-59 -20.5 -89 -20.5c-37.333 0 -68 6.66699 -92 20s-42.333 31.166 -55 53.499s-20.5 48.166 -23.5 77.499s-1.83301 60 3.5 92c4.66699 32.667 14.167 65.5 28.5 98.5s33 62.833 56 89.5s50.5 48.167 82.5 64.5
s68.667 24.5 110 24.5c30.667 0 54.667 -4 72 -12s34 -20 50 -36l85 37l-64 -416c0.666992 -8 1.66699 -14.167 3 -18.5s5.33301 -6.5 12 -6.5c4 0 9 2.66699 15 8s12.5 12 19.5 20s14 16.667 21 26l19.5 25l9 -7.5zM421.998 383c-10.667 22 -25.502 38.333 -44.502 49
s-40.5 16 -64.5 16c-28.667 0 -53.834 -7.16699 -75.501 -21.5s-40.167 -32.333 -55.5 -54s-27.666 -45 -36.999 -70s-15.666 -47.833 -18.999 -68.5c-3.33301 -22.667 -4.16602 -45 -2.49902 -67s6.66699 -41.667 15 -59s20.333 -31.333 36 -42s35.5 -16 59.5 -16
c30 0 58.167 9.66699 84.5 29s48.833 41.333 67.5 66l36 238v0z" />
    <glyph glyph-name="aring" unicode="&#xe5;" horiz-adv-x="598"
d="M430 650c0 -29.333 -9.83203 -53.666 -29.499 -72.999s-45.5 -29 -77.5 -29c-30.667 0 -56.334 8.83301 -77.001 26.5s-31 42.834 -31 75.501c0 29.333 10.167 53.666 30.5 72.999s46.5 29 78.5 29s57.667 -8.83301 77 -26.5s29 -42.834 29 -75.501zM380.001 650
c0 20.667 -5.33105 36 -15.998 46s-24.334 15 -41.001 15c-16 0 -29.667 -5.33301 -41 -16s-17 -25.667 -17 -45c0 -20.667 5.5 -36 16.5 -46s24.833 -15 41.5 -15c17.333 0 31.166 5.83301 41.499 17.5s15.5 26.167 15.5 43.5zM567.003 121
c-7.33301 -17.333 -16.335 -34.166 -27.002 -50.499s-22.667 -31.166 -36 -44.499c-12.667 -13.333 -25.667 -21.5 -39 -24.5s-26.666 -4.5 -39.999 -4.5c-14.667 0 -27 2.83301 -37 8.5s-15.333 14.167 -16 25.5v12c0 5.33301 0.666992 12 2 20
c-23.333 -22 -49.666 -39.833 -78.999 -53.5s-59 -20.5 -89 -20.5c-37.333 0 -68 6.66699 -92 20s-42.333 31.166 -55 53.499s-20.5 48.166 -23.5 77.499s-1.83301 60 3.5 92c4.66699 32.667 14.167 65.5 28.5 98.5s33 62.833 56 89.5s50.5 48.167 82.5 64.5
s68.667 24.5 110 24.5c30.667 0 54.667 -4 72 -12s34 -20 50 -36l85 37l-64 -416c0.666992 -8 1.66699 -14.167 3 -18.5s5.33301 -6.5 12 -6.5c4 0 9 2.66699 15 8s12.5 12 19.5 20s14 16.667 21 26l19.5 25l9 -7.5zM422.001 383c-10.667 22 -25.502 38.333 -44.502 49
s-40.5 16 -64.5 16c-28.667 0 -53.834 -7.16699 -75.501 -21.5s-40.167 -32.333 -55.5 -54s-27.666 -45 -36.999 -70s-15.666 -47.833 -18.999 -68.5c-3.33301 -22.667 -4.16602 -45 -2.49902 -67s6.66699 -41.667 15 -59s20.333 -31.333 36 -42s35.5 -16 59.5 -16
c30 0 58.167 9.66699 84.5 29s48.833 41.333 67.5 66l36 238v0z" />
    <glyph glyph-name="ae" unicode="&#xe6;" horiz-adv-x="807"
d="M728 73c-30.667 -26 -61.835 -46.5 -93.502 -61.5s-66.5 -22.5 -104.5 -22.5c-42.667 0 -78.167 7.33301 -106.5 22s-51.166 39.334 -68.499 74.001c-11.333 -10.667 -24.666 -21.667 -39.999 -33s-31.666 -21.666 -48.999 -30.999s-34.666 -17 -51.999 -23
s-33.333 -9 -48 -9c-44 0 -76.167 13 -96.5 39s-26.833 61.333 -19.5 106c6.66699 35.333 21.334 63.666 44.001 84.999s49.167 38 79.5 50s62.166 20.667 95.499 26s64 9.33301 92 12c1.33301 2.66699 2 4.33398 2 5.00098c0.666992 3.33301 1.5 8.16602 2.5 14.499
s2.16699 12.5 3.5 18.5c1.33301 7.33301 3 14.666 5 21.999c2 12 1.16699 23 -2.5 33s-9.5 18.833 -17.5 26.5s-17.333 13.667 -28 18s-22 6.5 -34 6.5c-21.333 0 -40.5 -1.66699 -57.5 -5s-35.167 -11 -54.5 -23l-52 -86h-26l21 114h1c17.333 11.333 33.5 21 48.5 29
s30.167 14.5 45.5 19.5s31.333 8.66699 48 11s35.667 3.5 57 3.5c28 0 53.667 -6.33301 77 -19s39.666 -30 48.999 -52c20.667 19.333 44 34.833 70 46.5s54.333 18.167 85 19.5c44.667 2 80.167 -3.83301 106.5 -17.5s44.666 -31.667 54.999 -54s13.333 -47.166 9 -74.499
s-14.833 -53.333 -31.5 -78c-11.333 -16.667 -28.5 -31 -51.5 -43s-49 -21.833 -78 -29.5s-59.667 -12.5 -92 -14.5s-63.833 -1.33301 -94.5 2c-0.666992 -16.667 -0.333984 -33.5 0.999023 -50.5s5.5 -32.5 12.5 -46.5s17.833 -25.333 32.5 -34s35 -13 61 -13
c28 0 55.333 5.16699 82 15.5s51.334 25.166 74.001 44.499zM200.999 48c24.667 0 47.501 7.66797 68.501 23.001s40.5 31.666 58.5 48.999l13 75c1.33301 17.333 3.33301 35 6 53v4c-20.667 -1.33301 -42.667 -3.66602 -66 -6.99902s-45.333 -9 -66 -17
s-38.667 -19.333 -54 -34s-25.333 -34.334 -30 -59.001c-5.33301 -28 -1.83301 -49.5 10.5 -64.5s32.166 -22.5 59.499 -22.5zM434 270.001c21.333 0 44.833 0.666992 70.5 2s50.167 4.16602 73.5 8.49902s44 10.333 62 18s30.333 17.834 37 30.501
c6 15.333 8.83301 30 8.5 44s-3.83301 26.167 -10.5 36.5s-16.834 18.5 -30.501 24.5s-31.167 9 -52.5 9s-40.666 -5.5 -57.999 -16.5s-32.5 -25 -45.5 -42s-24 -35.667 -33 -56s-16.167 -39.833 -21.5 -58.5z" />
    <glyph glyph-name="ccedilla" unicode="&#xe7;" horiz-adv-x="373"
d="M447 336h-25.999l-24 87c-13.333 9.33301 -27.666 15.833 -42.999 19.5s-31 5.5 -47 5.5c-26 0 -49.5 -6 -70.5 -18s-39.167 -27.667 -54.5 -47s-27.833 -41.166 -37.5 -65.499s-16.5 -49.166 -20.5 -74.499c-3.33301 -23.333 -3.5 -46.333 -0.5 -69s9.66699 -43 20 -61
s24.5 -32.667 42.5 -44s40 -17 66 -17c23.333 0 44.666 4.66699 63.999 14s38.666 22.666 57.999 39.999l40 -42c-23.333 -20.667 -49.833 -38.334 -79.5 -53.001s-64.834 -22 -105.501 -22c-45.333 0 -81.666 8.33301 -108.999 25s-47.833 37.667 -61.5 63
s-21.667 52.833 -24 82.5s-1.5 57.5 2.5 83.5c5.33301 34 16 66.833 32 98.5s36.167 60 60.5 85s52 45 83 60s64.167 22.5 99.5 22.5c26 0 51.5 -2.66699 76.5 -8s51.167 -20 78.5 -44zM388.874 -120.157c-3.38281 -20.21 -10.9922 -36.6289 -22.833 -49.2607
s-25.6553 -22.7373 -41.4424 -30.3164c-15.7881 -7.5791 -31.999 -12.6318 -48.6328 -15.1582s-31.4346 -3.79004 -44.4023 -3.79004c0 -0.561523 0.705078 1.40332 2.11426 5.89453s3.24121 9.40332 5.49609 14.7363c2.25586 5.33301 4.08887 10.3857 5.49805 15.1572
l2.11426 7.1582l19.4521 2.10547c7.89355 0.841797 15.9287 2.80664 24.1045 5.89453s15.5059 7.71973 21.9902 13.8945c6.4834 6.17578 10.5713 14.3164 12.2637 24.4209c1.69141 8.4209 0.845703 15.1582 -2.53809 20.2109
c-3.38281 5.05273 -7.75293 8.8418 -13.1094 11.3682s-11.1357 4.07031 -17.3379 4.63184s-11.5586 0.841797 -16.0693 0.841797c-1.69141 0 -3.52344 -0.140625 -5.49707 -0.420898s-3.80664 -0.420898 -5.49805 -0.420898h-6.76562l13.5322 48
c4.51074 0.561523 8.45703 0.841797 11.8398 0.841797h12.6865c7.33008 0 16.7744 -0.420898 28.334 -1.26367c11.5586 -0.841797 22.6943 -3.64844 33.4072 -8.4209c10.7129 -4.77148 19.3115 -12.21 25.7959 -22.3154s8.31641 -24.7021 5.49707 -43.7891z" />
    <glyph glyph-name="egrave" unicode="&#xe8;" horiz-adv-x="392"
d="M314 576l-138 145l80 39l107 -163zM416 73c-30.667 -26 -61.8311 -46.499 -93.498 -61.499s-66.5 -22.5 -104.5 -22.5c-40.667 0 -74.167 6.83301 -100.5 20.5s-46.5 32.167 -60.5 55.5s-22.667 50.666 -26 81.999s-2 65 4 101c4.66699 32.667 14.167 64.334 28.5 95.001
s32.666 58 54.999 82s48 43.667 77 59s61.167 23.666 96.5 24.999c44.667 2 80.167 -3.83301 106.5 -17.5s44.666 -31.667 54.999 -54s13.333 -47.166 9 -74.499s-14.833 -53.333 -31.5 -78c-11.333 -16.667 -28.5 -31 -51.5 -43s-49 -21.833 -78 -29.5
s-59.667 -12.5 -92 -14.5s-63.833 -1.33301 -94.5 2c-0.666992 -16.667 -0.333984 -33.5 0.999023 -50.5s5.5 -32.5 12.5 -46.5s17.833 -25.333 32.5 -34s35 -13 61 -13c28 0 55.333 5.16699 82 15.5s51.334 25.166 74.001 44.499zM122.003 270.001
c21.333 0 44.833 0.666992 70.5 2s50.167 4.16602 73.5 8.49902s44 10.333 62 18s30.333 17.834 37 30.501c6 15.333 8.83301 30 8.5 44s-3.83301 26.167 -10.5 36.5s-16.834 18.5 -30.501 24.5s-31.167 9 -52.5 9s-40.666 -5.5 -57.999 -16.5s-32.5 -25 -45.5 -42
s-24 -35.667 -33 -56s-16.167 -39.833 -21.5 -58.5z" />
    <glyph glyph-name="eacute" unicode="&#xe9;" horiz-adv-x="392"
d="M271 578l-49 21l103 163l80 -39zM416 73c-30.667 -26 -61.8311 -46.499 -93.498 -61.499s-66.5 -22.5 -104.5 -22.5c-40.667 0 -74.167 6.83301 -100.5 20.5s-46.5 32.167 -60.5 55.5s-22.667 50.666 -26 81.999s-2 65 4 101c4.66699 32.667 14.167 64.334 28.5 95.001
s32.666 58 54.999 82s48 43.667 77 59s61.167 23.666 96.5 24.999c44.667 2 80.167 -3.83301 106.5 -17.5s44.666 -31.667 54.999 -54s13.333 -47.166 9 -74.499s-14.833 -53.333 -31.5 -78c-11.333 -16.667 -28.5 -31 -51.5 -43s-49 -21.833 -78 -29.5
s-59.667 -12.5 -92 -14.5s-63.833 -1.33301 -94.5 2c-0.666992 -16.667 -0.333984 -33.5 0.999023 -50.5s5.5 -32.5 12.5 -46.5s17.833 -25.333 32.5 -34s35 -13 61 -13c28 0 55.333 5.16699 82 15.5s51.334 25.166 74.001 44.499zM122.003 270.001
c21.333 0 44.833 0.666992 70.5 2s50.167 4.16602 73.5 8.49902s44 10.333 62 18s30.333 17.834 37 30.501c6 15.333 8.83301 30 8.5 44s-3.83301 26.167 -10.5 36.5s-16.834 18.5 -30.501 24.5s-31.167 9 -52.5 9s-40.666 -5.5 -57.999 -16.5s-32.5 -25 -45.5 -42
s-24 -35.667 -33 -56s-16.167 -39.833 -21.5 -58.5z" />
    <glyph glyph-name="ecircumflex" unicode="&#xea;" horiz-adv-x="392"
d="M417 73c-30.667 -26 -61.8311 -46.499 -93.498 -61.499s-66.5 -22.5 -104.5 -22.5c-40.667 0 -74.167 6.83301 -100.5 20.5s-46.5 32.167 -60.5 55.5s-22.667 50.666 -26 81.999s-2 65 4 101c4.66699 32.667 14.167 64.334 28.5 95.001s32.666 58 54.999 82
s48 43.667 77 59s61.167 23.666 96.5 24.999c44.667 2 80.167 -3.83301 106.5 -17.5s44.666 -31.667 54.999 -54s13.333 -47.166 9 -74.499s-14.833 -53.333 -31.5 -78c-11.333 -16.667 -28.5 -31 -51.5 -43s-49 -21.833 -78 -29.5s-59.667 -12.5 -92 -14.5
s-63.833 -1.33301 -94.5 2c-0.666992 -16.667 -0.333984 -33.5 0.999023 -50.5s5.5 -32.5 12.5 -46.5s17.833 -25.333 32.5 -34s35 -13 61 -13c28 0 55.333 5.16699 82 15.5s51.334 25.166 74.001 44.499zM123.003 270.001c21.333 0 44.833 0.666992 70.5 2
s50.167 4.16602 73.5 8.49902s44 10.333 62 18s30.333 17.834 37 30.501c6 15.333 8.83301 30 8.5 44s-3.83301 26.167 -10.5 36.5s-16.834 18.5 -30.501 24.5s-31.167 9 -52.5 9s-40.666 -5.5 -57.999 -16.5s-32.5 -25 -45.5 -42s-24 -35.667 -33 -56
s-16.167 -39.833 -21.5 -58.5zM442.003 568.001l-58 113l-100 -112l-46 15l119 155h76l62 -155z" />
    <glyph glyph-name="edieresis" unicode="&#xeb;" horiz-adv-x="392"
d="M417 73c-30.667 -26 -61.8311 -46.499 -93.498 -61.499s-66.5 -22.5 -104.5 -22.5c-40.667 0 -74.167 6.83301 -100.5 20.5s-46.5 32.167 -60.5 55.5s-22.667 50.666 -26 81.999s-2 65 4 101c4.66699 32.667 14.167 64.334 28.5 95.001s32.666 58 54.999 82
s48 43.667 77 59s61.167 23.666 96.5 24.999c44.667 2 80.167 -3.83301 106.5 -17.5s44.666 -31.667 54.999 -54s13.333 -47.166 9 -74.499s-14.833 -53.333 -31.5 -78c-11.333 -16.667 -28.5 -31 -51.5 -43s-49 -21.833 -78 -29.5s-59.667 -12.5 -92 -14.5
s-63.833 -1.33301 -94.5 2c-0.666992 -16.667 -0.333984 -33.5 0.999023 -50.5s5.5 -32.5 12.5 -46.5s17.833 -25.333 32.5 -34s35 -13 61 -13c28 0 55.333 5.16699 82 15.5s51.334 25.166 74.001 44.499zM123.003 270.001c21.333 0 44.833 0.666992 70.5 2
s50.167 4.16602 73.5 8.49902s44 10.333 62 18s30.333 17.834 37 30.501c6 15.333 8.83301 30 8.5 44s-3.83301 26.167 -10.5 36.5s-16.834 18.5 -30.501 24.5s-31.167 9 -52.5 9s-40.666 -5.5 -57.999 -16.5s-32.5 -25 -45.5 -42s-24 -35.667 -33 -56
s-16.167 -39.833 -21.5 -58.5zM279.003 625.001c-6 -37.333 -29.667 -56 -71 -56c-42 0 -60.333 18 -55 54c6 36.667 30 55 72 55c40.667 0 58.667 -17.667 54 -53zM511.003 623.001c-6 -37.333 -29.333 -56 -70 -56c-42.667 0 -61 18 -55 54c6 36.667 30 55 72 55
c41.333 0 59 -17.667 53 -53z" />
    <glyph glyph-name="igrave" unicode="&#xec;" horiz-adv-x="292"
d="M244 137l9 -7.50195l9 -7.5c-7.33301 -17.333 -16.333 -34.166 -27 -50.499s-22.667 -31.166 -36 -44.499s-26.5 -21.5 -39.5 -24.5s-26.167 -4.5 -39.5 -4.5c-14.667 0 -27.667 2.83301 -39 8.5s-17.333 14.167 -18 25.5c0.666992 4.66699 1.16699 9.83398 1.5 15.501
s1.33301 13.5 3 23.5l6.5 40.5l10.5 67l16 103.5l23.5 150c-0.666992 8.66699 -1.5 15.167 -2.5 19.5s-4.83301 6.5 -11.5 6.5c-4 0 -9 -2.83301 -15 -8.5s-12.667 -12.5 -20 -20.5s-14.5 -16.5 -21.5 -25.5l-19.5 -24.5l-9 7.5l-9 7.5c13.333 36 34.333 67.333 63 94
c12.667 13.333 25.5 21.666 38.5 24.999s26.167 5 39.5 5c14.667 0 27.667 -2.83301 39 -8.5s17.666 -14.167 18.999 -25.5c0.666992 -4 0.833984 -8.16699 0.500977 -12.5s-1 -11.166 -2 -20.499s-2.66699 -22.333 -5 -39s-5.83301 -39.334 -10.5 -68.001l-18 -106.5
l-26 -154.5c0.666992 -8 1.5 -14.167 2.5 -18.5s4.83301 -6.5 11.5 -6.5c4 0 9 2.66699 15 8s12.667 12 20 20s14.5 16.667 21.5 26zM198 568.998l-134 145l80 39l103 -163z" />
    <glyph glyph-name="iacute" unicode="&#xed;" horiz-adv-x="292"
d="M244 137l9 -7.50195l9 -7.5c-7.33301 -17.333 -16.333 -34.166 -27 -50.499s-22.667 -31.166 -36 -44.499s-26.5 -21.5 -39.5 -24.5s-26.167 -4.5 -39.5 -4.5c-14.667 0 -27.667 2.83301 -39 8.5s-17.333 14.167 -18 25.5c0.666992 4.66699 1.16699 9.83398 1.5 15.501
s1.33301 13.5 3 23.5l6.5 40.5l10.5 67l16 103.5l23.5 150c-0.666992 8.66699 -1.5 15.167 -2.5 19.5s-4.83301 6.5 -11.5 6.5c-4 0 -9 -2.83301 -15 -8.5s-12.667 -12.5 -20 -20.5s-14.5 -16.5 -21.5 -25.5l-19.5 -24.5l-9 7.5l-9 7.5c13.333 36 34.333 67.333 63 94
c12.667 13.333 25.5 21.666 38.5 24.999s26.167 5 39.5 5c14.667 0 27.667 -2.83301 39 -8.5s17.666 -14.167 18.999 -25.5c0.666992 -4 0.833984 -8.16699 0.500977 -12.5s-1 -11.166 -2 -20.499s-2.66699 -22.333 -5 -39s-5.83301 -39.334 -10.5 -68.001l-18 -106.5
l-26 -154.5c0.666992 -8 1.5 -14.167 2.5 -18.5s4.83301 -6.5 11.5 -6.5c4 0 9 2.66699 15 8s12.667 12 20 20s14.5 16.667 21.5 26zM190 572.998l-49 21l107 163l80 -39z" />
    <glyph glyph-name="icircumflex" unicode="&#xee;" horiz-adv-x="292"
d="M244 137l9 -7.50195l9 -7.5c-7.33301 -17.333 -16.333 -34.166 -27 -50.499s-22.667 -31.166 -36 -44.499s-26.5 -21.5 -39.5 -24.5s-26.167 -4.5 -39.5 -4.5c-14.667 0 -27.667 2.83301 -39 8.5s-17.333 14.167 -18 25.5c0.666992 4.66699 1.16699 9.83398 1.5 15.501
s1.33301 13.5 3 23.5l6.5 40.5l10.5 67l16 103.5l23.5 150c-0.666992 8.66699 -1.5 15.167 -2.5 19.5s-4.83301 6.5 -11.5 6.5c-4 0 -9 -2.83301 -15 -8.5s-12.667 -12.5 -20 -20.5s-14.5 -16.5 -21.5 -25.5l-19.5 -24.5l-9 7.5l-9 7.5c13.333 36 34.333 67.333 63 94
c12.667 13.333 25.5 21.666 38.5 24.999s26.167 5 39.5 5c14.667 0 27.667 -2.83301 39 -8.5s17.666 -14.167 18.999 -25.5c0.666992 -4 0.833984 -8.16699 0.500977 -12.5s-1 -11.166 -2 -20.499s-2.66699 -22.333 -5 -39s-5.83301 -39.334 -10.5 -68.001l-18 -106.5
l-26 -154.5c0.666992 -8 1.5 -14.167 2.5 -18.5s4.83301 -6.5 11.5 -6.5c4 0 9 2.66699 15 8s12.667 12 20 20s14.5 16.667 21.5 26zM255 580.998l-58 113l-100 -112l-46 15l119 155h76l62 -155z" />
    <glyph glyph-name="idieresis" unicode="&#xef;" horiz-adv-x="292"
d="M270 137l9.00098 -7.50098l9 -7.5c-7.33301 -17.333 -16.333 -34.166 -27 -50.499s-22.667 -31.166 -36 -44.499s-26.5 -21.5 -39.5 -24.5s-26.167 -4.5 -39.5 -4.5c-14.667 0 -27.667 2.83301 -39 8.5s-17.333 14.167 -18 25.5
c0.666992 4.66699 1.16699 9.83398 1.5 15.501s1.33301 13.5 3 23.5l6.5 40.5l10.5 67l16 103.5l23.5 150c-0.666992 8.66699 -1.5 15.167 -2.5 19.5s-4.83301 6.5 -11.5 6.5c-4 0 -9 -2.83301 -15 -8.5s-12.667 -12.5 -20 -20.5s-14.5 -16.5 -21.5 -25.5l-19.5 -24.5
l-9 7.5l-9 7.5c13.333 36 34.333 67.333 63 94c12.667 13.333 25.5 21.666 38.5 24.999s26.167 5 39.5 5c14.667 0 27.667 -2.83301 39 -8.5s17.666 -14.167 18.999 -25.5v-13c0 -4 -0.5 -10.667 -1.5 -20s-2.66699 -22.333 -5 -39s-5.83301 -39.334 -10.5 -68.001
l-18 -106.5l-26 -154.5c0.666992 -8 1.5 -14.167 2.5 -18.5s4.83301 -6.5 11.5 -6.5c4 0 9 2.66699 15 8s12.667 12 20 20s14.5 16.667 21.5 26zM147.001 642.999c-6 -37.333 -29.667 -56 -71 -56c-42 0 -60.333 18 -55 54c6 36.667 30 55 72 55
c40.667 0 58.667 -17.667 54 -53zM379.001 640.999c-6 -37.333 -29.333 -56 -70 -56c-42.667 0 -61 18 -55 54c6 36.667 30 55 72 55c41.333 0 59 -17.667 53 -53z" />
    <glyph glyph-name="eth" unicode="&#xf0;" horiz-adv-x="595"
d="M573 283c-15.333 -94.667 -48.666 -167.33 -99.999 -217.997s-114 -76 -188 -76c-39.333 0 -72.5 6.66699 -99.5 20s-48.333 31.666 -64 54.999s-25.667 50.833 -30 82.5s-3.5 65.834 2.5 102.501c5.33301 34 16.166 66.667 32.499 98s36.666 58.833 60.999 82.5
s52.5 42.667 84.5 57s66.333 21.5 103 21.5c52 0 92.333 -15.333 121 -46c-10 64.667 -32.667 117 -68 157l-137 -69l-18 47l117 58c-16 12 -33.833 22.833 -53.5 32.5s-41.167 18.167 -64.5 25.5l41 54c30.667 -8.66699 58.334 -19.334 83.001 -32.001
s46.667 -27.334 66 -44.001l154 77l18 -46l-135 -68c38.667 -46.667 63.5 -101.834 74.5 -165.501s10.833 -132.167 -0.5 -205.5zM479 249.004c4 22.667 5.50098 46 4.50098 70s-5.66699 45.5 -14 64.5s-20.833 34.667 -37.5 47s-38.667 18.5 -66 18.5
s-51.5 -6.16699 -72.5 -18.5s-39.333 -28 -55 -47s-28.167 -40.5 -37.5 -64.5s-16 -47.333 -20 -70c-3.33301 -23.333 -4.5 -46.833 -3.5 -70.5s5.5 -45.167 13.5 -64.5s20.333 -35 37 -47s39 -18 67 -18c26.667 0 50.667 6 72 18s39.666 27.667 54.999 47
s27.833 40.833 37.5 64.5s16.167 47.167 19.5 70.5z" />
    <glyph glyph-name="ntilde" unicode="&#xf1;" horiz-adv-x="531"
d="M56 -1l69.002 418.997c-0.666992 8.66699 -1.83398 15.167 -3.50098 19.5s-5.83398 6.5 -12.501 6.5c-4 0 -9 -2.83301 -15 -8.5s-12.667 -12.5 -20 -20.5s-14.5 -16.5 -21.5 -25.5l-19.5 -24.5l-9 7.5l-9 7.5c13.333 36 34.333 67.333 63 94
c12.667 13.333 25.5 21.666 38.5 24.999s26.167 5 39.5 5c14.667 0 28 -2.66699 40 -8s18 -14 18 -26c0 -2.66699 -0.166992 -4.66699 -0.5 -6s-0.666016 -3.16602 -0.999023 -5.49902s-1 -6 -2 -11s-2.16699 -12.5 -3.5 -22.5c23.333 22.667 49.333 42.334 78 59.001
s58 25 88 25c50.667 0 88.5 -11.5 113.5 -34.5s33.167 -59.833 24.5 -110.5l-43 -281c0.666992 -8 1.5 -14.167 2.5 -18.5s4.83301 -6.5 11.5 -6.5c4 0 9 2.66699 15 8s12.667 12 20 20s14.5 16.667 21.5 26l19.5 25l9 -7.5l9 -7.5
c-7.33301 -17.333 -16.333 -34.166 -27 -50.499s-22.667 -31.166 -36 -44.499s-26.5 -21.5 -39.5 -24.5s-26.167 -4.5 -39.5 -4.5c-14.667 0 -27.667 2.83301 -39 8.5s-17.333 14.167 -18 25.5l2 16c0.666992 5.33301 1.5 12.5 2.5 21.5s2.66699 20.5 5 34.5l9 55l13.5 83
l19 119c2 16 0.833008 29 -3.5 39s-10.666 17.833 -18.999 23.5s-17.5 9.5 -27.5 11.5s-19.333 3 -28 3c-16 0 -31 -2.83301 -45 -8.5s-27.333 -13 -40 -22s-24.834 -19 -36.501 -30s-22.834 -22.167 -33.501 -33.5l-55 -345h-84zM584.002 682.997
c-6 -13.333 -12.665 -26 -19.998 -38s-15.833 -22.667 -25.5 -32s-20.5 -16.833 -32.5 -22.5s-25.667 -8.5 -41 -8.5c-18.667 0 -33.667 2.33301 -45 7s-21.333 10 -30 16s-16.834 11.333 -24.501 16s-17.167 7 -28.5 7c-13.333 0 -25.5 -5.66699 -36.5 -17
s-18.5 -23 -22.5 -35l-47 12c5.33301 12.667 11.833 25 19.5 37s16.5 22.667 26.5 32s21 16.833 33 22.5s25.333 8.5 40 8.5c18.667 0 34 -2.33301 46 -7s22.667 -10 32 -16l25.5 -16c7.66699 -4.66699 16.167 -7 25.5 -7c14.667 0 26.667 5 36 15s17.666 22.667 24.999 38
l44 -12v0z" />
    <glyph glyph-name="ograve" unicode="&#xf2;" horiz-adv-x="454"
d="M323 579l-138 145l80 39l107 -163zM508 249c-5.33301 -35.333 -15.6641 -68.667 -30.9971 -100s-34.833 -58.833 -58.5 -82.5s-51 -42.5 -82 -56.5s-64.833 -21 -101.5 -21c-39.333 0 -72.833 6.66699 -100.5 20s-49.834 31.666 -66.501 54.999s-27.5 50.833 -32.5 82.5
s-4.83301 65.834 0.5 102.501c5.33301 34.667 16.166 67.667 32.499 99s36.833 59 61.5 83s53 43 85 57s66.333 21 103 21c39.333 0 72.5 -6.66699 99.5 -20s48.167 -31.666 63.5 -54.999s25.166 -50.833 29.499 -82.5s3.5 -65.834 -2.5 -102.501zM421.002 248.999
c4 22.667 5.50195 45.834 4.50195 69.501s-5.66699 45.167 -14 64.5s-20.833 35 -37.5 47s-38.667 18 -66 18s-51.5 -6 -72.5 -18s-39.333 -27.667 -55 -47s-28.167 -40.833 -37.5 -64.5s-16 -46.834 -20 -69.501c-3.33301 -23.333 -4 -46.833 -2 -70.5s7.66699 -45 17 -64
s22.666 -34.5 39.999 -46.5s40 -18 68 -18c26.667 0 50.167 6 70.5 18s37.666 27.5 51.999 46.5s25.833 40.333 34.5 64s14.667 47.167 18 70.5z" />
    <glyph glyph-name="oacute" unicode="&#xf3;" horiz-adv-x="454"
d="M346 575l-49 21l103 163l80 -39zM508 249c-5.33301 -35.333 -15.6641 -68.667 -30.9971 -100s-34.833 -58.833 -58.5 -82.5s-51 -42.5 -82 -56.5s-64.833 -21 -101.5 -21c-39.333 0 -72.833 6.66699 -100.5 20s-49.834 31.666 -66.501 54.999s-27.5 50.833 -32.5 82.5
s-4.83301 65.834 0.5 102.501c5.33301 34.667 16.166 67.667 32.499 99s36.833 59 61.5 83s53 43 85 57s66.333 21 103 21c39.333 0 72.5 -6.66699 99.5 -20s48.167 -31.666 63.5 -54.999s25.166 -50.833 29.499 -82.5s3.5 -65.834 -2.5 -102.501zM421.002 248.999
c4 22.667 5.50195 45.834 4.50195 69.501s-5.66699 45.167 -14 64.5s-20.833 35 -37.5 47s-38.667 18 -66 18s-51.5 -6 -72.5 -18s-39.333 -27.667 -55 -47s-28.167 -40.833 -37.5 -64.5s-16 -46.834 -20 -69.501c-3.33301 -23.333 -4 -46.833 -2 -70.5s7.66699 -45 17 -64
s22.666 -34.5 39.999 -46.5s40 -18 68 -18c26.667 0 50.167 6 70.5 18s37.666 27.5 51.999 46.5s25.833 40.333 34.5 64s14.667 47.167 18 70.5z" />
    <glyph glyph-name="ocircumflex" unicode="&#xf4;" horiz-adv-x="454"
d="M509 249c-5.33301 -35.333 -15.6641 -68.667 -30.9971 -100s-34.833 -58.833 -58.5 -82.5s-51 -42.5 -82 -56.5s-64.833 -21 -101.5 -21c-39.333 0 -72.833 6.66699 -100.5 20s-49.834 31.666 -66.501 54.999s-27.5 50.833 -32.5 82.5s-4.83301 65.834 0.5 102.501
c5.33301 34.667 16.166 67.667 32.499 99s36.833 59 61.5 83s53 43 85 57s66.333 21 103 21c39.333 0 72.5 -6.66699 99.5 -20s48.167 -31.666 63.5 -54.999s25.166 -50.833 29.499 -82.5s3.5 -65.834 -2.5 -102.501zM422.002 248.999
c4 22.667 5.50195 45.834 4.50195 69.501s-5.66699 45.167 -14 64.5s-20.833 35 -37.5 47s-38.667 18 -66 18s-51.5 -6 -72.5 -18s-39.333 -27.667 -55 -47s-28.167 -40.833 -37.5 -64.5s-16 -46.834 -20 -69.501c-3.33301 -23.333 -4 -46.833 -2 -70.5s7.66699 -45 17 -64
s22.666 -34.5 39.999 -46.5s40 -18 68 -18c26.667 0 50.167 6 70.5 18s37.666 27.5 51.999 46.5s25.833 40.333 34.5 64s14.667 47.167 18 70.5zM424.004 559.999l-58 113l-100 -112l-46 15l119 155h76l62 -155z" />
    <glyph glyph-name="otilde" unicode="&#xf5;" horiz-adv-x="454"
d="M509 249c-5.33301 -35.333 -15.6641 -68.667 -30.9971 -100s-34.833 -58.833 -58.5 -82.5s-51 -42.5 -82 -56.5s-64.833 -21 -101.5 -21c-39.333 0 -72.833 6.66699 -100.5 20s-49.834 31.666 -66.501 54.999s-27.5 50.833 -32.5 82.5s-4.83301 65.834 0.5 102.501
c5.33301 34.667 16.166 67.667 32.499 99s36.833 59 61.5 83s53 43 85 57s66.333 21 103 21c39.333 0 72.5 -6.66699 99.5 -20s48.167 -31.666 63.5 -54.999s25.166 -50.833 29.499 -82.5s3.5 -65.834 -2.5 -102.501zM422.002 248.999
c4 22.667 5.50195 45.834 4.50195 69.501s-5.66699 45.167 -14 64.5s-20.833 35 -37.5 47s-38.667 18 -66 18s-51.5 -6 -72.5 -18s-39.333 -27.667 -55 -47s-28.167 -40.833 -37.5 -64.5s-16 -46.834 -20 -69.501c-3.33301 -23.333 -4 -46.833 -2 -70.5s7.66699 -45 17 -64
s22.666 -34.5 39.999 -46.5s40 -18 68 -18c26.667 0 50.167 6 70.5 18s37.666 27.5 51.999 46.5s25.833 40.333 34.5 64s14.667 47.167 18 70.5zM524.004 688.999c-6 -13.333 -12.665 -26 -19.998 -38s-15.833 -22.667 -25.5 -32s-20.5 -16.833 -32.5 -22.5
s-25.667 -8.5 -41 -8.5c-18.667 0 -33.667 2.33301 -45 7s-21.333 10 -30 16s-16.834 11.333 -24.501 16s-17.167 7 -28.5 7c-13.333 0 -25.5 -5.66699 -36.5 -17s-18.5 -23 -22.5 -35l-47 12c5.33301 12.667 11.833 25 19.5 37s16.5 22.667 26.5 32s21 16.833 33 22.5
s25.333 8.5 40 8.5c18.667 0 34 -2.33301 46 -7s22.667 -10 32 -16l25.5 -16c7.66699 -4.66699 16.167 -7 25.5 -7c14.667 0 26.667 5 36 15s17.666 22.667 24.999 38l44 -12v0z" />
    <glyph glyph-name="odieresis" unicode="&#xf6;" horiz-adv-x="454"
d="M509 249c-5.33301 -35.333 -15.6641 -68.667 -30.9971 -100s-34.833 -58.833 -58.5 -82.5s-51 -42.5 -82 -56.5s-64.833 -21 -101.5 -21c-39.333 0 -72.833 6.66699 -100.5 20s-49.834 31.666 -66.501 54.999s-27.5 50.833 -32.5 82.5s-4.83301 65.834 0.5 102.501
c5.33301 34.667 16.166 67.667 32.499 99s36.833 59 61.5 83s53 43 85 57s66.333 21 103 21c39.333 0 72.5 -6.66699 99.5 -20s48.167 -31.666 63.5 -54.999s25.166 -50.833 29.499 -82.5s3.5 -65.834 -2.5 -102.501zM422.002 248.999
c4 22.667 5.50195 45.834 4.50195 69.501s-5.66699 45.167 -14 64.5s-20.833 35 -37.5 47s-38.667 18 -66 18s-51.5 -6 -72.5 -18s-39.333 -27.667 -55 -47s-28.167 -40.833 -37.5 -64.5s-16 -46.834 -20 -69.501c-3.33301 -23.333 -4 -46.833 -2 -70.5s7.66699 -45 17 -64
s22.666 -34.5 39.999 -46.5s40 -18 68 -18c26.667 0 50.167 6 70.5 18s37.666 27.5 51.999 46.5s25.833 40.333 34.5 64s14.667 47.167 18 70.5zM302.004 636.999c-6 -37.333 -29.667 -56 -71 -56c-42 0 -60.333 18 -55 54c6 36.667 30 55 72 55
c40.667 0 58.667 -17.667 54 -53zM534.004 634.999c-6 -37.333 -29.333 -56 -70 -56c-42.667 0 -61 18 -55 54c6 36.667 30 55 72 55c41.333 0 59 -17.667 53 -53z" />
    <glyph glyph-name="divide" unicode="&#xf7;" horiz-adv-x="584"
d="M88 217l12 71h475l-12 -71h-475zM245 0l15 96h92l-15 -96h-92zM310 402l15 96h92l-15 -96h-92z" />
    <glyph glyph-name="oslash" unicode="&#xf8;" horiz-adv-x="454"
d="M523 437c16 -23.333 26.501 -50.667 31.501 -82s4.83301 -65.333 -0.5 -102c-5.33301 -35.333 -15.833 -68.833 -31.5 -100.5s-35.667 -59.5 -60 -83.5s-52.333 -43.167 -84 -57.5s-65.834 -21.833 -102.501 -22.5c-58.667 -0.666992 -105 13.333 -139 42l-73 -78l-33 23
l80 85c-16 23.333 -26.333 50.5 -31 81.5s-4.33398 65.167 0.999023 102.5c4.66699 34.667 15 67.834 31 99.501s36.167 59.667 60.5 84s52.333 43.666 84 57.999s65.834 21.833 102.501 22.5c57.333 0.666992 103 -13.333 137 -42l73 78l35 -23zM439.001 408.999
c-9.33301 12 -21.168 21.668 -35.501 29.001s-32.166 10.666 -53.499 9.99902c-27.333 -0.666992 -51.5 -7.16699 -72.5 -19.5s-39 -28.166 -54 -47.499s-27.167 -40.833 -36.5 -64.5s-15.666 -46.834 -18.999 -69.501c-2.66699 -20.667 -3.83398 -41.167 -3.50098 -61.5
s3.83301 -39.5 10.5 -57.5l264 281v0zM466.999 251c2.66699 20 3.66895 40.332 3.00195 60.999s-4.33398 40 -11.001 58l-265 -281c9.33301 -12 21.5 -21.667 36.5 -29s33.167 -10.666 54.5 -9.99902c26.667 0.666992 50.667 7.16699 72 19.5s39.5 28 54.5 47
s27.167 40.333 36.5 64s15.666 47.167 18.999 70.5z" />
    <glyph glyph-name="ugrave" unicode="&#xf9;" horiz-adv-x="531"
d="M328 578l-138 145l80 39l107 -163zM533 507l-69.0039 -418.998c0.666992 -8.66699 1.83398 -15.167 3.50098 -19.5s5.83398 -6.5 12.501 -6.5c4 0 9 2.83301 15 8.5s12.667 12.5 20 20.5s14.5 16.5 21.5 25.5l19.5 24.5l9 -7.5l9 -7.5
c-13.333 -36 -34.333 -67.333 -63 -94c-12.667 -13.333 -25.5 -21.666 -38.5 -24.999s-26.167 -5 -39.5 -5c-14.667 0 -27.667 2.83301 -39 8.5s-17.666 14.167 -18.999 25.5v5c0 1.33301 0.333008 3.33301 1 6s1.5 6.5 2.5 11.5s2.16699 12.5 3.5 22.5
c-23.333 -22.667 -49.333 -42.334 -78 -59.001s-58 -25 -88 -25c-50.667 0 -88.5 11.5 -113.5 34.5s-33.167 59.833 -24.5 110.5l43 281c-0.666992 8 -1.5 14.167 -2.5 18.5s-4.83301 6.5 -11.5 6.5c-4 0 -9 -2.66699 -15 -8s-12.667 -12 -20 -20s-14.5 -16.667 -21.5 -26
l-19.5 -25l-9 7.5l-9 7.5c7.33301 17.333 16.333 34.166 27 50.499s22.667 31.166 36 44.499s26.5 21.5 39.5 24.5s26.167 4.5 39.5 4.5c14.667 0 27.667 -2.83301 39 -8.5s17.333 -14.167 18 -25.5l-2 -16c-0.666992 -5.33301 -1.5 -12.5 -2.5 -21.5
s-2.66699 -20.5 -5 -34.5l-9 -55l-13.5 -83l-19 -119c-2 -16 -0.833008 -29 3.5 -39s10.666 -17.833 18.999 -23.5s17.5 -9.5 27.5 -11.5s19.333 -3 28 -3c16 0 31 2.83301 45 8.5s27.333 13 40 22s24.834 19 36.501 30s22.834 22.167 33.501 33.5l55 345h84z" />
    <glyph glyph-name="uacute" unicode="&#xfa;" horiz-adv-x="531"
d="M338 578l-49 21l103 163l80 -39zM533 507l-69.0039 -418.998c0.666992 -8.66699 1.83398 -15.167 3.50098 -19.5s5.83398 -6.5 12.501 -6.5c4 0 9 2.83301 15 8.5s12.667 12.5 20 20.5s14.5 16.5 21.5 25.5l19.5 24.5l9 -7.5l9 -7.5c-13.333 -36 -34.333 -67.333 -63 -94
c-12.667 -13.333 -25.5 -21.666 -38.5 -24.999s-26.167 -5 -39.5 -5c-14.667 0 -27.667 2.83301 -39 8.5s-17.666 14.167 -18.999 25.5v5c0 1.33301 0.333008 3.33301 1 6s1.5 6.5 2.5 11.5s2.16699 12.5 3.5 22.5c-23.333 -22.667 -49.333 -42.334 -78 -59.001
s-58 -25 -88 -25c-50.667 0 -88.5 11.5 -113.5 34.5s-33.167 59.833 -24.5 110.5l43 281c-0.666992 8 -1.5 14.167 -2.5 18.5s-4.83301 6.5 -11.5 6.5c-4 0 -9 -2.66699 -15 -8s-12.667 -12 -20 -20s-14.5 -16.667 -21.5 -26l-19.5 -25l-9 7.5l-9 7.5
c7.33301 17.333 16.333 34.166 27 50.499s22.667 31.166 36 44.499s26.5 21.5 39.5 24.5s26.167 4.5 39.5 4.5c14.667 0 27.667 -2.83301 39 -8.5s17.333 -14.167 18 -25.5l-2 -16c-0.666992 -5.33301 -1.5 -12.5 -2.5 -21.5s-2.66699 -20.5 -5 -34.5l-9 -55l-13.5 -83
l-19 -119c-2 -16 -0.833008 -29 3.5 -39s10.666 -17.833 18.999 -23.5s17.5 -9.5 27.5 -11.5s19.333 -3 28 -3c16 0 31 2.83301 45 8.5s27.333 13 40 22s24.834 19 36.501 30s22.834 22.167 33.501 33.5l55 345h84z" />
    <glyph glyph-name="ucircumflex" unicode="&#xfb;" horiz-adv-x="531"
d="M534 507l-69.0039 -418.998c0.666992 -8.66699 1.83398 -15.167 3.50098 -19.5s5.83398 -6.5 12.501 -6.5c4 0 9 2.83301 15 8.5s12.667 12.5 20 20.5s14.5 16.5 21.5 25.5l19.5 24.5l9 -7.5l9 -7.5c-13.333 -36 -34.333 -67.333 -63 -94
c-12.667 -13.333 -25.5 -21.666 -38.5 -24.999s-26.167 -5 -39.5 -5c-14.667 0 -27.667 2.83301 -39 8.5s-17.666 14.167 -18.999 25.5v5c0 1.33301 0.333008 3.33301 1 6s1.5 6.5 2.5 11.5s2.16699 12.5 3.5 22.5c-23.333 -22.667 -49.333 -42.334 -78 -59.001
s-58 -25 -88 -25c-50.667 0 -88.5 11.5 -113.5 34.5s-33.167 59.833 -24.5 110.5l43 281c-0.666992 8 -1.5 14.167 -2.5 18.5s-4.83301 6.5 -11.5 6.5c-4 0 -9 -2.66699 -15 -8s-12.667 -12 -20 -20s-14.5 -16.667 -21.5 -26l-19.5 -25l-9 7.5l-9 7.5
c7.33301 17.333 16.333 34.166 27 50.499s22.667 31.166 36 44.499s26.5 21.5 39.5 24.5s26.167 4.5 39.5 4.5c14.667 0 27.667 -2.83301 39 -8.5s17.333 -14.167 18 -25.5l-2 -16c-0.666992 -5.33301 -1.5 -12.5 -2.5 -21.5s-2.66699 -20.5 -5 -34.5l-9 -55l-13.5 -83
l-19 -119c-2 -16 -0.833008 -29 3.5 -39s10.666 -17.833 18.999 -23.5s17.5 -9.5 27.5 -11.5s19.333 -3 28 -3c16 0 31 2.83301 45 8.5s27.333 13 40 22s24.834 19 36.501 30s22.834 22.167 33.501 33.5l55 345h84zM414.996 568.002l-58 113l-100 -112l-46 15l119 155h76
l62 -155z" />
    <glyph glyph-name="udieresis" unicode="&#xfc;" horiz-adv-x="531"
d="M534 507l-69.0039 -418.998c0.666992 -8.66699 1.83398 -15.167 3.50098 -19.5s5.83398 -6.5 12.501 -6.5c4 0 9 2.83301 15 8.5s12.667 12.5 20 20.5s14.5 16.5 21.5 25.5l19.5 24.5l9 -7.5l9 -7.5c-13.333 -36 -34.333 -67.333 -63 -94
c-12.667 -13.333 -25.5 -21.666 -38.5 -24.999s-26.167 -5 -39.5 -5c-14.667 0 -27.667 2.83301 -39 8.5s-17.666 14.167 -18.999 25.5v5c0 1.33301 0.333008 3.33301 1 6s1.5 6.5 2.5 11.5s2.16699 12.5 3.5 22.5c-23.333 -22.667 -49.333 -42.334 -78 -59.001
s-58 -25 -88 -25c-50.667 0 -88.5 11.5 -113.5 34.5s-33.167 59.833 -24.5 110.5l43 281c-0.666992 8 -1.5 14.167 -2.5 18.5s-4.83301 6.5 -11.5 6.5c-4 0 -9 -2.66699 -15 -8s-12.667 -12 -20 -20s-14.5 -16.667 -21.5 -26l-19.5 -25l-9 7.5l-9 7.5
c7.33301 17.333 16.333 34.166 27 50.499s22.667 31.166 36 44.499s26.5 21.5 39.5 24.5s26.167 4.5 39.5 4.5c14.667 0 27.667 -2.83301 39 -8.5s17.333 -14.167 18 -25.5l-2 -16c-0.666992 -5.33301 -1.5 -12.5 -2.5 -21.5s-2.66699 -20.5 -5 -34.5l-9 -55l-13.5 -83
l-19 -119c-2 -16 -0.833008 -29 3.5 -39s10.666 -17.833 18.999 -23.5s17.5 -9.5 27.5 -11.5s19.333 -3 28 -3c16 0 31 2.83301 45 8.5s27.333 13 40 22s24.834 19 36.501 30s22.834 22.167 33.501 33.5l55 345h84zM292.996 656.002c-6 -37.333 -29.667 -56 -71 -56
c-42 0 -60.333 18 -55 54c6 36.667 30 55 72 55c40.667 0 58.667 -17.667 54 -53zM524.996 654.002c-6 -37.333 -29.333 -56 -70 -56c-42.667 0 -61 18 -55 54c6 36.667 30 55 72 55c41.333 0 59 -17.667 53 -53z" />
    <glyph glyph-name="yacute" unicode="&#xfd;" horiz-adv-x="497"
d="M255 579l-49 21l103 163l80 -39zM-59 412c8 10 18.5059 21.333 31.5059 34s27.167 24.5 42.5 35.5s30.666 19.667 45.999 26s29.666 8.16602 42.999 5.49902c11.333 -3.33301 20.333 -11.333 27 -24s11.667 -28 15 -46l64 -271
c1.33301 -7.33301 2.66602 -15.833 3.99902 -25.5l4 -28l3.5 -24c1 -7 1.5 -11.167 1.5 -12.5c0 0.666992 1.5 4.5 4.5 11.5l10.5 24.5c4 9.33301 8.5 19 13.5 29l13.5 26l139 279l-63 35v26h176l-180 -348l-46.5 -82.5c-15.667 -27 -30.834 -54.5 -45.501 -82.5l-31 -60.5
l-32 -60.5c-10.667 -19.333 -21.334 -37.166 -32.001 -53.499s-21.334 -28.833 -32.001 -37.5c-13.333 -12 -25.833 -21.167 -37.5 -27.5s-23.834 -11 -36.501 -14s-26.167 -4.66699 -40.5 -5s-30.5 -0.166016 -48.5 0.500977v59
c20 -0.666992 39.167 -0.333984 57.5 0.999023s34.833 8.33301 49.5 21c10 8.66699 20.167 21.334 30.5 38.001s20 34 29 52l24.5 51c7.33301 16 13.333 28.333 18 37l-109 446c-2.66699 2 -4.16699 4.16699 -4.5 6.5s-2.16602 3.16602 -5.49902 2.49902
c-2 0 -6.33301 -2 -13 -6s-14.667 -9.33301 -24 -16l-29 -21.5l-28 -21.5l-10 21v0z" />
    <glyph glyph-name="ydieresis" unicode="&#xfe;" horiz-adv-x="449"
d="M-58 412c8 10 18.5059 21.333 31.5059 34s27.167 24.5 42.5 35.5s30.666 19.667 45.999 26s29.666 8.16602 42.999 5.49902c11.333 -3.33301 20.333 -11.333 27 -24s11.667 -28 15 -46l64 -271c1.33301 -7.33301 2.66602 -15.833 3.99902 -25.5l4 -28l3.5 -24
c1 -7 1.5 -11.167 1.5 -12.5c0 0.666992 1.5 4.5 4.5 11.5l10.5 24.5c4 9.33301 8.5 19 13.5 29l13.5 26l139 279l-63 35v26h176l-180 -348l-46.5 -82.5c-15.667 -27 -30.834 -54.5 -45.501 -82.5l-31 -60.5l-32 -60.5c-10.667 -19.333 -21.334 -37.166 -32.001 -53.499
s-21.334 -28.833 -32.001 -37.5c-13.333 -12 -25.833 -21.167 -37.5 -27.5s-23.834 -11 -36.501 -14s-26.167 -4.66699 -40.5 -5s-30.5 -0.166016 -48.5 0.500977v59c20 -0.666992 39.167 -0.333984 57.5 0.999023s34.833 8.33301 49.5 21
c10 8.66699 20.167 21.334 30.5 38.001s20 34 29 52l24.5 51c7.33301 16 13.333 28.333 18 37l-109 446c-2.66699 2 -4.16699 4.16699 -4.5 6.5s-2.16602 3.16602 -5.49902 2.49902c-2 0 -6.33301 -2 -13 -6s-14.667 -9.33301 -24 -16l-29 -21.5l-28 -21.5l-10 21v0z
M241.006 647c-6 -37.333 -29.667 -56 -71 -56c-42 0 -60.333 18 -55 54c6 36.667 30 55 72 55c40.667 0 58.667 -17.667 54 -53zM473.006 645c-6 -37.333 -29.333 -56 -70 -56c-42.667 0 -61 18 -55 54c6 36.667 30 55 72 55c41.333 0 59 -17.667 53 -53z" />
    <glyph glyph-name="dotlessi" unicode="&#x131;" horiz-adv-x="292"
d="M244 137l9 -7.50195l9 -7.5c-7.33301 -17.333 -16.333 -34.166 -27 -50.499s-22.667 -31.166 -36 -44.499s-26.5 -21.5 -39.5 -24.5s-26.167 -4.5 -39.5 -4.5c-14.667 0 -27.667 2.83301 -39 8.5s-17.333 14.167 -18 25.5c0.666992 4.66699 1.16699 9.83398 1.5 15.501
s1.33301 13.5 3 23.5l6.5 40.5l10.5 67l16 103.5l23.5 150c-0.666992 8.66699 -1.5 15.167 -2.5 19.5s-4.83301 6.5 -11.5 6.5c-4 0 -9 -2.83301 -15 -8.5s-12.667 -12.5 -20 -20.5s-14.5 -16.5 -21.5 -25.5l-19.5 -24.5l-9 7.5l-9 7.5c13.333 36 34.333 67.333 63 94
c12.667 13.333 25.5 21.666 38.5 24.999s26.167 5 39.5 5c14.667 0 27.667 -2.83301 39 -8.5s17.666 -14.167 18.999 -25.5c0.666992 -4 0.833984 -8.16699 0.500977 -12.5s-1 -11.166 -2 -20.499s-2.66699 -22.333 -5 -39s-5.83301 -39.334 -10.5 -68.001l-18 -106.5
l-26 -154.5c0.666992 -8 1.5 -14.167 2.5 -18.5s4.83301 -6.5 11.5 -6.5c4 0 9 2.66699 15 8s12.667 12 20 20s14.5 16.667 21.5 26z" />
    <glyph glyph-name="Lslash" unicode="&#x141;" horiz-adv-x="515"
d="M490 0h-465l4 26l94 37l40 253l-86 -42l-21 56l118 59l38 240l-83 37l4 26h267l-4 -26l-94 -37l-30 -191l165 82l21 -55l-197 -99l-46 -293h210l86 129h26z" />
    <glyph glyph-name="lslash" unicode="&#x142;" horiz-adv-x="249"
d="M211 134l8.99902 -7.50098l9 -7.5c-7.33301 -17.333 -16.333 -34.166 -27 -50.499s-22.667 -31.166 -36 -44.499c-12.667 -13.333 -25.667 -21.5 -39 -24.5s-26.666 -4.5 -39.999 -4.5c-14.667 0 -27.667 2.83301 -39 8.5s-17.333 14.167 -18 25.5
c0 3.33301 0.333008 7 1 11s1.5 10 2.5 18s2.5 18.667 4.5 32s4.83301 31.166 8.5 53.499l13 83l18.5 120.5l-100 -50l-20 55l131 65l38 244l-90 27l3 23l185 41l-45 -290l117 58l20 -54l-148 -74l-48 -312c0.666992 -8 1.66699 -14.167 3 -18.5s5.33301 -6.5 12 -6.5
c4 0 9 2.66699 15 8s12.5 12 19.5 20s14 16.667 21 26z" />
    <glyph glyph-name="OE" unicode="&#x152;" horiz-adv-x="817"
d="M730 222l-21.9971 0.00292969l-20 92h-147l-38 -240h219l81 114h25l-45 -188h-381l-54 -6c-48 0 -91.333 8.16699 -130 24.5s-70.834 39.833 -96.501 70.5s-43.834 67.667 -54.501 111s-12 91.666 -4 144.999c8 52 24.5 99.667 49.5 143s55.333 80.666 91 111.999
s75.167 55.666 118.5 72.999s87.666 26 132.999 26c9.33301 0 18.833 0.166992 28.5 0.5s18.5 -2.16699 26.5 -7.5h374l-30 -187h-25l-31 114h-209l-36 -232h146l50 94h22zM359.003 64.0029c9.33301 0 18.168 -0.333984 26.501 -1.00098s17.166 0 26.499 2l87 561
c-8.66699 2 -17.667 3 -27 3h-28c-34 0 -66.833 -6.5 -98.5 -19.5s-60.334 -31.833 -86.001 -56.5s-47.667 -54.334 -66 -89.001s-30.833 -73.667 -37.5 -117c-6.66699 -41.333 -6.66699 -79.166 0 -113.499s18.834 -64.166 36.501 -89.499s40.667 -45 69 -59
s60.833 -21 97.5 -21z" />
    <glyph glyph-name="oe" unicode="&#x153;" horiz-adv-x="669"
d="M819 73c-30.667 -26 -61.8301 -46.5 -93.4971 -61.5s-66.5 -22.5 -104.5 -22.5c-46 0 -82.667 8.33301 -110 25s-47.666 39.667 -60.999 69c-24 -28.667 -52.833 -51.5 -86.5 -68.5s-70.834 -25.5 -111.501 -25.5c-39.333 0 -72.833 6.66699 -100.5 20
s-49.834 31.666 -66.501 54.999s-27.5 50.833 -32.5 82.5s-4.83301 65.834 0.5 102.501c5.33301 34.667 16.166 67.667 32.499 99s36.833 59 61.5 83s53 43 85 57s66.333 21 103 21c45.333 0 82.333 -8.83301 111 -26.5s50 -41.5 64 -71.5c22.667 28 49.5 50.833 80.5 68.5
s65.833 27.5 104.5 29.5c44.667 2 80.167 -3.83301 106.5 -17.5s44.666 -31.667 54.999 -54s13.333 -47.166 9 -74.499s-14.833 -53.333 -31.5 -78c-11.333 -16.667 -28.5 -31 -51.5 -43s-49 -21.833 -78 -29.5s-59.667 -12.5 -92 -14.5s-63.833 -1.33301 -94.5 2
c-0.666992 -16.667 -0.333984 -33.5 0.999023 -50.5s5.5 -32.5 12.5 -46.5s17.833 -25.333 32.5 -34s35 -13 61 -13c28 0 55.333 5.16699 82 15.5s51.334 25.166 74.001 44.499zM438.004 249c4 22.667 5.50195 45.834 4.50195 69.501s-5.66699 45.167 -14 64.5
s-20.833 35 -37.5 47s-38.667 18 -66 18s-51.5 -6 -72.5 -18s-39.333 -27.667 -55 -47s-28.167 -40.833 -37.5 -64.5s-16 -46.834 -20 -69.501c-3.33301 -23.333 -4 -46.833 -2 -70.5s7.66699 -45 17 -64s22.666 -34.5 39.999 -46.5s40 -18 68 -18
c26.667 0 50.167 6 70.5 18s37.666 27.5 51.999 46.5s25.833 40.333 34.5 64s14.667 47.167 18 70.5zM529.006 285c0 -2.66699 -0.166016 -5.16699 -0.499023 -7.5s-0.5 -4.83301 -0.5 -7.5c21.333 0 44.666 0.666992 69.999 2s49.5 4.16602 72.5 8.49902
s43.333 10.333 61 18s29.834 17.834 36.501 30.501c6 15.333 8.83301 30 8.5 44s-3.83301 26.167 -10.5 36.5s-16.834 18.5 -30.501 24.5s-31.167 9 -52.5 9c-20 0 -38.167 -4.83301 -54.5 -14.5s-30.833 -22.167 -43.5 -37.5s-23.667 -32.333 -33 -51s-17 -37 -23 -55z" />
    <glyph glyph-name="Scaron" unicode="&#x160;" horiz-adv-x="522"
d="M309 752h-76l-86 155l50 16l76 -113l83 112l48 -15zM445 609c-9.33301 6 -21.8281 11.835 -37.4951 17.502s-38.5 8.5 -68.5 8.5c-17.333 0 -34.333 -2.16699 -51 -6.5s-31.667 -11 -45 -20s-24.5 -20 -33.5 -33s-14.833 -28.5 -17.5 -46.5
c-4 -26.667 0.666992 -48.334 14 -65.001s31 -31.334 53 -44.001s46 -24.834 72 -36.501s49.833 -25.667 71.5 -42s38.5 -36.833 50.5 -61.5s15 -56 9 -94c-4.66699 -30.667 -14.5 -58.167 -29.5 -82.5s-33.833 -45 -56.5 -62s-48.167 -30 -76.5 -39
s-57.833 -13.5 -88.5 -13.5c-28 0 -52.333 1.83301 -73 5.5s-38.334 8.33398 -53.001 14.001s-26.834 11.5 -36.501 17.5s-17.834 11.667 -24.501 17l25 156h26l23 -115c10.667 -7.33301 25 -13.333 43 -18s42.667 -7 74 -7c15.333 0 31.333 2.16699 48 6.5s32.5 11 47.5 20
s27.833 20.833 38.5 35.5s17.667 32.334 21 53.001c3.33301 21.333 1.5 39.5 -5.5 54.5s-17.167 28.167 -30.5 39.5s-29 21.5 -47 30.5l-55 27.5c-18.667 9.33301 -36.667 19.5 -54 30.5s-32.333 24.167 -45 39.5s-22 33.5 -28 54.5s-6.66699 46.167 -2 75.5
s14.667 55 30 77s34 40.5 56 55.5s46.333 26.167 73 33.5s53.667 11 81 11s50.666 -1.5 69.999 -4.5s35.833 -6.83301 49.5 -11.5s25.167 -9.83398 34.5 -15.501s17.666 -11.167 24.999 -16.5l-24 -159h-26z" />
    <glyph glyph-name="scaron" unicode="&#x161;" horiz-adv-x="417"
d="M374 348l-25.998 -0.00292969l-24 86c-20 9.33301 -41 14 -63 14c-12 0 -24 -1 -36 -3s-23.167 -5.83301 -33.5 -11.5s-19.166 -13.334 -26.499 -23.001s-12.333 -22.167 -15 -37.5c-2.66699 -17.333 1.16602 -31 11.499 -41s23.666 -19 39.999 -27
s34.166 -15.667 53.499 -23s37 -17 53 -29s28.5 -27.167 37.5 -45.5s11.167 -41.833 6.5 -70.5c-4 -25.333 -12.667 -47.333 -26 -66s-29.333 -34 -48 -46s-38.667 -21 -60 -27s-42.333 -9 -63 -9c-29.333 0 -55.666 3.5 -78.999 10.5s-45.333 17.5 -66 31.5l20 127h26
l23 -87c11.333 -6.66699 23.166 -11.667 35.499 -15s27.833 -5 46.5 -5c24 0 46.167 5.83301 66.5 17.5s32.5 30.834 36.5 57.501c3.33301 20.667 0 37 -10 49s-23 22.167 -39 30.5s-33.833 15.833 -53.5 22.5s-37.5 15.334 -53.5 26.001s-28.667 24.5 -38 41.5
s-11.666 39.5 -6.99902 67.5c4 26.667 13.167 49.334 27.5 68.001s31 33.834 50 45.501s39.333 20 61 25s42.5 7.5 62.5 7.5c21.333 0 44.166 -3 68.499 -9s44.833 -14.333 61.5 -25zM306.002 576.997h-76l-62 155l53 16l58 -113l100 112l46 -15z" />
    <glyph glyph-name="Ydieresis" unicode="&#x178;" horiz-adv-x="545"
d="M345 824c0 -37.333 -20.667 -56 -62 -56c-42 0 -63 18 -63 54c0 36.667 21 55 63 55c41.333 0 62 -17.667 62 -53zM578 822c0 -37.333 -20.667 -56 -62 -56c-42 0 -63 18 -63 54c0 36.667 21 55 63 55c41.333 0 62 -17.667 62 -53zM621 628l-278 -305.001l-40 -260
l106 -37l-3 -26h-312l3 26l118 37l39 253l-177 312l-72 37l3 26h258l-3 -26l-79 -37l86 -157c12.667 -23.333 22.667 -42.833 30 -58.5s11.333 -24.5 12 -26.5c0 0.666992 2.33301 3.83398 7 9.50098l17.5 21l24 28.5l27.5 32l130 147l3 4l-67 37l3 26h250l-3 -26z" />
    <glyph glyph-name="Zcaron" unicode="&#x17d;" horiz-adv-x="594"
d="M143 692h507.001l-439 -536c-7.33301 -9.33301 -15.666 -18.833 -24.999 -28.5l-25 -26.5l-27 -28h46c12.667 0 25.167 0.166992 37.5 0.5s22.166 0.5 29.499 0.5h188l85 125h27l-48 -199h-518l441 541l26.5 31.5c8.33301 9.66699 16.166 18.167 23.499 25.5l23 24
l-38 -2c-11.333 -0.666992 -23.333 -1 -36 -1h-37h-177l-66 -125h-28zM408.001 744h-76l-62 155l53 16l58 -113l100 112l46 -15z" />
    <glyph glyph-name="zcaron" unicode="&#x17e;" horiz-adv-x="562"
d="M206 119c-12.667 -14 -24.998 -26.333 -36.998 -37l-18 -18c9.33301 0 18.333 0.333008 27 1c7.33301 0.666992 15.166 1.16699 23.499 1.5s15.833 0.5 22.5 0.5h185l51 88h26l-24 -155h-461l355 397c6 6.66699 12 13 18 19l17 17c6 6 11.667 11.333 17 16l-27 -2
c-7.33301 -0.666992 -15.333 -1.16699 -24 -1.5s-16.334 -0.5 -23.001 -0.5h-186l-51 -88h-26l25 156h463zM341.002 574h-76l-62 155l53 16l58 -113l100 112l46 -15z" />
    <glyph glyph-name="florin" unicode="&#x192;" horiz-adv-x="469"
d="M562 697h-10.9971c-3.33301 0 -6.83301 0.166992 -10.5 0.5s-7.16699 0.5 -10.5 0.5c-21.333 0 -41.333 -4.66699 -60 -14s-35.5 -22.166 -50.5 -38.499s-28 -35.333 -39 -57s-19.167 -44.834 -24.5 -69.501l-28 -132h125l-15 -69h-124l-70 -320
c-8.66699 -38.667 -20.834 -74 -36.501 -106s-35 -59.5 -58 -82.5s-49.333 -40.833 -79 -53.5s-62.5 -19 -98.5 -19h-23c-4 0 -8 0.333008 -12 1l15 64c4 -0.666992 7.66699 -1 11 -1h21c20.667 0 40.167 4.66699 58.5 14s35 22.166 50 38.499s28 35.333 39 57
s19.167 44.834 24.5 69.501l73 338h-95l16 69h94l24 114c8 38.667 20 74 36 106s35.5 59.5 58.5 82.5s49.5 40.833 79.5 53.5s63.333 19 100 19c3.33301 0 7.16602 -0.166992 11.499 -0.5s8.16602 -0.5 11.499 -0.5h12z" />
    <glyph glyph-name="circumflex" unicode="&#x2c6;"
d="M342 568l-58 113l-100 -112l-46 15l119 155h76l62 -155z" />
    <glyph glyph-name="caron" unicode="&#x2c7;"
d="M276 577h-76l-62 155l53 16l58 -113l100 112l46 -15z" />
    <glyph glyph-name="breve" unicode="&#x2d8;"
d="M473 714c-9.33301 -42 -30.335 -75.502 -63.002 -100.502s-70.667 -37.5 -114 -37.5c-45.333 0 -79.166 11.333 -101.499 34s-31.5 57.334 -27.5 104.001l48 6c0 -30 8.83301 -51.5 26.5 -64.5s39.834 -19.5 66.501 -19.5c28 0 52.167 5.83301 72.5 17.5
s35.833 33.834 46.5 66.501l46 -6v0z" />
    <glyph glyph-name="dotaccent" unicode="&#x2d9;"
d="M386 642c-3.33301 -22 -10.334 -37.499 -21.001 -46.499s-27 -13.5 -49 -13.5c-23.333 0 -39.166 4.66699 -47.499 14s-10.833 24.666 -7.5 45.999s10.5 36.666 21.5 45.999s27.833 14 50.5 14c22 0 37.167 -4.66699 45.5 -14s10.833 -24.666 7.5 -45.999z" />
    <glyph glyph-name="ring" unicode="&#x2da;"
d="M416 653c-4.66699 -29.333 -18.334 -53.666 -41.001 -72.999s-50 -29 -82 -29c-30.667 0 -55 8.83301 -73 26.5s-24.333 42.834 -19 75.501c4.66699 29.333 18.667 53.666 42 72.999s51 29 83 29s56.333 -8.83301 73 -26.5s22.334 -42.834 17.001 -75.501zM366 653
c3.33301 20.667 0.333008 36 -9 46s-22.333 15 -39 15c-16 0 -30.333 -5.33301 -43 -16s-20.667 -25.667 -24 -45c-3.33301 -20.667 -0.333008 -36 9 -46s22.333 -15 39 -15c17.333 0 32 5.83301 44 17.5s19.667 26.167 23 43.5z" />
    <glyph glyph-name="ogonek" unicode="&#x2db;"
d="M466 -1l-31.002 -15.4961c-15.333 -7.66699 -31.666 -17.5 -48.999 -29.5s-33.333 -26 -48 -42s-23.334 -33.333 -26.001 -52c-6 -34.667 8 -52 42 -52c6.66699 0 14.5 0.166992 23.5 0.5s17.167 1.16602 24.5 2.49902l-2 -43c-11.333 -2 -23.166 -3.66699 -35.499 -5
s-23.833 -2 -34.5 -2c-14.667 0 -28.5 1.66699 -41.5 5s-24.333 8.66602 -34 15.999s-16.667 16.833 -21 28.5s-5.16602 26.167 -2.49902 43.5c2.66699 18.667 12.5 36.667 29.5 54s36.667 33.166 59 47.499s45.333 27.166 69 38.499s43.5 20.333 59.5 27l18 -22v0z" />
    <glyph glyph-name="tilde" unicode="&#x2dc;"
d="M493 680c-6 -13.333 -12.665 -26 -19.998 -38s-15.833 -22.667 -25.5 -32s-20.5 -16.833 -32.5 -22.5s-25.667 -8.5 -41 -8.5c-18.667 0 -33.667 2.33301 -45 7s-21.333 10 -30 16s-16.834 11.333 -24.501 16s-17.167 7 -28.5 7c-13.333 0 -25.5 -5.66699 -36.5 -17
s-18.5 -23 -22.5 -35l-47 12c5.33301 12.667 11.833 25 19.5 37s16.5 22.667 26.5 32s21 16.833 33 22.5s25.333 8.5 40 8.5c18.667 0 34 -2.33301 46 -7s22.667 -10 32 -16l25.5 -16c7.66699 -4.66699 16.167 -7 25.5 -7c14.667 0 26.667 5 36 15s17.666 22.667 24.999 38
l44 -12v0z" />
    <glyph glyph-name="hungarumlaut" unicode="&#x2dd;"
d="M333 588l-55 16l125 156l79 -31zM183 588l-55 16l125 156l79 -31z" />
    <glyph glyph-name="Delta" unicode="&#x394;" horiz-adv-x="674"
d="M13 0l394 712h83l172 -712h-649zM435 628l-304 -556h430z" />
    <glyph glyph-name="Delta" unicode="&#x2206;" horiz-adv-x="674"
d="M13 0l394 712h83l172 -712h-649zM435 628l-304 -556h430z" />
    <glyph glyph-name="Omega" unicode="&#x3a9;" horiz-adv-x="744"
d="M65 197l26 0.000976562l46 -129h116v-1h1l11 72c-29.333 8.66699 -54.666 22 -75.999 40s-38.333 39 -51 63s-21 50.667 -25 80s-3.33301 59.666 2 90.999c6.66699 44.667 21.5 86 44.5 124s51 70.5 84 97.5s70 48.167 111 63.5s83.5 23 127.5 23s84.333 -7.5 121 -22.5
s67.5 -36 92.5 -63s43 -59.333 54 -97s13.167 -78.834 6.5 -123.501c-5.33301 -32 -14.333 -62.667 -27 -92s-28.834 -56.166 -48.501 -80.499s-43 -45.5 -70 -63.5s-56.833 -31.333 -89.5 -40l-11 -72h1v1h116l86 129h26l-46 -197h-257l28 183c60 11.333 108 37.5 144 78.5
s58.667 90.5 68 148.5c5.33301 34.667 4.16602 66.5 -3.50098 95.5s-20.667 54.167 -39 75.5s-41.333 38 -69 50s-58.834 18 -93.501 18c-34 0 -66.667 -6 -98 -18s-59.166 -28.667 -83.499 -50s-44.833 -46.666 -61.5 -75.999s-27.667 -61 -33 -95
c-4.66699 -28 -5.16699 -54.833 -1.5 -80.5s11.334 -48.5 23.001 -68.5s27.5 -36.833 47.5 -50.5s44 -22.834 72 -27.501l-28 -183h-257z" />
    <glyph glyph-name="Omega" unicode="&#x2126;" horiz-adv-x="744"
d="M65 197l26 0.000976562l46 -129h116v-1h1l11 72c-29.333 8.66699 -54.666 22 -75.999 40s-38.333 39 -51 63s-21 50.667 -25 80s-3.33301 59.666 2 90.999c6.66699 44.667 21.5 86 44.5 124s51 70.5 84 97.5s70 48.167 111 63.5s83.5 23 127.5 23s84.333 -7.5 121 -22.5
s67.5 -36 92.5 -63s43 -59.333 54 -97s13.167 -78.834 6.5 -123.501c-5.33301 -32 -14.333 -62.667 -27 -92s-28.834 -56.166 -48.501 -80.499s-43 -45.5 -70 -63.5s-56.833 -31.333 -89.5 -40l-11 -72h1v1h116l86 129h26l-46 -197h-257l28 183c60 11.333 108 37.5 144 78.5
s58.667 90.5 68 148.5c5.33301 34.667 4.16602 66.5 -3.50098 95.5s-20.667 54.167 -39 75.5s-41.333 38 -69 50s-58.834 18 -93.501 18c-34 0 -66.667 -6 -98 -18s-59.166 -28.667 -83.499 -50s-44.833 -46.666 -61.5 -75.999s-27.667 -61 -33 -95
c-4.66699 -28 -5.16699 -54.833 -1.5 -80.5s11.334 -48.5 23.001 -68.5s27.5 -36.833 47.5 -50.5s44 -22.834 72 -27.501l-28 -183h-257z" />
    <glyph glyph-name="endash" unicode="&#x2013;"
d="M31 223l10 62h500l-10 -62h-500z" />
    <glyph glyph-name="emdash" unicode="&#x2014;" horiz-adv-x="691"
d="M0 223l10 62h740l-10 -62h-740z" />
    <glyph glyph-name="quoteleft" unicode="&#x2018;" horiz-adv-x="225"
d="M176 451h-100l88 242h50z" />
    <glyph glyph-name="quoteright" unicode="&#x2019;" horiz-adv-x="223"
d="M120 450h-50l38 242h100z" />
    <glyph glyph-name="quotesinglbase" unicode="&#x201a;" horiz-adv-x="223"
d="M48 -146h-48l38 242h100z" />
    <glyph glyph-name="quotedblleft" unicode="&#x201c;" horiz-adv-x="387"
d="M339 451h-100l88 242h50zM176 451h-100l88 242h50z" />
    <glyph glyph-name="quotedblright" unicode="&#x201d;" horiz-adv-x="387"
d="M283 451h-50l38 242h100zM120 451h-50l38 242h100z" />
    <glyph glyph-name="quotedblbase" unicode="&#x201e;" horiz-adv-x="387"
d="M213 -146h-50l38 242h100zM50 -146h-50l38 242h100z" />
    <glyph glyph-name="dagger" unicode="&#x2020;" horiz-adv-x="782"
d="M313 432l-68 -432h-79l67 432h-193l10 66h195l31 194h81l-31 -194h190l-10 -66h-193z" />
    <glyph glyph-name="daggerdbl" unicode="&#x2021;" horiz-adv-x="782"
d="M350 431l-25 -165h191l-10 -67h-192l-33 -200h-79l33 202l-195 -1l10 65h197l25 166h-196l10 66h199l31 194h78l-32 -194h190l-10 -66h-192z" />
    <glyph glyph-name="bullet" unicode="&#x2022;" horiz-adv-x="677"
d="M560 346c-4 -24 -12.167 -46.5 -24.5 -67.5s-27.5 -39.333 -45.5 -55s-38.167 -28 -60.5 -37s-45.5 -13.5 -69.5 -13.5s-45.833 4.5 -65.5 13.5s-36 21.333 -49 37s-22.5 34 -28.5 55s-7 43.5 -3 67.5s12.167 46.5 24.5 67.5s27.5 39.333 45.5 55s38.167 28 60.5 37
s45.5 13.5 69.5 13.5s45.833 -4.5 65.5 -13.5s36 -21.333 49 -37s22.5 -34 28.5 -55s7 -43.5 3 -67.5z" />
    <glyph glyph-name="ellipsis" unicode="&#x2026;" horiz-adv-x="683"
d="M833 50c-3.33301 -22 -10.333 -37.499 -21 -46.499s-27 -13.5 -49 -13.5c-23.333 0 -39.166 4.66699 -47.499 14s-10.833 24.666 -7.5 45.999s10.666 36.666 21.999 45.999s28.333 14 51 14c22 0 37 -4.66699 45 -14s10.333 -24.666 7 -45.999zM503 50.001
c-3.33301 -22 -10.333 -37.499 -21 -46.499s-27 -13.5 -49 -13.5c-23.333 0 -39.166 4.66699 -47.499 14s-10.833 24.666 -7.5 45.999s10.666 36.666 21.999 45.999s28.333 14 51 14c22 0 37 -4.66699 45 -14s10.333 -24.666 7 -45.999zM168 50.002
c-3.33301 -22 -10.333 -37.499 -21 -46.499s-27 -13.5 -49 -13.5c-23.333 0 -39.166 4.66699 -47.499 14s-10.833 24.666 -7.5 45.999s10.666 36.666 21.999 45.999s28.333 14 51 14c22 0 37 -4.66699 45 -14s10.333 -24.666 7 -45.999z" />
    <glyph glyph-name="perthousand" unicode="&#x2030;" horiz-adv-x="1061"
d="M780 207c-4 -23.333 -10.665 -47.6689 -19.998 -73.002s-22 -48.5 -38 -69.5s-35.167 -38.333 -57.5 -52s-48.166 -20.5 -77.499 -20.5c-31.333 0 -56.333 6.5 -75 19.5s-32.334 29.833 -41.001 50.5s-13.334 43.834 -14.001 69.501s1 50.834 5 75.501
c3.33301 23.333 9.5 47.5 18.5 72.5s21.333 48 37 69s34.667 38.333 57 52s48.5 20.5 78.5 20.5c31.333 0 56.166 -6.5 74.499 -19.5s32 -29.833 41 -50.5s14.167 -43.667 15.5 -69s0 -50.333 -4 -75zM164.002 -28.0029l-43 18l558 729l45 -19zM384.002 485.997
c-4 -23.333 -10.666 -47.6689 -19.999 -73.002s-21.833 -48.5 -37.5 -69.5s-34.667 -38.333 -57 -52s-48.166 -20.5 -77.499 -20.5c-31.333 0 -56.333 6.5 -75 19.5s-32.5 29.833 -41.5 50.5s-13.833 43.834 -14.5 69.501s1 50.834 5 75.501
c3.33301 23.333 9.66602 47.5 18.999 72.5s21.833 48 37.5 69s34.667 38.333 57 52s48.5 20.5 78.5 20.5c31.333 0 56.166 -6.5 74.499 -19.5s32 -29.833 41 -50.5s14 -43.667 15 -69s-0.5 -50.333 -4.5 -75zM714.003 206.994c2 14.667 3.50098 31.667 4.50098 51
s-0.5 37.5 -4.5 54.5s-11.333 31.333 -22 43s-26 17.5 -46 17.5s-37 -5.83301 -51 -17.5s-25.5 -26 -34.5 -43s-16.167 -35.167 -21.5 -54.5s-9 -36.333 -11 -51c-2.66699 -15.333 -4.5 -32.666 -5.5 -51.999s0.5 -37.833 4.5 -55.5s11.167 -32.5 21.5 -44.5
s25.5 -18 45.5 -18s37.167 6 51.5 18s26.166 26.833 35.499 44.5s16.5 36.167 21.5 55.5s8.83301 36.666 11.5 51.999zM318.004 485.994c2 14.667 3.50098 31.667 4.50098 51s-0.5 37.5 -4.5 54.5s-11.333 31.333 -22 43s-26 17.5 -46 17.5s-37 -5.83301 -51 -17.5
s-25.5 -26 -34.5 -43s-16.167 -35.167 -21.5 -54.5s-9 -36.333 -11 -51c-2.66699 -15.333 -4.33398 -32.666 -5.00098 -51.999s1 -37.833 5 -55.5s11.167 -32.5 21.5 -44.5s25.5 -18 45.5 -18s37 6 51 18s25.667 26.833 35 44.5s16.5 36.167 21.5 55.5
s8.83301 36.666 11.5 51.999zM1150 203.994c-3.33301 -23.333 -9.83105 -47.6689 -19.498 -73.002s-22.334 -48.5 -38.001 -69.5s-34.667 -38.333 -57 -52s-48.166 -20.5 -77.499 -20.5c-31.333 0 -56.333 6.5 -75 19.5s-32.334 29.833 -41.001 50.5
s-13.5 43.834 -14.5 69.501s0.5 50.834 4.5 75.501c4 23.333 10.5 47.5 19.5 72.5s21.333 48 37 69s34.667 38.333 57 52s48.5 20.5 78.5 20.5c31.333 0 56.166 -6.5 74.499 -19.5s32 -29.833 41 -50.5s14 -43.667 15 -69s-0.5 -50.333 -4.5 -75zM1084.01 203.991
c2.66699 14.667 4.33301 31.667 5 51s-1 37.5 -5 54.5s-11.333 31.333 -22 43s-26 17.5 -46 17.5s-37 -5.83301 -51 -17.5s-25.5 -26 -34.5 -43s-16 -35.167 -21 -54.5s-8.83301 -36.333 -11.5 -51c-2 -15.333 -3.5 -32.666 -4.5 -51.999s0.5 -37.833 4.5 -55.5
s11.167 -32.5 21.5 -44.5s25.5 -18 45.5 -18s37.167 6 51.5 18s26 26.833 35 44.5s16.167 36.167 21.5 55.5s9 36.666 11 51.999z" />
    <glyph glyph-name="guilsinglleft" unicode="&#x2039;" horiz-adv-x="258"
d="M127 263l109 -162l-39 -23l-154 185l164 195l39 -23z" />
    <glyph glyph-name="guilsinglright" unicode="&#x203a;" horiz-adv-x="258"
d="M65 78l-36 23l146 172l-83 162l42 23l125 -185z" />
    <glyph glyph-name="fraction" unicode="&#x2044;" horiz-adv-x="382"
d="M68 -26l-67 20l422 724l68 -20z" />
    <glyph glyph-name="fraction" unicode="&#x2215;" horiz-adv-x="382"
d="M68 -26l-67 20l422 724l68 -20z" />
    <glyph glyph-name="Euro" unicode="&#x20ac;" horiz-adv-x="690"
d="M638 41c-2.66699 -1.33301 -4.83789 -2.33301 -6.50488 -3s-3.16699 -1.33398 -4.5 -2.00098c-30 -14 -58.5 -25.333 -85.5 -34s-56.5 -13 -88.5 -13c-41.333 0 -79.833 6 -115.5 18s-66.834 29.333 -93.501 52s-48.167 50.334 -64.5 83.001s-25.833 69.667 -28.5 111
h-82l9 56h75c0 4.66699 0.333008 9.16699 1 13.5l2 13.5c1.33301 8 2.83301 16.167 4.5 24.5s3.83398 16.5 6.50098 24.5h-76l8 56h86c16.667 38.667 37.834 74 63.501 106s54.834 59.5 87.501 82.5s68.334 41 107.001 54s79.334 19.5 122.001 19.5
c19.333 0 36.333 -0.333008 51 -1s28.5 -2.33398 41.5 -5.00098s26.167 -6.16699 39.5 -10.5s28.333 -10.166 45 -17.499l-1 -2h2l-27 -173h-38l-28 128c-14 4 -28.5 6.83301 -43.5 8.5s-33.167 2.5 -54.5 2.5c-32 0 -61.833 -4.83301 -89.5 -14.5s-53.167 -23 -76.5 -40
s-44.166 -37.333 -62.499 -61s-33.833 -49.167 -46.5 -76.5h223l-8 -56h-234c-1.33301 -7.33301 -2.83301 -14.5 -4.5 -21.5s-3.16699 -14.167 -4.5 -21.5c-1.33301 -5.33301 -2.33301 -10.833 -3 -16.5s-1 -11.167 -1 -16.5h234l-9 -56h-224
c6.66699 -58.667 29.667 -105.5 69 -140.5s92.333 -52.5 159 -52.5c10 0 18.5 0.5 25.5 1.5s13.5 2.33301 19.5 4s12 3.66699 18 6s13 4.83301 21 7.5l83 127h36z" />
    <glyph glyph-name="trademark" unicode="&#x2122;" horiz-adv-x="754"
d="M374 622l-19 82h-91l-57 -363l66 -24l-3 -17h-199l3 17l74 24l57 363h-93l-44 -82h-19l20 130h342l-20 -130h-17zM875 341l54.001 -23.999l-3 -17h-174l3 17l62 24l51 325l-202 -366h-55l-82 365h-1l-51 -324l54 -24l-3 -17h-174l3 17l62 24l58 369l-55 25l3 16h135
l82 -326c3.33301 -14 5.66602 -27.5 6.99902 -40.5s2.33301 -21.5 3 -25.5l13.5 29.5c5.66699 12.333 11.5 24.166 17.5 35.499l182 327h132l-3 -16l-61 -25z" />
    <glyph glyph-name="partialdiff" unicode="&#x2202;" horiz-adv-x="584"
d="M558 362c-4.66699 -29.333 -11 -60.8281 -19 -94.4951s-19.167 -66.5 -33.5 -98.5s-32.166 -61.667 -53.499 -89s-47.333 -49.333 -78 -66c-17.333 -9.33301 -34.833 -16 -52.5 -20s-35.5 -6 -53.5 -6c-31.333 0 -58.666 6.16699 -81.999 18.5s-42.333 28.666 -57 48.999
s-24.5 44.166 -29.5 71.499s-5.16699 56 -0.5 86c4.66699 29.333 13.5 57 26.5 83s29.5 48.667 49.5 68s43.167 34.666 69.5 45.999s55.166 17 86.499 17s60 -6.83301 86 -20.5s47 -32.167 63 -55.5c3.33301 19.333 6.16602 40.333 8.49902 63s3.33301 45.334 3 68.001
s-2.83301 44.5 -7.5 65.5s-12.167 39.667 -22.5 56s-24 29.5 -41 39.5s-38.5 15 -64.5 15c-22.667 0 -43.667 -4.5 -63 -13.5s-38.666 -20.167 -57.999 -33.5l-34 50c25.333 19.333 51.166 34.166 77.499 44.499s54.5 15.5 84.5 15.5c48.667 0 87.334 -11 116.001 -33
s50 -50.333 64 -85s21.667 -73.334 23 -116.001s-1.33398 -84.334 -8.00098 -125.001zM465 280.005c-14 23.333 -32.335 43.3301 -55.002 59.9971s-49 25 -79 25c-22 0 -42.167 -4.33301 -60.5 -13s-34.166 -20.167 -47.499 -34.5s-24.333 -30.833 -33 -49.5
s-14.667 -38 -18 -58s-3.66602 -39.667 -0.999023 -59s8.33398 -36.666 17.001 -51.999s20.5 -27.666 35.5 -36.999s33.5 -14 55.5 -14c28 0 52.667 7.83301 74 23.5s39.833 35.334 55.5 59.001s28.167 49 37.5 76s15.666 51.5 18.999 73.5z" />
    <glyph glyph-name="product" unicode="&#x220f;" horiz-adv-x="726"
d="M133 691h676l-4 -26l-94 -36l-89 -566l83 -37l-4 -26h-263l4 26l93 36l87 555h-324l-87 -554l83 -37l-4 -26h-265l4 26l94 37l89 566l-83 36z" />
    <glyph glyph-name="summation" unicode="&#x2211;" horiz-adv-x="588"
d="M30 0l284.002 347l-175 345h507l-31 -198h-28l-28 125h-177h-38c-12.667 0 -24.334 0.333008 -35.001 1l-36 2l15 -24l15.5 -25.5c5.66699 -9.66699 11.167 -20.167 16.5 -31.5l99 -194l-158 -191c-7.33301 -9.33301 -15.5 -18.833 -24.5 -28.5l-25.5 -26.5l-28 -28h46
c12.667 0 25.167 0.166992 37.5 0.5s22.166 0.5 29.499 0.5h178l86 125h27l-49 -199h-508z" />
    <glyph glyph-name="minus" unicode="&#x2212;" horiz-adv-x="594"
d="M88 217l12 71h475l-12 -71h-475z" />
    <glyph glyph-name="radical" unicode="&#x221a;" horiz-adv-x="454"
d="M284 2h-75l-110 334l-47 1l5 37h111l84 -265l245 677h76z" />
    <glyph glyph-name="infinity" unicode="&#x221e;" horiz-adv-x="759"
d="M756 255c-3.33301 -22 -9.83496 -42.5039 -19.502 -61.5039s-22 -35.667 -37 -50s-32.167 -25.5 -51.5 -33.5s-40.333 -12 -63 -12c-19.333 0 -37.166 3.16699 -53.499 9.5s-31.5 14.833 -45.5 25.5s-27.167 22.334 -39.5 35.001s-23.833 25.667 -34.5 39l-48 -38.5
c-16 -13 -32.5 -24.667 -49.5 -35s-34.667 -18.666 -53 -24.999s-37.5 -9.5 -57.5 -9.5c-22 0 -41.5 3.83301 -58.5 11.5s-30.833 18.334 -41.5 32.001s-18 29.834 -22 48.501s-4.33301 39 -1 61c3.33301 21.333 9.83301 41.5 19.5 60.5s21.834 35.5 36.501 49.5
s31.5 25.167 50.5 33.5s39.833 12.5 62.5 12.5c20 0 38.333 -3.33301 55 -10s32 -15.5 46 -26.5s27 -23.333 39 -37l35 -40.5l47 40.5c16 13.667 32.5 26.167 49.5 37.5s34.833 20.5 53.5 27.5s38 10.5 58 10.5c22.667 0 42.5 -4 59.5 -12s30.667 -19 41 -33
s17.5 -30.333 21.5 -49s4.33301 -39 1 -61zM690.998 251.996c4 25.333 0.333008 46.667 -11 64s-30.333 26 -57 26c-14 0 -28.167 -3 -42.5 -9s-28.5 -13.667 -42.5 -23s-27.5 -19.333 -40.5 -30l-35.5 -29c8.66699 -10 17.834 -20 27.501 -30s20 -19 31 -27
s22.833 -14.667 35.5 -20s26.667 -8 42 -8c25.333 0 46.166 8.33301 62.499 25s26.5 37 30.5 61zM375.998 250.997l-26.998 28.499c-10 10.333 -20.833 20 -32.5 29s-24 16.667 -37 23s-26.167 9.5 -39.5 9.5c-25.333 0 -46.5 -9 -63.5 -27s-27.167 -38.667 -30.5 -62
c-4 -25.333 0 -46 12 -62s31 -24 57 -24c13.333 0 27.166 2.66699 41.499 8s28.666 12.333 42.999 21s28 17.834 41 27.501s24.833 19.167 35.5 28.5z" />
    <glyph glyph-name="integral" unicode="&#x222b;" horiz-adv-x="584"
d="M567 730c-2 -12 -7.66797 -21.3359 -17.001 -28.0029s-19.666 -10 -30.999 -10c-8 0 -14.333 2.16699 -19 6.5s-8.66699 9.33301 -12 15l-9 15c-2.66699 4.33301 -6 6.5 -10 6.5c-6.66699 0 -12.667 -3.5 -18 -10.5s-10 -16.167 -14 -27.5s-7.33301 -23.833 -10 -37.5
s-5 -27.167 -7 -40.5s-3.66699 -25.666 -5 -36.999s-2.33301 -20.333 -3 -27l-86 -551c-3.33301 -23.333 -7.83301 -49.666 -13.5 -78.999s-14.334 -57.333 -26.001 -84s-27.5 -49 -47.5 -67s-46.333 -27 -79 -27c-7.33301 0 -15 1 -23 3s-15 5.16699 -21 9.5
s-10.667 9.66602 -14 15.999s-4.33301 14.166 -3 23.499s6.5 17.666 15.5 24.999s18.167 11 27.5 11c8 0 14.167 -2.16699 18.5 -6.5s8 -9.16602 11 -14.499s5.5 -10.166 7.5 -14.499s4.66699 -6.5 8 -6.5c8.66699 0 16 6.5 22 19.5s11 28 15 45s7.16699 33.833 9.5 50.5
s4.16602 28.667 5.49902 36l87 557c2.66699 16.667 5.33398 35.334 8.00098 56.001s6.33398 41.5 11.001 62.5s10.667 41.5 18 61.5s16.833 37.833 28.5 53.5s26 28.167 43 37.5s37.5 14 61.5 14c8.66699 0 17.5 -1 26.5 -3s17 -5.16699 24 -9.5s12.5 -10.166 16.5 -17.499
s5.33301 -16 4 -26z" />
    <glyph glyph-name="approxequal" unicode="&#x2248;" horiz-adv-x="584"
d="M621 415c-4.66699 -18.667 -11.3369 -36.834 -20.0039 -54.501s-19.167 -33.167 -31.5 -46.5s-26.833 -24.166 -43.5 -32.499s-35.667 -12.5 -57 -12.5c-22.667 0 -45.667 3.66699 -69 11s-46.166 15.5 -68.499 24.5s-43.833 17.167 -64.5 24.5s-40 11 -58 11
c-21.333 0 -39.833 -8 -55.5 -24s-26.5 -33.667 -32.5 -53h-51c4.66699 18 11.334 35.833 20.001 53.5s19.167 33.5 31.5 47.5s26.833 25.333 43.5 34s35.667 13 57 13c22.667 0 45.334 -3.66699 68.001 -11s45 -15.5 67 -24.5s43.667 -17.167 65 -24.5s42.333 -11 63 -11
c22.667 0 40.834 7.5 54.501 22.5s24.167 32.5 31.5 52.5h50v0zM591.997 234c-4.66699 -18.667 -11.334 -36.6689 -20.001 -54.002s-19.167 -32.833 -31.5 -46.5s-26.833 -24.5 -43.5 -32.5s-35.667 -12 -57 -12c-22.667 0 -45.667 3.66699 -69 11
s-46.166 15.5 -68.499 24.5l-64.5 25c-20.667 7.66699 -40 11.5 -58 11.5c-10.667 0 -20.667 -2.16699 -30 -6.5s-17.833 -10.166 -25.5 -17.499s-14.334 -15.666 -20.001 -24.999s-9.83398 -19 -12.501 -29h-52c5.33301 18 12.166 35.833 20.499 53.5
s18.833 33.5 31.5 47.5s27.334 25.333 44.001 34s35.667 13 57 13c23.333 0 46.333 -3.66699 69 -11s44.834 -15.5 66.501 -24.5s43.167 -17.167 64.5 -24.5s42.333 -11 63 -11c22.667 0 40.834 7.33301 54.501 22s24.167 32 31.5 52h50v0z" />
    <glyph glyph-name="notequal" unicode="&#x2260;" horiz-adv-x="584"
d="M276 114l-99 -146l-56 32l76 114h-141l12 72h178l86 127h-245l12 71h283l100 148l57 -32l-79 -116h146l-12 -71h-183l-86 -127h250l-12 -72h-287z" />
    <glyph glyph-name="lessequal" unicode="&#x2264;" horiz-adv-x="584"
d="M78 266l12 75l536 187l-12 -78l-431 -146l385 -145l-12 -77zM32 -30l11 72h507l-11 -72h-507z" />
    <glyph glyph-name="greaterequal" unicode="&#x2265;" horiz-adv-x="584"
d="M52 82l12 77l431 145l-385 146l12 78l478 -187l-12 -75zM35 -30l11 72h507l-11 -72h-507z" />
    <glyph glyph-name="lozenge" unicode="&#x25ca;" horiz-adv-x="584"
d="M322 -35h-72l-110 391l232 391h72l111 -391zM396 671l-180 -315l82 -315l181 315z" />
    <glyph glyph-name="fi" unicode="&#xfb01;" horiz-adv-x="585"
d="M131 430l-98.9961 -0.000976562l10 38l100 30l9 53c4.66699 30.667 12.334 59 23.001 85s25 48.333 43 67s40.167 33.167 66.5 43.5s57.5 15.5 93.5 15.5h66l-24 -148h-26l-23 88c-7.33301 1.33301 -15 1 -23 -1s-17.667 -4.66699 -29 -8
c-14 -5.33301 -26 -13.166 -36 -23.499s-18.167 -22.166 -24.5 -35.499s-11.5 -28 -15.5 -44s-7.33301 -32.333 -10 -49l-7 -43h158c6.66699 0 12.667 1.33301 18 4s10.333 5.66699 15 9s9.66699 6.33301 15 9s11.666 4 18.999 4c14.667 0 27.667 -3.83301 39 -11.5
s17.666 -17.167 18.999 -28.5v-13c0 -4 -0.5 -10.667 -1.5 -20s-2.66699 -22.333 -5 -39s-5.83301 -39.334 -10.5 -68.001l-18 -106.5l-26 -154.5c0.666992 -8 1.5 -14.167 2.5 -18.5s4.83301 -6.5 11.5 -6.5c4 0 9 2.66699 15 8s12.667 12 20 20s14.5 16.667 21.5 26
l19.5 25l9 -7.5l9 -7.5c-7.33301 -17.333 -16.333 -34.166 -27 -50.499s-22.667 -31.166 -36 -44.499s-26.5 -21.5 -39.5 -24.5s-26.167 -4.5 -39.5 -4.5c-14.667 0 -27.667 2.83301 -39 8.5s-17.333 14.167 -18 25.5c0.666992 4.66699 1.16699 9.83398 1.5 15.501
s1 13.667 2 24s2.66699 24 5 41l9.5 67.5l15.5 104l23.5 150l-199 -4l-74 -480c-4.66699 -31.333 -12.334 -59.833 -23.001 -85.5s-25 -47.834 -43 -66.501s-40 -33.167 -66 -43.5s-57 -15.5 -93 -15.5h-36l11 61l31 -1c7.33301 -1.33301 15.166 -1 23.499 1
s18.166 4.66699 29.499 8c14 5.33301 25.667 13.166 35 23.499s17.333 22.166 24 35.499s12 27.833 16 43.5s7.33301 32.167 10 49.5z" />
    <glyph glyph-name="fl" unicode="&#xfb02;" horiz-adv-x="559"
d="M507 134l8.99902 -7.50098l9 -7.5c-7.33301 -17.333 -16.333 -34.166 -27 -50.499s-22.667 -31.166 -36 -44.499c-12.667 -13.333 -25.667 -21.5 -39 -24.5s-26.666 -4.5 -39.999 -4.5c-14.667 0 -27.667 2.83301 -39 8.5s-17.333 14.167 -18 25.5
c0 3.33301 0.333008 7.5 1 12.5s2 14.333 4 28l9 59.5l17 107.5l27 172l39 252.5c0.666992 7.33301 0.833984 13.5 0.500977 18.5s-2.16602 9 -5.49902 12s-8.83301 5.33301 -16.5 7s-18.167 2.83398 -31.5 3.50098c-7.33301 1.33301 -15 1 -23 -1s-17.667 -4.66699 -29 -8
c-14 -5.33301 -26 -13.166 -36 -23.499s-18.167 -22.166 -24.5 -35.499s-11.5 -28 -15.5 -44s-7.33301 -32.333 -10 -49l-7 -43h109l-10 -68h-110l-74 -480c-4.66699 -31.333 -12.334 -59.833 -23.001 -85.5s-25 -47.834 -43 -66.501s-40 -33.167 -66 -43.5
s-57 -15.5 -93 -15.5h-36l11 61l31 -1c7.33301 -1.33301 15.166 -1 23.499 1s18.166 4.66699 29.499 8c14 5.33301 25.667 13.166 35 23.499s17.333 22.166 24 35.499s12 27.833 16 43.5s7.33301 32.167 10 49.5l72 470h-99l10 38l100 30l9 53
c4.66699 30.667 12.334 58.834 23.001 84.501s25 47.667 43 66s40.167 32.666 66.5 42.999s57.5 16.166 93.5 17.499l58 2v-35l86 23l-104 -672c0.666992 -8 1.66699 -14.167 3 -18.5s5.33301 -6.5 12 -6.5c4 0 9 2.66699 15 8s12.5 12 19.5 20s14 16.667 21 26z" />
    <glyph glyph-name=".null" horiz-adv-x="0"
 />
    <glyph glyph-name="nonmarkingreturn" horiz-adv-x="275"
 />
    <glyph glyph-name="uni0020" horiz-adv-x="292"
 />
    <glyph glyph-name="thorn" horiz-adv-x="588"
d="M250 713c0 -2.66699 -0.999023 -13.168 -2.99902 -31.501s-4.83301 -40.833 -8.5 -67.5l-12.5 -87l-14 -91c22.667 21.333 46.667 38.833 72 52.5s54.333 20.5 87 20.5c37.333 0 68.333 -6.66699 93 -20s43.667 -31.166 57 -53.499s21.5 -48.166 24.5 -77.499
s2.16699 -60 -2.5 -92c-5.33301 -34 -14.833 -67.5 -28.5 -100.5s-31.5 -62.5 -53.5 -88.5s-48.333 -47.167 -79 -63.5s-65.667 -24.5 -105 -24.5c-31.333 0 -57 3.5 -77 10.5s-37.333 18.5 -52 34.5l-36 -228l105 -33l-4 -26h-277l4 26l92 33l133 855
c-0.666992 8.66699 -1.5 15.167 -2.5 19.5s-4.83301 6.5 -11.5 6.5c-4 0 -9 -2.83301 -15 -8.5s-12.667 -12.5 -20 -20.5s-14.5 -16.5 -21.5 -25.5l-19.5 -24.5l-9 7.5l-9 7.5c13.333 36 34.333 67.333 63 94c12.667 13.333 25.5 21.666 38.5 24.999s26.167 5 39.5 5
c14.667 0 26.667 -2.83301 36 -8.5s14.666 -14.167 15.999 -25.5zM456.001 263.999c3.33301 22.667 3.99902 44.999 1.99902 66.999s-7.5 41.667 -16.5 59s-21.5 31.333 -37.5 42s-36 16 -60 16c-29.333 0 -56 -9.5 -80 -28.5s-45 -40.833 -63 -65.5l-37 -240
c10.667 -22 26.667 -38.167 48 -48.5s44 -15.5 68 -15.5c28.667 0 53.334 7.16699 74.001 21.5s38 32.333 52 54s25 44.834 33 69.501s13.667 47.667 17 69z" />
    </font>
</defs>
</svg>
